STARTFONT 2.1
FONT -simutrans-prop-medium-r-normal--12-120-77-75-P-80-ISO10646-1
SIZE 12 77 75
FONTBOUNDINGBOX 10 11 0 -2
STARTPROPERTIES 17
POINT_SIZE 100
PIXEL_SIZE 10
RESOLUTION_X 77
RESOLUTION_Y 75
FONT_ASCENT 9
FONT_DESCENT 2
AVERAGE_WIDTH 70
SPACING "P"
FOUNDRY "simutrans"
FAMILY_NAME "prop"
WEIGHT_NAME "medium"
SLANT "r"
SETWIDTH_NAME "normal"
ADD_STYLE_NAME ""
CHARSET_REGISTRY "ISO10646"
CHARSET_ENCODING "1"
_GBDFED_INFO "Edited with gbdfed 1.5."
ENDPROPERTIES
CHARS 2744
STARTCHAR char10
ENCODING 10
SWIDTH 389 0
DWIDTH 5 0
BBX 0 0 0 0
BITMAP
ENDCHAR
STARTCHAR char29
ENCODING 29
SWIDTH 623 0
DWIDTH 8 0
BBX 8 8 0 0
BITMAP
BA
44
AA
92
92
AA
44
BA
ENDCHAR
STARTCHAR char30
ENCODING 30
SWIDTH 623 0
DWIDTH 8 0
BBX 8 8 0 0
BITMAP
38
44
AA
82
AA
92
44
38
ENDCHAR
STARTCHAR char31
ENCODING 31
SWIDTH 623 0
DWIDTH 8 0
BBX 8 8 0 0
BITMAP
38
44
AA
82
92
AA
44
38
ENDCHAR
STARTCHAR char32
ENCODING 32
SWIDTH 389 0
DWIDTH 5 0
BBX 5 0 0 0
BITMAP
ENDCHAR
STARTCHAR char33
ENCODING 33
SWIDTH 311 0
DWIDTH 4 0
BBX 4 9 0 -1
BITMAP
60
60
60
60
60
60
00
60
60
ENDCHAR
STARTCHAR char34
ENCODING 34
SWIDTH 545 0
DWIDTH 7 0
BBX 7 3 0 5
BITMAP
6C
6C
D8
ENDCHAR
STARTCHAR char35
ENCODING 35
SWIDTH 623 0
DWIDTH 8 0
BBX 8 8 0 0
BITMAP
6C
6C
FE
6C
6C
FE
6C
6C
ENDCHAR
STARTCHAR char36
ENCODING 36
SWIDTH 545 0
DWIDTH 7 0
BBX 7 9 0 -1
BITMAP
10
78
D4
D0
D0
D0
D4
78
10
ENDCHAR
STARTCHAR char37
ENCODING 37
SWIDTH 623 0
DWIDTH 8 0
BBX 8 8 0 0
BITMAP
72
B6
AC
D8
36
6A
DA
9C
ENDCHAR
STARTCHAR char38
ENCODING 38
SWIDTH 545 0
DWIDTH 7 0
BBX 7 8 0 0
BITMAP
70
D0
D0
E0
74
FC
D8
EC
ENDCHAR
STARTCHAR char39
ENCODING 39
SWIDTH 311 0
DWIDTH 4 0
BBX 4 3 0 5
BITMAP
60
60
C0
ENDCHAR
STARTCHAR char40
ENCODING 40
SWIDTH 389 0
DWIDTH 5 0
BBX 5 8 0 0
BITMAP
30
60
C0
C0
C0
C0
60
30
ENDCHAR
STARTCHAR char41
ENCODING 41
SWIDTH 389 0
DWIDTH 5 0
BBX 5 8 0 0
BITMAP
C0
60
30
30
30
30
60
C0
ENDCHAR
STARTCHAR char42
ENCODING 42
SWIDTH 623 0
DWIDTH 8 0
BBX 8 5 0 1
BITMAP
24
18
7E
18
24
ENDCHAR
STARTCHAR char43
ENCODING 43
SWIDTH 545 0
DWIDTH 7 0
BBX 7 5 0 1
BITMAP
30
30
FC
30
30
ENDCHAR
STARTCHAR char44
ENCODING 44
SWIDTH 311 0
DWIDTH 4 0
BBX 4 3 0 -1
BITMAP
60
60
C0
ENDCHAR
STARTCHAR char45
ENCODING 45
SWIDTH 467 0
DWIDTH 6 0
BBX 6 1 0 3
BITMAP
F8
ENDCHAR
STARTCHAR char46
ENCODING 46
SWIDTH 233 0
DWIDTH 3 0
BBX 3 2 0 0
BITMAP
C0
C0
ENDCHAR
STARTCHAR char47
ENCODING 47
SWIDTH 545 0
DWIDTH 7 0
BBX 7 7 0 0
BITMAP
04
0C
18
30
60
C0
80
ENDCHAR
STARTCHAR char48
ENCODING 48
SWIDTH 545 0
DWIDTH 7 0
BBX 7 8 0 0
BITMAP
78
CC
CC
CC
CC
CC
CC
78
ENDCHAR
STARTCHAR char49
ENCODING 49
SWIDTH 545 0
DWIDTH 7 0
BBX 7 8 0 0
BITMAP
30
70
30
30
30
30
30
FC
ENDCHAR
STARTCHAR char50
ENCODING 50
SWIDTH 545 0
DWIDTH 7 0
BBX 7 8 0 0
BITMAP
78
CC
0C
18
30
60
C0
FC
ENDCHAR
STARTCHAR char51
ENCODING 51
SWIDTH 545 0
DWIDTH 7 0
BBX 7 8 0 0
BITMAP
78
CC
0C
38
0C
0C
CC
78
ENDCHAR
STARTCHAR char52
ENCODING 52
SWIDTH 545 0
DWIDTH 7 0
BBX 7 8 0 0
BITMAP
60
60
6C
CC
CC
FC
0C
0C
ENDCHAR
STARTCHAR char53
ENCODING 53
SWIDTH 545 0
DWIDTH 7 0
BBX 7 8 0 0
BITMAP
F8
C0
C0
F8
0C
0C
CC
78
ENDCHAR
STARTCHAR char54
ENCODING 54
SWIDTH 545 0
DWIDTH 7 0
BBX 7 8 0 0
BITMAP
78
C0
C0
F8
CC
CC
CC
78
ENDCHAR
STARTCHAR char55
ENCODING 55
SWIDTH 545 0
DWIDTH 7 0
BBX 7 8 0 0
BITMAP
FC
0C
18
18
18
30
30
30
ENDCHAR
STARTCHAR char56
ENCODING 56
SWIDTH 545 0
DWIDTH 7 0
BBX 7 8 0 0
BITMAP
78
CC
CC
78
CC
CC
CC
78
ENDCHAR
STARTCHAR char57
ENCODING 57
SWIDTH 545 0
DWIDTH 7 0
BBX 7 8 0 0
BITMAP
78
CC
CC
CC
CC
7C
0C
78
ENDCHAR
STARTCHAR char58
ENCODING 58
SWIDTH 311 0
DWIDTH 4 0
BBX 4 6 0 0
BITMAP
60
60
00
00
60
60
ENDCHAR
STARTCHAR char59
ENCODING 59
SWIDTH 311 0
DWIDTH 4 0
BBX 4 7 0 -1
BITMAP
60
60
00
00
60
60
C0
ENDCHAR
STARTCHAR char60
ENCODING 60
SWIDTH 545 0
DWIDTH 7 0
BBX 7 6 0 0
BITMAP
0C
38
E0
E0
38
0C
ENDCHAR
STARTCHAR char61
ENCODING 61
SWIDTH 467 0
DWIDTH 6 0
BBX 6 4 0 1
BITMAP
F8
00
00
F8
ENDCHAR
STARTCHAR char62
ENCODING 62
SWIDTH 545 0
DWIDTH 7 0
BBX 7 6 0 0
BITMAP
C0
70
1C
1C
70
C0
ENDCHAR
STARTCHAR char63
ENCODING 63
SWIDTH 545 0
DWIDTH 7 0
BBX 7 9 0 -1
BITMAP
78
CC
0C
18
30
30
00
30
30
ENDCHAR
STARTCHAR char64
ENCODING 64
SWIDTH 701 0
DWIDTH 9 0
BBX 8 8 0 0
BITMAP
7E
E3
CF
DB
DB
CF
E0
7E
ENDCHAR
STARTCHAR char65
ENCODING 65
SWIDTH 545 0
DWIDTH 7 0
BBX 7 8 0 0
BITMAP
78
CC
CC
FC
CC
CC
CC
CC
ENDCHAR
STARTCHAR char66
ENCODING 66
SWIDTH 545 0
DWIDTH 7 0
BBX 7 8 0 0
BITMAP
F8
CC
CC
F8
CC
CC
CC
F8
ENDCHAR
STARTCHAR char67
ENCODING 67
SWIDTH 545 0
DWIDTH 7 0
BBX 7 8 0 0
BITMAP
78
CC
C0
C0
C0
C0
CC
78
ENDCHAR
STARTCHAR char68
ENCODING 68
SWIDTH 545 0
DWIDTH 7 0
BBX 7 8 0 0
BITMAP
F8
CC
CC
CC
CC
CC
CC
F8
ENDCHAR
STARTCHAR char69
ENCODING 69
SWIDTH 467 0
DWIDTH 6 0
BBX 6 8 0 0
BITMAP
F8
C0
C0
F0
C0
C0
C0
F8
ENDCHAR
STARTCHAR char70
ENCODING 70
SWIDTH 467 0
DWIDTH 6 0
BBX 6 8 0 0
BITMAP
F8
C0
C0
F0
C0
C0
C0
C0
ENDCHAR
STARTCHAR char71
ENCODING 71
SWIDTH 545 0
DWIDTH 7 0
BBX 7 8 0 0
BITMAP
78
CC
C0
C0
DC
CC
CC
74
ENDCHAR
STARTCHAR char72
ENCODING 72
SWIDTH 545 0
DWIDTH 7 0
BBX 7 8 0 0
BITMAP
CC
CC
CC
FC
CC
CC
CC
CC
ENDCHAR
STARTCHAR char73
ENCODING 73
SWIDTH 389 0
DWIDTH 5 0
BBX 5 8 0 0
BITMAP
F0
60
60
60
60
60
60
F0
ENDCHAR
STARTCHAR char74
ENCODING 74
SWIDTH 467 0
DWIDTH 6 0
BBX 6 8 0 0
BITMAP
78
30
30
30
30
30
70
E0
ENDCHAR
STARTCHAR char75
ENCODING 75
SWIDTH 545 0
DWIDTH 7 0
BBX 7 8 0 0
BITMAP
C4
CC
D8
F0
F0
D8
CC
C4
ENDCHAR
STARTCHAR char76
ENCODING 76
SWIDTH 467 0
DWIDTH 6 0
BBX 6 8 0 0
BITMAP
C0
C0
C0
C0
C0
C0
C0
F8
ENDCHAR
STARTCHAR char77
ENCODING 77
SWIDTH 623 0
DWIDTH 8 0
BBX 8 8 0 0
BITMAP
82
C6
EE
FE
D6
C6
C6
C6
ENDCHAR
STARTCHAR char78
ENCODING 78
SWIDTH 545 0
DWIDTH 7 0
BBX 7 8 0 0
BITMAP
CC
CC
EC
EC
DC
DC
CC
CC
ENDCHAR
STARTCHAR char79
ENCODING 79
SWIDTH 545 0
DWIDTH 7 0
BBX 7 8 0 0
BITMAP
78
CC
CC
CC
CC
CC
CC
78
ENDCHAR
STARTCHAR char80
ENCODING 80
SWIDTH 545 0
DWIDTH 7 0
BBX 7 8 0 0
BITMAP
F8
CC
CC
CC
CC
F8
C0
C0
ENDCHAR
STARTCHAR char81
ENCODING 81
SWIDTH 545 0
DWIDTH 7 0
BBX 7 8 0 0
BITMAP
78
CC
CC
CC
CC
D4
D8
6C
ENDCHAR
STARTCHAR char82
ENCODING 82
SWIDTH 545 0
DWIDTH 7 0
BBX 7 8 0 0
BITMAP
F8
CC
CC
CC
F8
F0
D8
CC
ENDCHAR
STARTCHAR char83
ENCODING 83
SWIDTH 545 0
DWIDTH 7 0
BBX 7 8 0 0
BITMAP
78
CC
C0
78
0C
0C
CC
78
ENDCHAR
STARTCHAR char84
ENCODING 84
SWIDTH 545 0
DWIDTH 7 0
BBX 7 8 0 0
BITMAP
FC
30
30
30
30
30
30
30
ENDCHAR
STARTCHAR char85
ENCODING 85
SWIDTH 545 0
DWIDTH 7 0
BBX 7 8 0 0
BITMAP
CC
CC
CC
CC
CC
CC
CC
78
ENDCHAR
STARTCHAR char86
ENCODING 86
SWIDTH 545 0
DWIDTH 7 0
BBX 7 8 0 0
BITMAP
CC
CC
CC
78
78
78
30
30
ENDCHAR
STARTCHAR char87
ENCODING 87
SWIDTH 701 0
DWIDTH 9 0
BBX 8 8 0 0
BITMAP
C3
DB
DB
5A
7E
7E
34
34
ENDCHAR
STARTCHAR char88
ENCODING 88
SWIDTH 545 0
DWIDTH 7 0
BBX 7 8 0 0
BITMAP
CC
CC
78
30
30
78
CC
CC
ENDCHAR
STARTCHAR char89
ENCODING 89
SWIDTH 545 0
DWIDTH 7 0
BBX 7 8 0 0
BITMAP
CC
CC
CC
78
38
30
70
E0
ENDCHAR
STARTCHAR char90
ENCODING 90
SWIDTH 545 0
DWIDTH 7 0
BBX 7 8 0 0
BITMAP
FC
0C
18
30
60
C0
C0
FC
ENDCHAR
STARTCHAR char91
ENCODING 91
SWIDTH 389 0
DWIDTH 5 0
BBX 5 8 0 0
BITMAP
F0
C0
C0
C0
C0
C0
C0
F0
ENDCHAR
STARTCHAR char92
ENCODING 92
SWIDTH 545 0
DWIDTH 7 0
BBX 7 7 0 0
BITMAP
80
C0
60
30
18
0C
04
ENDCHAR
STARTCHAR char93
ENCODING 93
SWIDTH 389 0
DWIDTH 5 0
BBX 5 8 0 0
BITMAP
F0
30
30
30
30
30
30
F0
ENDCHAR
STARTCHAR char94
ENCODING 94
SWIDTH 545 0
DWIDTH 7 0
BBX 7 3 0 5
BITMAP
30
78
CC
ENDCHAR
STARTCHAR char95
ENCODING 95
SWIDTH 467 0
DWIDTH 6 0
BBX 6 1 0 -1
BITMAP
F8
ENDCHAR
STARTCHAR char96
ENCODING 96
SWIDTH 311 0
DWIDTH 4 0
BBX 4 3 0 5
BITMAP
C0
C0
60
ENDCHAR
STARTCHAR char97
ENCODING 97
SWIDTH 545 0
DWIDTH 7 0
BBX 7 6 0 0
BITMAP
78
0C
7C
CC
CC
7A
ENDCHAR
STARTCHAR char98
ENCODING 98
SWIDTH 545 0
DWIDTH 7 0
BBX 7 8 0 0
BITMAP
C0
C0
D8
EC
CC
CC
EC
D8
ENDCHAR
STARTCHAR char99
ENCODING 99
SWIDTH 545 0
DWIDTH 7 0
BBX 7 6 0 0
BITMAP
78
CC
C0
C0
CC
78
ENDCHAR
STARTCHAR char100
ENCODING 100
SWIDTH 545 0
DWIDTH 7 0
BBX 7 8 0 0
BITMAP
0C
0C
6C
DC
CC
CC
DC
6C
ENDCHAR
STARTCHAR char101
ENCODING 101
SWIDTH 545 0
DWIDTH 7 0
BBX 7 6 0 0
BITMAP
78
CC
FC
C0
CC
78
ENDCHAR
STARTCHAR char102
ENCODING 102
SWIDTH 389 0
DWIDTH 5 0
BBX 5 8 0 0
BITMAP
70
C0
F0
C0
C0
C0
C0
C0
ENDCHAR
STARTCHAR char103
ENCODING 103
SWIDTH 545 0
DWIDTH 7 0
BBX 7 8 0 -2
BITMAP
6C
DC
CC
CC
DC
6C
0C
78
ENDCHAR
STARTCHAR char104
ENCODING 104
SWIDTH 545 0
DWIDTH 7 0
BBX 7 8 0 0
BITMAP
C0
C0
D8
EC
CC
CC
CC
CC
ENDCHAR
STARTCHAR char105
ENCODING 105
SWIDTH 233 0
DWIDTH 3 0
BBX 3 8 0 0
BITMAP
C0
00
C0
C0
C0
C0
C0
C0
ENDCHAR
STARTCHAR char106
ENCODING 106
SWIDTH 389 0
DWIDTH 5 0
BBX 5 10 0 -2
BITMAP
30
00
30
30
30
30
30
30
30
E0
ENDCHAR
STARTCHAR char107
ENCODING 107
SWIDTH 467 0
DWIDTH 6 0
BBX 6 8 0 0
BITMAP
C0
C0
C8
D8
F0
F0
D8
C8
ENDCHAR
STARTCHAR char108
ENCODING 108
SWIDTH 233 0
DWIDTH 3 0
BBX 3 8 0 0
BITMAP
C0
C0
C0
C0
C0
C0
C0
C0
ENDCHAR
STARTCHAR char109
ENCODING 109
SWIDTH 701 0
DWIDTH 9 0
BBX 8 6 0 0
BITMAP
B6
DB
DB
DB
DB
DB
ENDCHAR
STARTCHAR char110
ENCODING 110
SWIDTH 545 0
DWIDTH 7 0
BBX 7 6 0 0
BITMAP
D8
EC
CC
CC
CC
CC
ENDCHAR
STARTCHAR char111
ENCODING 111
SWIDTH 545 0
DWIDTH 7 0
BBX 7 6 0 0
BITMAP
78
CC
CC
CC
CC
78
ENDCHAR
STARTCHAR char112
ENCODING 112
SWIDTH 545 0
DWIDTH 7 0
BBX 7 8 0 -2
BITMAP
D8
EC
CC
CC
EC
D8
C0
C0
ENDCHAR
STARTCHAR char113
ENCODING 113
SWIDTH 545 0
DWIDTH 7 0
BBX 7 8 0 -2
BITMAP
6C
DC
CC
CC
DC
6C
0C
0C
ENDCHAR
STARTCHAR char114
ENCODING 114
SWIDTH 311 0
DWIDTH 4 0
BBX 4 6 0 0
BITMAP
B0
E0
C0
C0
C0
C0
ENDCHAR
STARTCHAR char115
ENCODING 115
SWIDTH 545 0
DWIDTH 7 0
BBX 7 6 0 0
BITMAP
78
C4
78
0C
CC
78
ENDCHAR
STARTCHAR char116
ENCODING 116
SWIDTH 389 0
DWIDTH 5 0
BBX 5 8 0 0
BITMAP
C0
C0
F0
C0
C0
C0
C0
70
ENDCHAR
STARTCHAR char117
ENCODING 117
SWIDTH 545 0
DWIDTH 7 0
BBX 7 6 0 0
BITMAP
CC
CC
CC
CC
DC
6C
ENDCHAR
STARTCHAR char118
ENCODING 118
SWIDTH 545 0
DWIDTH 7 0
BBX 7 6 0 0
BITMAP
CC
CC
CC
78
78
30
ENDCHAR
STARTCHAR char119
ENCODING 119
SWIDTH 701 0
DWIDTH 9 0
BBX 8 6 0 0
BITMAP
99
DB
DB
7E
7E
34
ENDCHAR
STARTCHAR char120
ENCODING 120
SWIDTH 467 0
DWIDTH 6 0
BBX 6 6 0 0
BITMAP
88
D8
70
70
D8
88
ENDCHAR
STARTCHAR char121
ENCODING 121
SWIDTH 545 0
DWIDTH 7 0
BBX 7 8 0 -2
BITMAP
CC
CC
CC
6C
78
38
30
60
ENDCHAR
STARTCHAR char122
ENCODING 122
SWIDTH 467 0
DWIDTH 6 0
BBX 6 6 0 0
BITMAP
F8
18
30
60
C0
F8
ENDCHAR
STARTCHAR char123
ENCODING 123
SWIDTH 389 0
DWIDTH 5 0
BBX 5 8 0 0
BITMAP
30
60
60
C0
60
60
60
30
ENDCHAR
STARTCHAR char124
ENCODING 124
SWIDTH 233 0
DWIDTH 3 0
BBX 3 10 0 -2
BITMAP
C0
C0
C0
C0
C0
C0
C0
C0
C0
C0
ENDCHAR
STARTCHAR char125
ENCODING 125
SWIDTH 389 0
DWIDTH 5 0
BBX 5 8 0 0
BITMAP
C0
60
60
30
60
60
60
C0
ENDCHAR
STARTCHAR char126
ENCODING 126
SWIDTH 545 0
DWIDTH 7 0
BBX 7 3 0 5
BITMAP
64
FC
98
ENDCHAR
STARTCHAR char127
ENCODING 127
SWIDTH 389 0
DWIDTH 5 0
BBX 5 10 0 -2
BITMAP
88
18
30
60
C0
88
18
30
60
C0
ENDCHAR
STARTCHAR char160
ENCODING 160
SWIDTH 389 0
DWIDTH 5 0
BBX 5 0 0 0
BITMAP
ENDCHAR
STARTCHAR char161
ENCODING 161
SWIDTH 311 0
DWIDTH 4 0
BBX 4 9 0 -1
BITMAP
60
60
00
60
60
60
60
60
60
ENDCHAR
STARTCHAR char167
ENCODING 167
SWIDTH 623 0
DWIDTH 8 0
BBX 8 10 0 -2
BITMAP
1C
36
30
78
66
66
36
0C
6C
38
ENDCHAR
STARTCHAR char171
ENCODING 171
SWIDTH 545 0
DWIDTH 7 0
BBX 7 6 0 0
BITMAP
24
6C
D8
D8
6C
24
ENDCHAR
STARTCHAR char176
ENCODING 176
SWIDTH 467 0
DWIDTH 6 0
BBX 6 4 0 2
BITMAP
70
D8
D8
70
ENDCHAR
STARTCHAR char177
ENCODING 177
SWIDTH 389 0
DWIDTH 5 0
BBX 5 5 0 0
BITMAP
20
70
20
00
70
ENDCHAR
STARTCHAR char178
ENCODING 178
SWIDTH 467 0
DWIDTH 6 0
BBX 6 5 0 3
BITMAP
70
D8
30
60
F8
ENDCHAR
STARTCHAR char179
ENCODING 179
SWIDTH 467 0
DWIDTH 6 0
BBX 6 5 0 3
BITMAP
70
98
30
98
70
ENDCHAR
STARTCHAR char181
ENCODING 181
SWIDTH 545 0
DWIDTH 7 0
BBX 7 8 0 -2
BITMAP
CC
CC
CC
CC
DC
F4
C0
C0
ENDCHAR
STARTCHAR char183
ENCODING 183
SWIDTH 311 0
DWIDTH 4 0
BBX 4 3 0 3
BITMAP
E0
E0
E0
ENDCHAR
STARTCHAR char187
ENCODING 187
SWIDTH 545 0
DWIDTH 7 0
BBX 7 6 0 0
BITMAP
90
D8
6C
6C
D8
90
ENDCHAR
STARTCHAR char191
ENCODING 191
SWIDTH 545 0
DWIDTH 7 0
BBX 7 9 0 -1
BITMAP
30
30
00
30
30
60
C0
CC
78
ENDCHAR
STARTCHAR char192
ENCODING 192
SWIDTH 545 0
DWIDTH 7 0
BBX 7 8 0 0
BITMAP
60
30
78
CC
CC
FC
CC
CC
ENDCHAR
STARTCHAR char193
ENCODING 193
SWIDTH 545 0
DWIDTH 7 0
BBX 7 8 0 0
BITMAP
18
30
78
CC
CC
FC
CC
CC
ENDCHAR
STARTCHAR char194
ENCODING 194
SWIDTH 545 0
DWIDTH 7 0
BBX 7 8 0 0
BITMAP
30
78
84
78
CC
FC
CC
CC
ENDCHAR
STARTCHAR char195
ENCODING 195
SWIDTH 545 0
DWIDTH 7 0
BBX 7 8 0 0
BITMAP
64
FC
98
78
CC
FC
CC
CC
ENDCHAR
STARTCHAR char196
ENCODING 196
SWIDTH 545 0
DWIDTH 7 0
BBX 7 8 0 0
BITMAP
CC
00
78
CC
CC
FC
CC
CC
ENDCHAR
STARTCHAR char197
ENCODING 197
SWIDTH 545 0
DWIDTH 7 0
BBX 7 8 0 0
BITMAP
78
CC
78
78
CC
FC
CC
CC
ENDCHAR
STARTCHAR char198
ENCODING 198
SWIDTH 701 0
DWIDTH 9 0
BBX 8 8 0 0
BITMAP
3F
6C
6C
FF
CC
CC
CC
CF
ENDCHAR
STARTCHAR char199
ENCODING 199
SWIDTH 545 0
DWIDTH 7 0
BBX 7 10 0 -2
BITMAP
78
CC
C0
C0
C0
C0
CC
78
30
60
ENDCHAR
STARTCHAR char200
ENCODING 200
SWIDTH 467 0
DWIDTH 6 0
BBX 6 8 0 0
BITMAP
60
30
F8
C0
F0
C0
C0
F8
ENDCHAR
STARTCHAR char201
ENCODING 201
SWIDTH 467 0
DWIDTH 6 0
BBX 6 8 0 0
BITMAP
18
30
F8
C0
F0
C0
C0
F8
ENDCHAR
STARTCHAR char202
ENCODING 202
SWIDTH 545 0
DWIDTH 7 0
BBX 7 8 0 0
BITMAP
30
78
84
7C
60
78
60
7C
ENDCHAR
STARTCHAR char203
ENCODING 203
SWIDTH 467 0
DWIDTH 6 0
BBX 6 8 0 0
BITMAP
D8
00
F8
C0
F0
C0
C0
F8
ENDCHAR
STARTCHAR char204
ENCODING 204
SWIDTH 389 0
DWIDTH 5 0
BBX 5 8 0 0
BITMAP
C0
60
00
F0
60
60
60
F0
ENDCHAR
STARTCHAR char205
ENCODING 205
SWIDTH 389 0
DWIDTH 5 0
BBX 5 8 0 0
BITMAP
30
60
00
F0
60
60
60
F0
ENDCHAR
STARTCHAR char206
ENCODING 206
SWIDTH 467 0
DWIDTH 6 0
BBX 6 8 0 0
BITMAP
20
70
88
F0
60
60
60
F0
ENDCHAR
STARTCHAR char207
ENCODING 207
SWIDTH 389 0
DWIDTH 5 0
BBX 5 8 0 0
BITMAP
90
00
F0
60
60
60
60
F0
ENDCHAR
STARTCHAR char208
ENCODING 208
SWIDTH 623 0
DWIDTH 8 0
BBX 8 8 0 0
BITMAP
7C
66
66
F6
66
66
66
7C
ENDCHAR
STARTCHAR char209
ENCODING 209
SWIDTH 545 0
DWIDTH 7 0
BBX 7 8 0 0
BITMAP
64
FC
98
EC
FC
FC
DC
CC
ENDCHAR
STARTCHAR char210
ENCODING 210
SWIDTH 545 0
DWIDTH 7 0
BBX 7 8 0 0
BITMAP
60
30
78
CC
CC
CC
CC
78
ENDCHAR
STARTCHAR char211
ENCODING 211
SWIDTH 545 0
DWIDTH 7 0
BBX 7 8 0 0
BITMAP
18
30
78
CC
CC
CC
CC
78
ENDCHAR
STARTCHAR char212
ENCODING 212
SWIDTH 545 0
DWIDTH 7 0
BBX 7 8 0 0
BITMAP
10
38
44
78
CC
CC
CC
78
ENDCHAR
STARTCHAR char213
ENCODING 213
SWIDTH 545 0
DWIDTH 7 0
BBX 7 8 0 0
BITMAP
64
FC
B8
CC
CC
CC
CC
78
ENDCHAR
STARTCHAR char214
ENCODING 214
SWIDTH 545 0
DWIDTH 7 0
BBX 7 8 0 0
BITMAP
CC
78
CC
CC
CC
CC
CC
78
ENDCHAR
STARTCHAR char215
ENCODING 215
SWIDTH 545 0
DWIDTH 7 0
BBX 7 5 0 0
BITMAP
44
28
10
28
44
ENDCHAR
STARTCHAR char216
ENCODING 216
SWIDTH 545 0
DWIDTH 7 0
BBX 7 9 0 -1
BITMAP
04
78
CC
DC
CC
EC
CC
78
80
ENDCHAR
STARTCHAR char217
ENCODING 217
SWIDTH 545 0
DWIDTH 7 0
BBX 7 8 0 0
BITMAP
60
30
CC
CC
CC
CC
CC
78
ENDCHAR
STARTCHAR char218
ENCODING 218
SWIDTH 545 0
DWIDTH 7 0
BBX 7 8 0 0
BITMAP
18
30
CC
CC
CC
CC
CC
78
ENDCHAR
STARTCHAR char219
ENCODING 219
SWIDTH 545 0
DWIDTH 7 0
BBX 7 8 0 0
BITMAP
30
78
84
CC
CC
CC
CC
78
ENDCHAR
STARTCHAR char220
ENCODING 220
SWIDTH 545 0
DWIDTH 7 0
BBX 7 8 0 0
BITMAP
CC
00
CC
CC
CC
CC
CC
78
ENDCHAR
STARTCHAR char221
ENCODING 221
SWIDTH 545 0
DWIDTH 7 0
BBX 7 8 0 0
BITMAP
18
30
CC
CC
78
30
30
30
ENDCHAR
STARTCHAR char222
ENCODING 222
SWIDTH 545 0
DWIDTH 7 0
BBX 7 9 0 -1
BITMAP
C0
C0
F8
CC
CC
CC
F8
C0
C0
ENDCHAR
STARTCHAR char223
ENCODING 223
SWIDTH 545 0
DWIDTH 7 0
BBX 7 8 0 -2
BITMAP
78
CC
D8
CC
CC
D8
C0
C0
ENDCHAR
STARTCHAR char224
ENCODING 224
SWIDTH 545 0
DWIDTH 7 0
BBX 7 8 0 0
BITMAP
60
30
78
0C
7C
CC
CC
7A
ENDCHAR
STARTCHAR char225
ENCODING 225
SWIDTH 545 0
DWIDTH 7 0
BBX 7 8 0 0
BITMAP
18
30
78
0C
7C
CC
CC
7A
ENDCHAR
STARTCHAR char226
ENCODING 226
SWIDTH 545 0
DWIDTH 7 0
BBX 7 8 0 0
BITMAP
10
38
44
78
0C
7C
CC
7A
ENDCHAR
STARTCHAR char227
ENCODING 227
SWIDTH 545 0
DWIDTH 7 0
BBX 7 8 0 0
BITMAP
64
FC
98
78
0C
7C
CC
7A
ENDCHAR
STARTCHAR char228
ENCODING 228
SWIDTH 545 0
DWIDTH 7 0
BBX 7 8 0 0
BITMAP
CC
00
78
0C
7C
CC
CC
7A
ENDCHAR
STARTCHAR char229
ENCODING 229
SWIDTH 545 0
DWIDTH 7 0
BBX 7 8 0 0
BITMAP
38
6C
38
78
0C
7C
CC
7A
ENDCHAR
STARTCHAR char230
ENCODING 230
SWIDTH 701 0
DWIDTH 9 0
BBX 8 6 0 0
BITMAP
76
1B
7F
D8
DB
76
ENDCHAR
STARTCHAR char231
ENCODING 231
SWIDTH 545 0
DWIDTH 7 0
BBX 7 8 0 -2
BITMAP
78
CC
C0
C0
CC
78
30
60
ENDCHAR
STARTCHAR char232
ENCODING 232
SWIDTH 545 0
DWIDTH 7 0
BBX 7 8 0 0
BITMAP
60
30
78
CC
FC
C0
CC
78
ENDCHAR
STARTCHAR char233
ENCODING 233
SWIDTH 545 0
DWIDTH 7 0
BBX 7 8 0 0
BITMAP
18
30
78
CC
FC
C0
CC
78
ENDCHAR
STARTCHAR char234
ENCODING 234
SWIDTH 545 0
DWIDTH 7 0
BBX 7 8 0 0
BITMAP
10
38
44
78
CC
FC
C0
78
ENDCHAR
STARTCHAR char235
ENCODING 235
SWIDTH 545 0
DWIDTH 7 0
BBX 7 8 0 0
BITMAP
CC
00
78
CC
FC
C0
CC
78
ENDCHAR
STARTCHAR char236
ENCODING 236
SWIDTH 311 0
DWIDTH 4 0
BBX 4 8 0 0
BITMAP
C0
60
00
60
60
60
60
60
ENDCHAR
STARTCHAR char237
ENCODING 237
SWIDTH 311 0
DWIDTH 4 0
BBX 4 8 0 0
BITMAP
60
C0
00
C0
C0
C0
C0
C0
ENDCHAR
STARTCHAR char238
ENCODING 238
SWIDTH 467 0
DWIDTH 6 0
BBX 6 8 0 0
BITMAP
20
70
88
60
60
60
60
60
ENDCHAR
STARTCHAR char239
ENCODING 239
SWIDTH 389 0
DWIDTH 5 0
BBX 5 8 0 0
BITMAP
90
00
60
60
60
60
60
60
ENDCHAR
STARTCHAR char240
ENCODING 240
SWIDTH 545 0
DWIDTH 7 0
BBX 7 8 0 0
BITMAP
EC
38
38
0C
7C
CC
CC
78
ENDCHAR
STARTCHAR char241
ENCODING 241
SWIDTH 545 0
DWIDTH 7 0
BBX 7 8 0 0
BITMAP
64
FC
98
D8
EC
CC
CC
CC
ENDCHAR
STARTCHAR char242
ENCODING 242
SWIDTH 545 0
DWIDTH 7 0
BBX 7 8 0 0
BITMAP
60
30
78
CC
CC
CC
CC
78
ENDCHAR
STARTCHAR char243
ENCODING 243
SWIDTH 545 0
DWIDTH 7 0
BBX 7 8 0 0
BITMAP
18
30
78
CC
CC
CC
CC
78
ENDCHAR
STARTCHAR char244
ENCODING 244
SWIDTH 545 0
DWIDTH 7 0
BBX 7 8 0 0
BITMAP
10
38
44
78
CC
CC
CC
78
ENDCHAR
STARTCHAR char245
ENCODING 245
SWIDTH 545 0
DWIDTH 7 0
BBX 7 8 0 0
BITMAP
64
FC
98
78
CC
CC
CC
78
ENDCHAR
STARTCHAR char246
ENCODING 246
SWIDTH 545 0
DWIDTH 7 0
BBX 7 8 0 0
BITMAP
CC
00
78
CC
CC
CC
CC
78
ENDCHAR
STARTCHAR char247
ENCODING 247
SWIDTH 545 0
DWIDTH 7 0
BBX 7 5 0 0
BITMAP
10
00
7C
00
10
ENDCHAR
STARTCHAR char248
ENCODING 248
SWIDTH 545 0
DWIDTH 7 0
BBX 7 8 0 -1
BITMAP
04
78
CC
DC
EC
CC
78
80
ENDCHAR
STARTCHAR char249
ENCODING 249
SWIDTH 545 0
DWIDTH 7 0
BBX 7 8 0 0
BITMAP
60
30
CC
CC
CC
CC
DC
6C
ENDCHAR
STARTCHAR char250
ENCODING 250
SWIDTH 545 0
DWIDTH 7 0
BBX 7 8 0 0
BITMAP
18
30
CC
CC
CC
CC
DC
6C
ENDCHAR
STARTCHAR char251
ENCODING 251
SWIDTH 545 0
DWIDTH 7 0
BBX 7 8 0 0
BITMAP
30
78
84
CC
CC
CC
DC
6C
ENDCHAR
STARTCHAR char252
ENCODING 252
SWIDTH 545 0
DWIDTH 7 0
BBX 7 8 0 0
BITMAP
CC
00
CC
CC
CC
CC
DC
6C
ENDCHAR
STARTCHAR char253
ENCODING 253
SWIDTH 545 0
DWIDTH 7 0
BBX 7 8 0 -2
BITMAP
18
30
CC
CC
78
30
60
C0
ENDCHAR
STARTCHAR char254
ENCODING 254
SWIDTH 467 0
DWIDTH 6 0
BBX 6 10 0 -2
BITMAP
C0
C0
C0
F0
D8
D8
F0
C0
C0
C0
ENDCHAR
STARTCHAR char255
ENCODING 255
SWIDTH 545 0
DWIDTH 7 0
BBX 7 10 0 -2
BITMAP
CC
00
CC
CC
CC
CC
7C
0C
CC
78
ENDCHAR
STARTCHAR Abreve
ENCODING 258
SWIDTH 545 0
DWIDTH 7 0
BBX 6 8 0 0
BITMAP
64
FC
98
78
CC
FC
CC
CC
ENDCHAR
STARTCHAR abreve
ENCODING 259
SWIDTH 545 0
DWIDTH 7 0
BBX 7 8 0 0
BITMAP
64
FC
98
78
0C
7C
CC
7A
ENDCHAR
STARTCHAR Aogonek
ENCODING 260
SWIDTH 545 0
DWIDTH 7 0
BBX 6 10 0 -2
BITMAP
78
CC
CC
FC
CC
CC
CC
CC
18
0C
ENDCHAR
STARTCHAR aogonek
ENCODING 261
SWIDTH 545 0
DWIDTH 7 0
BBX 7 8 0 -2
BITMAP
78
0C
7C
CC
CC
7E
18
0C
ENDCHAR
STARTCHAR Cacute
ENCODING 262
SWIDTH 545 0
DWIDTH 7 0
BBX 6 8 0 0
BITMAP
18
30
78
CC
C0
C0
CC
78
ENDCHAR
STARTCHAR cacute
ENCODING 263
SWIDTH 545 0
DWIDTH 7 0
BBX 6 8 0 0
BITMAP
18
30
78
CC
C0
C0
CC
78
ENDCHAR
STARTCHAR Ccaron
ENCODING 268
SWIDTH 701 0
DWIDTH 7 0
BBX 6 9 0 0
BITMAP
48
30
78
CC
C0
C0
C0
CC
78
ENDCHAR
STARTCHAR ccaron
ENCODING 269
SWIDTH 545 0
DWIDTH 7 0
BBX 6 8 0 0
BITMAP
48
30
78
CC
C0
C0
CC
78
ENDCHAR
STARTCHAR Dcaron
ENCODING 270
SWIDTH 545 0
DWIDTH 7 0
BBX 6 8 0 0
BITMAP
68
30
F8
CC
CC
CC
CC
F8
ENDCHAR
STARTCHAR dcaron
ENCODING 271
SWIDTH 545 0
DWIDTH 7 0
BBX 6 8 0 0
BITMAP
90
6C
0C
6C
DC
CC
DC
6C
ENDCHAR
STARTCHAR Dcroat
ENCODING 272
SWIDTH 623 0
DWIDTH 8 0
BBX 7 8 0 0
BITMAP
7C
66
66
F6
66
66
66
7C
ENDCHAR
STARTCHAR dcroat
ENCODING 273
SWIDTH 545 0
DWIDTH 7 0
BBX 6 8 0 0
BITMAP
EC
38
38
0C
7C
CC
CC
78
ENDCHAR
STARTCHAR Edotaccent
ENCODING 278
SWIDTH 467 0
DWIDTH 6 0
BBX 5 8 0 0
BITMAP
40
00
F8
C0
F0
C0
C0
F8
ENDCHAR
STARTCHAR edotaccent
ENCODING 279
SWIDTH 545 0
DWIDTH 7 0
BBX 6 8 0 0
BITMAP
20
00
78
CC
FC
C0
CC
78
ENDCHAR
STARTCHAR Eogonek
ENCODING 280
SWIDTH 467 0
DWIDTH 6 0
BBX 5 10 0 -2
BITMAP
F8
C0
C0
F0
C0
C0
C0
F8
30
18
ENDCHAR
STARTCHAR eogonek
ENCODING 281
SWIDTH 545 0
DWIDTH 7 0
BBX 6 8 0 -2
BITMAP
78
CC
FC
C0
CC
78
30
18
ENDCHAR
STARTCHAR Ecaron
ENCODING 282
SWIDTH 467 0
DWIDTH 6 0
BBX 5 8 0 0
BITMAP
50
20
F8
C0
F0
C0
C0
F8
ENDCHAR
STARTCHAR ecaron
ENCODING 283
SWIDTH 545 0
DWIDTH 7 0
BBX 6 8 0 0
BITMAP
48
30
78
CC
FC
C0
CC
78
ENDCHAR
STARTCHAR Gbreve
ENCODING 286
SWIDTH 545 0
DWIDTH 7 0
BBX 6 10 1 0
BITMAP
48
30
00
78
CC
C0
DC
CC
CC
74
ENDCHAR
STARTCHAR gbreve
ENCODING 287
SWIDTH 545 0
DWIDTH 7 0
BBX 6 10 1 -1
BITMAP
48
30
00
6C
DC
CC
DC
6C
0C
78
ENDCHAR
STARTCHAR Iogonek
ENCODING 302
SWIDTH 389 0
DWIDTH 5 0
BBX 4 10 0 -2
BITMAP
F0
60
60
60
60
60
60
F0
20
10
ENDCHAR
STARTCHAR iogonek
ENCODING 303
SWIDTH 233 0
DWIDTH 3 0
BBX 3 10 0 -2
BITMAP
C0
00
C0
C0
C0
C0
C0
C0
40
20
ENDCHAR
STARTCHAR Idotaccent
ENCODING 304
SWIDTH 467 0
DWIDTH 6 0
BBX 4 10 2 0
BITMAP
60
00
F0
60
60
60
60
60
60
F0
ENDCHAR
STARTCHAR dotlessi
ENCODING 305
SWIDTH 233 0
DWIDTH 3 0
BBX 2 6 1 0
BITMAP
C0
C0
C0
C0
C0
C0
ENDCHAR
STARTCHAR Lacute
ENCODING 313
SWIDTH 467 0
DWIDTH 6 0
BBX 5 8 0 0
BITMAP
18
30
C0
C0
C0
C0
C0
F8
ENDCHAR
STARTCHAR lacute
ENCODING 314
SWIDTH 233 0
DWIDTH 3 0
BBX 3 8 0 0
BITMAP
60
C0
00
C0
C0
C0
C0
C0
ENDCHAR
STARTCHAR Lcaron
ENCODING 317
SWIDTH 545 0
DWIDTH 7 0
BBX 6 8 0 0
BITMAP
CC
CC
D8
C0
C0
C0
C0
F8
ENDCHAR
STARTCHAR lcaron
ENCODING 318
SWIDTH 545 0
DWIDTH 7 0
BBX 6 8 0 0
BITMAP
CC
CC
D8
C0
C0
C0
C0
C0
ENDCHAR
STARTCHAR Lslash
ENCODING 321
SWIDTH 545 0
DWIDTH 7 0
BBX 6 8 0 0
BITMAP
60
68
78
70
E0
E0
60
7C
ENDCHAR
STARTCHAR lslash
ENCODING 322
SWIDTH 467 0
DWIDTH 6 0
BBX 5 8 0 0
BITMAP
60
68
78
70
E0
E0
60
60
ENDCHAR
STARTCHAR Nacute
ENCODING 323
SWIDTH 545 0
DWIDTH 7 0
BBX 6 8 0 0
BITMAP
18
30
CC
EC
EC
DC
DC
CC
ENDCHAR
STARTCHAR nacute
ENCODING 324
SWIDTH 545 0
DWIDTH 7 0
BBX 6 8 0 0
BITMAP
18
30
D8
EC
CC
CC
CC
CC
ENDCHAR
STARTCHAR Ncaron
ENCODING 327
SWIDTH 545 0
DWIDTH 7 0
BBX 6 8 0 0
BITMAP
48
30
CC
EC
EC
DC
DC
CC
ENDCHAR
STARTCHAR ncaron
ENCODING 328
SWIDTH 545 0
DWIDTH 7 0
BBX 6 8 0 0
BITMAP
48
30
D8
EC
CC
CC
CC
CC
ENDCHAR
STARTCHAR Ohungarumlaut
ENCODING 336
SWIDTH 545 0
DWIDTH 7 0
BBX 6 8 0 0
BITMAP
64
FC
B8
CC
CC
CC
CC
78
ENDCHAR
STARTCHAR ohungarumlaut
ENCODING 337
SWIDTH 545 0
DWIDTH 7 0
BBX 6 8 0 0
BITMAP
64
FC
98
78
CC
CC
CC
78
ENDCHAR
STARTCHAR Racute
ENCODING 340
SWIDTH 545 0
DWIDTH 7 0
BBX 6 8 0 0
BITMAP
18
30
F8
CC
F8
F0
D8
CC
ENDCHAR
STARTCHAR racute
ENCODING 341
SWIDTH 311 0
DWIDTH 4 0
BBX 4 8 0 0
BITMAP
30
60
B0
E0
C0
C0
C0
C0
ENDCHAR
STARTCHAR Rcaron
ENCODING 344
SWIDTH 545 0
DWIDTH 7 0
BBX 6 8 0 0
BITMAP
48
30
F8
CC
F8
F0
D8
CC
ENDCHAR
STARTCHAR rcaron
ENCODING 345
SWIDTH 389 0
DWIDTH 5 0
BBX 4 8 0 0
BITMAP
90
60
B0
E0
C0
C0
C0
C0
ENDCHAR
STARTCHAR Sacute
ENCODING 346
SWIDTH 545 0
DWIDTH 7 0
BBX 6 8 0 0
BITMAP
18
30
78
C4
78
0C
CC
78
ENDCHAR
STARTCHAR sacute
ENCODING 347
SWIDTH 545 0
DWIDTH 7 0
BBX 6 8 0 0
BITMAP
18
30
78
C4
78
0C
CC
78
ENDCHAR
STARTCHAR Scedilla
ENCODING 350
SWIDTH 545 0
DWIDTH 7 0
BBX 6 10 1 -2
BITMAP
78
CC
C0
78
0C
0C
CC
78
30
E0
ENDCHAR
STARTCHAR scedilla
ENCODING 351
SWIDTH 545 0
DWIDTH 7 0
BBX 6 8 1 -2
BITMAP
78
C4
60
18
CC
78
30
60
ENDCHAR
STARTCHAR Scaron
ENCODING 352
SWIDTH 545 0
DWIDTH 7 0
BBX 6 8 0 0
BITMAP
48
30
78
C4
78
0C
CC
78
ENDCHAR
STARTCHAR scaron
ENCODING 353
SWIDTH 545 0
DWIDTH 7 0
BBX 6 8 0 0
BITMAP
48
30
78
C4
78
0C
CC
78
ENDCHAR
STARTCHAR Tcaron
ENCODING 356
SWIDTH 545 0
DWIDTH 7 0
BBX 6 8 0 0
BITMAP
48
30
FC
30
30
30
30
30
ENDCHAR
STARTCHAR tcaron
ENCODING 357
SWIDTH 623 0
DWIDTH 8 0
BBX 7 8 0 0
BITMAP
D2
CC
F0
C0
C0
C0
C0
70
ENDCHAR
STARTCHAR Utilde
ENCODING 360
SWIDTH 467 0
DWIDTH 6 0
BBX 6 10 0 0
BITMAP
64
FC
98
00
CC
CC
CC
CC
CC
78
ENDCHAR
STARTCHAR utilde
ENCODING 361
SWIDTH 467 0
DWIDTH 6 0
BBX 6 10 0 0
BITMAP
64
FC
98
00
CC
CC
CC
CC
DC
6C
ENDCHAR
STARTCHAR Umacron
ENCODING 362
SWIDTH 545 0
DWIDTH 7 0
BBX 6 9 0 0
BITMAP
78
00
CC
CC
CC
CC
CC
CC
78
ENDCHAR
STARTCHAR umacron
ENCODING 363
SWIDTH 545 0
DWIDTH 7 0
BBX 6 8 0 0
BITMAP
78
00
CC
CC
CC
CC
DC
6C
ENDCHAR
STARTCHAR Uring
ENCODING 366
SWIDTH 545 0
DWIDTH 7 0
BBX 6 8 0 0
BITMAP
20
50
AC
CC
CC
CC
CC
78
ENDCHAR
STARTCHAR uring
ENCODING 367
SWIDTH 545 0
DWIDTH 7 0
BBX 6 8 0 0
BITMAP
20
50
AC
CC
CC
CC
DC
6C
ENDCHAR
STARTCHAR Uhungarumlaut
ENCODING 368
SWIDTH 545 0
DWIDTH 7 0
BBX 6 8 0 0
BITMAP
2C
58
84
CC
CC
CC
CC
78
ENDCHAR
STARTCHAR uhungarumlaut
ENCODING 369
SWIDTH 545 0
DWIDTH 7 0
BBX 6 8 0 0
BITMAP
2C
58
84
CC
CC
CC
DC
6C
ENDCHAR
STARTCHAR Uogonek
ENCODING 370
SWIDTH 545 0
DWIDTH 7 0
BBX 6 10 0 -2
BITMAP
CC
CC
CC
CC
CC
CC
CC
78
10
0C
ENDCHAR
STARTCHAR uogonek
ENCODING 371
SWIDTH 545 0
DWIDTH 7 0
BBX 6 8 0 -2
BITMAP
CC
CC
CC
CC
DC
6C
08
04
ENDCHAR
STARTCHAR Zacute
ENCODING 377
SWIDTH 545 0
DWIDTH 7 0
BBX 6 8 0 0
BITMAP
18
30
FC
0C
18
70
C0
FC
ENDCHAR
STARTCHAR zacute
ENCODING 378
SWIDTH 467 0
DWIDTH 6 0
BBX 5 8 0 0
BITMAP
18
30
F8
18
30
60
C0
F8
ENDCHAR
STARTCHAR Zdotaccent
ENCODING 379
SWIDTH 545 0
DWIDTH 7 0
BBX 6 8 0 0
BITMAP
30
00
FC
0C
18
70
C0
FC
ENDCHAR
STARTCHAR zdotaccent
ENCODING 380
SWIDTH 467 0
DWIDTH 6 0
BBX 5 8 0 0
BITMAP
30
00
F8
18
30
60
C0
F8
ENDCHAR
STARTCHAR Zcaron
ENCODING 381
SWIDTH 545 0
DWIDTH 7 0
BBX 6 9 0 0
BITMAP
48
30
FC
0C
18
30
60
C0
FC
ENDCHAR
STARTCHAR zcaron
ENCODING 382
SWIDTH 467 0
DWIDTH 6 0
BBX 5 8 0 0
BITMAP
48
30
F8
18
30
60
C0
F8
ENDCHAR
STARTCHAR breve
ENCODING 728
SWIDTH 545 0
DWIDTH 7 0
BBX 4 3 2 5
BITMAP
90
F0
60
ENDCHAR
STARTCHAR ogonek
ENCODING 731
SWIDTH 545 0
DWIDTH 7 0
BBX 3 2 3 -2
BITMAP
C0
60
ENDCHAR
STARTCHAR tonos
ENCODING 900
SWIDTH 467 0
DWIDTH 6 0
BBX 3 2 2 7
BITMAP
60
C0
ENDCHAR
STARTCHAR dieresistonos
ENCODING 901
SWIDTH 467 0
DWIDTH 6 0
BBX 4 4 1 6
BITMAP
30
60
00
D0
ENDCHAR
STARTCHAR Alphatonos
ENCODING 902
SWIDTH 467 0
DWIDTH 6 0
BBX 6 10 0 0
BITMAP
18
30
00
78
CC
CC
FC
CC
CC
CC
ENDCHAR
STARTCHAR anoteleia
ENCODING 903
SWIDTH 467 0
DWIDTH 6 0
BBX 3 2 2 3
BITMAP
E0
E0
ENDCHAR
STARTCHAR Epsilontonos
ENCODING 904
SWIDTH 467 0
DWIDTH 6 0
BBX 6 10 0 0
BITMAP
18
30
00
FC
C0
C0
F8
C0
C0
FC
ENDCHAR
STARTCHAR Etatonos
ENCODING 905
SWIDTH 467 0
DWIDTH 6 0
BBX 6 10 0 0
BITMAP
18
30
00
CC
CC
CC
FC
CC
CC
CC
ENDCHAR
STARTCHAR Iotatonos
ENCODING 906
SWIDTH 467 0
DWIDTH 6 0
BBX 4 10 1 0
BITMAP
30
60
00
F0
60
60
60
60
60
F0
ENDCHAR
STARTCHAR Omicrontonos
ENCODING 908
SWIDTH 467 0
DWIDTH 6 0
BBX 6 10 0 0
BITMAP
18
30
00
78
CC
CC
CC
CC
CC
78
ENDCHAR
STARTCHAR Upsilontonos
ENCODING 910
SWIDTH 467 0
DWIDTH 6 0
BBX 6 10 0 0
BITMAP
18
30
00
CC
CC
68
30
30
30
30
ENDCHAR
STARTCHAR Omegatonos
ENCODING 911
SWIDTH 467 0
DWIDTH 6 0
BBX 6 10 0 0
BITMAP
18
30
00
78
CC
CC
CC
CC
68
EC
ENDCHAR
STARTCHAR iotadieresistonos
ENCODING 912
SWIDTH 467 0
DWIDTH 6 0
BBX 5 10 1 0
BITMAP
30
60
00
D0
00
60
60
60
68
30
ENDCHAR
STARTCHAR Alpha
ENCODING 913
SWIDTH 467 0
DWIDTH 6 0
BBX 6 7 0 0
BITMAP
78
CC
CC
FC
CC
CC
CC
ENDCHAR
STARTCHAR Beta
ENCODING 914
SWIDTH 467 0
DWIDTH 6 0
BBX 6 7 0 0
BITMAP
F8
CC
CC
F8
CC
CC
F8
ENDCHAR
STARTCHAR Gamma
ENCODING 915
SWIDTH 467 0
DWIDTH 6 0
BBX 6 7 0 0
BITMAP
FC
C0
C0
C0
C0
C0
C0
ENDCHAR
STARTCHAR Delta
ENCODING 916
SWIDTH 467 0
DWIDTH 6 0
BBX 6 7 0 0
BITMAP
30
30
68
68
CC
CC
FC
ENDCHAR
STARTCHAR Epsilon
ENCODING 917
SWIDTH 467 0
DWIDTH 6 0
BBX 6 7 0 0
BITMAP
FC
C0
C0
F8
C0
C0
FC
ENDCHAR
STARTCHAR Zeta
ENCODING 918
SWIDTH 467 0
DWIDTH 6 0
BBX 6 7 0 0
BITMAP
FC
0C
18
30
60
C0
FC
ENDCHAR
STARTCHAR Eta
ENCODING 919
SWIDTH 467 0
DWIDTH 6 0
BBX 6 7 0 0
BITMAP
CC
CC
CC
FC
CC
CC
CC
ENDCHAR
STARTCHAR Theta
ENCODING 920
SWIDTH 467 0
DWIDTH 6 0
BBX 6 7 0 0
BITMAP
78
CC
CC
FC
CC
CC
78
ENDCHAR
STARTCHAR Iota
ENCODING 921
SWIDTH 467 0
DWIDTH 6 0
BBX 4 7 1 0
BITMAP
F0
60
60
60
60
60
F0
ENDCHAR
STARTCHAR Kappa
ENCODING 922
SWIDTH 467 0
DWIDTH 6 0
BBX 6 7 0 0
BITMAP
CC
D8
D0
E0
D0
D8
CC
ENDCHAR
STARTCHAR Lambda
ENCODING 923
SWIDTH 467 0
DWIDTH 6 0
BBX 6 7 0 0
BITMAP
30
30
68
68
CC
CC
CC
ENDCHAR
STARTCHAR Mu
ENCODING 924
SWIDTH 623 0
DWIDTH 8 0
BBX 7 8 1 0
BITMAP
82
C6
EE
FE
D6
C6
C6
C6
ENDCHAR
STARTCHAR Nu
ENCODING 925
SWIDTH 545 0
DWIDTH 7 0
BBX 6 8 1 0
BITMAP
CC
CC
EC
EC
DC
DC
CC
CC
ENDCHAR
STARTCHAR Xi
ENCODING 926
SWIDTH 467 0
DWIDTH 6 0
BBX 6 7 0 0
BITMAP
FC
00
00
78
00
00
FC
ENDCHAR
STARTCHAR Omicron
ENCODING 927
SWIDTH 467 0
DWIDTH 6 0
BBX 6 7 0 0
BITMAP
78
CC
CC
CC
CC
CC
78
ENDCHAR
STARTCHAR Pi
ENCODING 928
SWIDTH 467 0
DWIDTH 6 0
BBX 6 7 0 0
BITMAP
FC
CC
CC
CC
CC
CC
CC
ENDCHAR
STARTCHAR Rho
ENCODING 929
SWIDTH 467 0
DWIDTH 6 0
BBX 6 7 0 0
BITMAP
F8
CC
CC
F8
C0
C0
C0
ENDCHAR
STARTCHAR Sigma
ENCODING 931
SWIDTH 467 0
DWIDTH 6 0
BBX 6 7 0 0
BITMAP
FC
60
30
18
30
60
FC
ENDCHAR
STARTCHAR Tau
ENCODING 932
SWIDTH 467 0
DWIDTH 6 0
BBX 6 7 0 0
BITMAP
FC
30
30
30
30
30
30
ENDCHAR
STARTCHAR Upsilon
ENCODING 933
SWIDTH 467 0
DWIDTH 6 0
BBX 6 7 0 0
BITMAP
CC
CC
68
30
30
30
30
ENDCHAR
STARTCHAR Phi
ENCODING 934
SWIDTH 467 0
DWIDTH 6 0
BBX 6 7 0 0
BITMAP
30
78
D4
D4
D4
78
30
ENDCHAR
STARTCHAR Chi
ENCODING 935
SWIDTH 467 0
DWIDTH 6 0
BBX 6 7 0 0
BITMAP
CC
CC
68
30
68
CC
CC
ENDCHAR
STARTCHAR Psi
ENCODING 936
SWIDTH 467 0
DWIDTH 6 0
BBX 6 7 0 0
BITMAP
D4
D4
D4
D4
78
30
30
ENDCHAR
STARTCHAR Omega
ENCODING 937
SWIDTH 467 0
DWIDTH 6 0
BBX 6 7 0 0
BITMAP
78
CC
CC
CC
CC
68
EC
ENDCHAR
STARTCHAR Iotadieresis
ENCODING 938
SWIDTH 467 0
DWIDTH 6 0
BBX 4 9 1 0
BITMAP
D0
00
F0
60
60
60
60
60
F0
ENDCHAR
STARTCHAR Upsilondieresis
ENCODING 939
SWIDTH 467 0
DWIDTH 6 0
BBX 6 9 0 0
BITMAP
68
00
CC
CC
68
30
30
30
30
ENDCHAR
STARTCHAR alphatonos
ENCODING 940
SWIDTH 467 0
DWIDTH 6 0
BBX 6 8 0 0
BITMAP
18
30
00
74
DC
CC
DC
74
ENDCHAR
STARTCHAR epsilontonos
ENCODING 941
SWIDTH 467 0
DWIDTH 6 0
BBX 6 8 0 0
BITMAP
18
30
00
78
CC
70
CC
78
ENDCHAR
STARTCHAR etatonos
ENCODING 942
SWIDTH 467 0
DWIDTH 6 0
BBX 6 10 0 -2
BITMAP
18
30
00
D8
EC
CC
CC
CC
0C
0C
ENDCHAR
STARTCHAR iotatonos
ENCODING 943
SWIDTH 467 0
DWIDTH 6 0
BBX 4 8 1 0
BITMAP
60
C0
00
C0
C0
C0
D0
60
ENDCHAR
STARTCHAR upsilondieresistonos
ENCODING 944
SWIDTH 467 0
DWIDTH 6 0
BBX 6 10 0 0
BITMAP
18
30
00
68
00
CC
CC
CC
CC
78
ENDCHAR
STARTCHAR alpha
ENCODING 945
SWIDTH 467 0
DWIDTH 6 0
BBX 6 5 0 0
BITMAP
74
DC
CC
DC
74
ENDCHAR
STARTCHAR beta
ENCODING 946
SWIDTH 467 0
DWIDTH 6 0
BBX 6 9 0 -2
BITMAP
70
D8
D8
F8
CC
CC
F8
C0
C0
ENDCHAR
STARTCHAR gamma
ENCODING 947
SWIDTH 467 0
DWIDTH 6 0
BBX 6 7 0 -2
BITMAP
CC
CC
68
68
30
30
30
ENDCHAR
STARTCHAR delta
ENCODING 948
SWIDTH 467 0
DWIDTH 6 0
BBX 6 7 0 0
BITMAP
78
C0
78
CC
CC
CC
78
ENDCHAR
STARTCHAR epsilon
ENCODING 949
SWIDTH 467 0
DWIDTH 6 0
BBX 6 5 0 0
BITMAP
78
CC
70
CC
78
ENDCHAR
STARTCHAR zeta
ENCODING 950
SWIDTH 467 0
DWIDTH 6 0
BBX 6 8 0 -1
BITMAP
FC
30
60
60
60
38
0C
38
ENDCHAR
STARTCHAR eta
ENCODING 951
SWIDTH 467 0
DWIDTH 6 0
BBX 6 7 0 -2
BITMAP
D8
EC
CC
CC
CC
0C
0C
ENDCHAR
STARTCHAR theta
ENCODING 952
SWIDTH 467 0
DWIDTH 6 0
BBX 5 7 1 0
BITMAP
70
D8
D8
F8
D8
D8
70
ENDCHAR
STARTCHAR iota
ENCODING 953
SWIDTH 467 0
DWIDTH 6 0
BBX 4 5 1 0
BITMAP
C0
C0
C0
D0
60
ENDCHAR
STARTCHAR kappa
ENCODING 954
SWIDTH 467 0
DWIDTH 6 0
BBX 5 5 1 0
BITMAP
D8
D0
E0
D0
D8
ENDCHAR
STARTCHAR lambda
ENCODING 955
SWIDTH 467 0
DWIDTH 6 0
BBX 6 7 0 0
BITMAP
78
CC
0C
74
DC
CC
CC
ENDCHAR
STARTCHAR mu
ENCODING 956
SWIDTH 467 0
DWIDTH 6 0
BBX 6 7 0 -2
BITMAP
CC
CC
CC
DC
F4
C0
C0
ENDCHAR
STARTCHAR nu
ENCODING 957
SWIDTH 467 0
DWIDTH 6 0
BBX 6 5 0 0
BITMAP
CC
CC
68
68
30
ENDCHAR
STARTCHAR xi
ENCODING 958
SWIDTH 467 0
DWIDTH 6 0
BBX 6 9 0 -2
BITMAP
FC
30
60
78
C0
C0
78
0C
18
ENDCHAR
STARTCHAR omicron
ENCODING 959
SWIDTH 467 0
DWIDTH 6 0
BBX 6 5 0 0
BITMAP
78
CC
CC
CC
78
ENDCHAR
STARTCHAR pi
ENCODING 960
SWIDTH 467 0
DWIDTH 6 0
BBX 6 5 0 0
BITMAP
FC
68
68
68
68
ENDCHAR
STARTCHAR rho
ENCODING 961
SWIDTH 467 0
DWIDTH 6 0
BBX 6 7 0 -2
BITMAP
78
CC
CC
EC
D8
C0
C0
ENDCHAR
STARTCHAR sigma1
ENCODING 962
SWIDTH 467 0
DWIDTH 6 0
BBX 6 7 0 -2
BITMAP
78
CC
C0
C0
78
0C
38
ENDCHAR
STARTCHAR sigma
ENCODING 963
SWIDTH 467 0
DWIDTH 6 0
BBX 6 5 0 0
BITMAP
7C
D8
CC
CC
78
ENDCHAR
STARTCHAR tau
ENCODING 964
SWIDTH 467 0
DWIDTH 6 0
BBX 6 5 0 0
BITMAP
FC
30
30
34
18
ENDCHAR
STARTCHAR upsilon
ENCODING 965
SWIDTH 467 0
DWIDTH 6 0
BBX 6 5 0 0
BITMAP
CC
CC
CC
CC
78
ENDCHAR
STARTCHAR phi
ENCODING 966
SWIDTH 467 0
DWIDTH 6 0
BBX 6 7 0 -2
BITMAP
18
D4
D4
D4
78
30
30
ENDCHAR
STARTCHAR chi
ENCODING 967
SWIDTH 467 0
DWIDTH 6 0
BBX 6 7 0 -2
BITMAP
CC
CC
68
30
68
CC
CC
ENDCHAR
STARTCHAR psi
ENCODING 968
SWIDTH 467 0
DWIDTH 6 0
BBX 6 7 0 -2
BITMAP
D4
D4
D4
D4
78
30
30
ENDCHAR
STARTCHAR omega
ENCODING 969
SWIDTH 467 0
DWIDTH 6 0
BBX 6 5 0 0
BITMAP
68
CC
D4
D4
68
ENDCHAR
STARTCHAR iotadieresis
ENCODING 970
SWIDTH 467 0
DWIDTH 6 0
BBX 5 7 1 0
BITMAP
D0
00
60
60
60
68
30
ENDCHAR
STARTCHAR upsilondieresis
ENCODING 971
SWIDTH 467 0
DWIDTH 6 0
BBX 6 7 0 0
BITMAP
68
00
CC
CC
CC
CC
78
ENDCHAR
STARTCHAR omicrontonos
ENCODING 972
SWIDTH 467 0
DWIDTH 6 0
BBX 6 8 0 0
BITMAP
18
30
00
78
CC
CC
CC
78
ENDCHAR
STARTCHAR upsilontonos
ENCODING 973
SWIDTH 467 0
DWIDTH 6 0
BBX 6 8 0 0
BITMAP
18
30
00
CC
CC
CC
CC
78
ENDCHAR
STARTCHAR omegatonos
ENCODING 974
SWIDTH 467 0
DWIDTH 6 0
BBX 6 8 0 0
BITMAP
18
30
00
68
CC
D4
D4
68
ENDCHAR
STARTCHAR U+0401
ENCODING 1025
SWIDTH 545 0
DWIDTH 7 0
BBX 6 9 1 0
BITMAP
CC
00
FC
C0
C0
F0
C0
C0
FC
ENDCHAR
STARTCHAR U+0404
ENCODING 1028
SWIDTH 545 0
DWIDTH 7 0
BBX 6 8 1 0
BITMAP
78
CC
C0
F0
C0
C0
CC
78
ENDCHAR
STARTCHAR U+0406
ENCODING 1030
SWIDTH 233 0
DWIDTH 3 0
BBX 2 8 1 0
BITMAP
C0
C0
C0
C0
C0
C0
C0
C0
ENDCHAR
STARTCHAR U+0407
ENCODING 1031
SWIDTH 389 0
DWIDTH 5 0
BBX 4 9 1 0
BITMAP
90
00
60
60
60
60
60
60
60
ENDCHAR
STARTCHAR U+040E
ENCODING 1038
SWIDTH 623 0
DWIDTH 8 0
BBX 7 9 1 0
BITMAP
24
5A
46
2C
2C
18
18
D0
60
ENDCHAR
STARTCHAR U+0410
ENCODING 1040
SWIDTH 545 0
DWIDTH 7 0
BBX 6 8 1 0
BITMAP
3C
6C
CC
CC
CC
FC
CC
CC
ENDCHAR
STARTCHAR U+0411
ENCODING 1041
SWIDTH 545 0
DWIDTH 7 0
BBX 6 8 1 0
BITMAP
FC
C0
C0
F8
CC
CC
CC
F8
ENDCHAR
STARTCHAR U+0412
ENCODING 1042
SWIDTH 545 0
DWIDTH 7 0
BBX 6 8 1 0
BITMAP
F8
CC
CC
F8
CC
CC
CC
F8
ENDCHAR
STARTCHAR U+0413
ENCODING 1043
SWIDTH 545 0
DWIDTH 7 0
BBX 6 8 1 0
BITMAP
FC
C0
C0
C0
C0
C0
C0
C0
ENDCHAR
STARTCHAR U+0414
ENCODING 1044
SWIDTH 701 0
DWIDTH 9 0
BBX 8 9 1 -1
BITMAP
1E
36
66
66
66
66
66
FF
81
ENDCHAR
STARTCHAR U+0415
ENCODING 1045
SWIDTH 545 0
DWIDTH 7 0
BBX 6 8 1 0
BITMAP
FC
C0
C0
F0
C0
C0
C0
FC
ENDCHAR
STARTCHAR U+0416
ENCODING 1046
SWIDTH 545 0
DWIDTH 7 0
BBX 6 8 1 0
BITMAP
B4
B4
78
30
30
78
B4
B4
ENDCHAR
STARTCHAR U+0417
ENCODING 1047
SWIDTH 545 0
DWIDTH 7 0
BBX 6 8 1 0
BITMAP
78
CC
0C
18
0C
0C
CC
78
ENDCHAR
STARTCHAR U+0418
ENCODING 1048
SWIDTH 545 0
DWIDTH 7 0
BBX 6 8 1 0
BITMAP
CC
CC
CC
CC
DC
EC
CC
CC
ENDCHAR
STARTCHAR U+0419
ENCODING 1049
SWIDTH 545 0
DWIDTH 7 0
BBX 6 9 1 0
BITMAP
48
B4
CC
CC
CC
DC
EC
CC
CC
ENDCHAR
STARTCHAR U+041A
ENCODING 1050
SWIDTH 467 0
DWIDTH 6 0
BBX 5 8 1 0
BITMAP
C8
D8
F0
E0
E0
F0
D8
C8
ENDCHAR
STARTCHAR U+041B
ENCODING 1051
SWIDTH 623 0
DWIDTH 8 0
BBX 7 8 1 0
BITMAP
3E
66
66
66
66
66
66
C6
ENDCHAR
STARTCHAR U+041C
ENCODING 1052
SWIDTH 623 0
DWIDTH 8 0
BBX 7 8 1 0
BITMAP
C6
EE
FE
D6
C6
C6
C6
C6
ENDCHAR
STARTCHAR U+041D
ENCODING 1053
SWIDTH 545 0
DWIDTH 7 0
BBX 6 8 1 0
BITMAP
CC
CC
CC
FC
CC
CC
CC
CC
ENDCHAR
STARTCHAR U+041E
ENCODING 1054
SWIDTH 545 0
DWIDTH 7 0
BBX 6 8 1 0
BITMAP
78
CC
CC
CC
CC
CC
CC
78
ENDCHAR
STARTCHAR U+041F
ENCODING 1055
SWIDTH 545 0
DWIDTH 7 0
BBX 6 8 1 0
BITMAP
FC
CC
CC
CC
CC
CC
CC
CC
ENDCHAR
STARTCHAR U+0420
ENCODING 1056
SWIDTH 545 0
DWIDTH 7 0
BBX 6 8 1 0
BITMAP
F8
CC
CC
CC
F8
C0
C0
C0
ENDCHAR
STARTCHAR U+0421
ENCODING 1057
SWIDTH 545 0
DWIDTH 7 0
BBX 6 8 1 0
BITMAP
78
CC
C0
C0
C0
C0
CC
78
ENDCHAR
STARTCHAR U+0422
ENCODING 1058
SWIDTH 545 0
DWIDTH 7 0
BBX 6 8 1 0
BITMAP
FC
30
30
30
30
30
30
30
ENDCHAR
STARTCHAR U+0423
ENCODING 1059
SWIDTH 623 0
DWIDTH 8 0
BBX 7 8 1 0
BITMAP
46
46
2C
2C
18
18
D0
60
ENDCHAR
STARTCHAR U+0424
ENCODING 1060
SWIDTH 701 0
DWIDTH 9 0
BBX 8 8 1 0
BITMAP
18
7E
DB
DB
DB
7E
18
18
ENDCHAR
STARTCHAR U+0425
ENCODING 1061
SWIDTH 545 0
DWIDTH 7 0
BBX 6 8 1 0
BITMAP
CC
48
78
30
30
78
48
CC
ENDCHAR
STARTCHAR U+0426
ENCODING 1062
SWIDTH 623 0
DWIDTH 8 0
BBX 7 9 1 -1
BITMAP
CC
CC
CC
CC
CC
CC
CC
FE
02
ENDCHAR
STARTCHAR U+0427
ENCODING 1063
SWIDTH 545 0
DWIDTH 7 0
BBX 6 8 1 0
BITMAP
CC
CC
CC
CC
7C
0C
0C
0C
ENDCHAR
STARTCHAR U+0428
ENCODING 1064
SWIDTH 701 0
DWIDTH 9 0
BBX 8 8 1 0
BITMAP
C3
C3
DB
DB
DB
DB
DB
FF
ENDCHAR
STARTCHAR U+0429
ENCODING 1065
SWIDTH 779 0
DWIDTH 10 0
BBX 9 9 1 -1
BITMAP
C300
C300
DB00
DB00
DB00
DB00
DB00
FF80
0080
ENDCHAR
STARTCHAR U+042A
ENCODING 1066
SWIDTH 623 0
DWIDTH 8 0
BBX 7 8 1 0
BITMAP
E0
60
60
7C
66
66
66
7C
ENDCHAR
STARTCHAR U+042B
ENCODING 1067
SWIDTH 701 0
DWIDTH 9 0
BBX 8 8 1 0
BITMAP
C3
C3
C3
FB
CF
CF
CF
FB
ENDCHAR
STARTCHAR U+042C
ENCODING 1068
SWIDTH 545 0
DWIDTH 7 0
BBX 6 8 1 0
BITMAP
C0
C0
C0
F8
CC
CC
CC
F8
ENDCHAR
STARTCHAR U+042D
ENCODING 1069
SWIDTH 545 0
DWIDTH 7 0
BBX 6 8 1 0
BITMAP
78
CC
0C
3C
0C
0C
CC
78
ENDCHAR
STARTCHAR U+042E
ENCODING 1070
SWIDTH 701 0
DWIDTH 9 0
BBX 8 8 1 0
BITMAP
CE
DB
DB
FB
DB
DB
DB
CE
ENDCHAR
STARTCHAR U+042F
ENCODING 1071
SWIDTH 545 0
DWIDTH 7 0
BBX 6 8 1 0
BITMAP
7C
CC
CC
CC
7C
CC
CC
CC
ENDCHAR
STARTCHAR U+0430
ENCODING 1072
SWIDTH 623 0
DWIDTH 8 0
BBX 7 6 1 0
BITMAP
78
0C
7C
CC
CC
7A
ENDCHAR
STARTCHAR U+0431
ENCODING 1073
SWIDTH 545 0
DWIDTH 7 0
BBX 6 8 1 0
BITMAP
04
78
C0
F8
CC
CC
CC
78
ENDCHAR
STARTCHAR U+0432
ENCODING 1074
SWIDTH 545 0
DWIDTH 7 0
BBX 6 8 1 0
BITMAP
70
D8
D8
F0
F8
CC
CC
78
ENDCHAR
STARTCHAR U+0433
ENCODING 1075
SWIDTH 467 0
DWIDTH 6 0
BBX 5 6 1 0
BITMAP
F8
C0
C0
C0
C0
C0
ENDCHAR
STARTCHAR U+0434
ENCODING 1076
SWIDTH 701 0
DWIDTH 9 0
BBX 8 7 1 -1
BITMAP
3E
66
66
66
66
FF
81
ENDCHAR
STARTCHAR U+0435
ENCODING 1077
SWIDTH 545 0
DWIDTH 7 0
BBX 6 6 1 0
BITMAP
78
CC
FC
C0
CC
78
ENDCHAR
STARTCHAR U+0436
ENCODING 1078
SWIDTH 545 0
DWIDTH 7 0
BBX 6 6 1 0
BITMAP
B4
FC
30
78
FC
B4
ENDCHAR
STARTCHAR U+0437
ENCODING 1079
SWIDTH 545 0
DWIDTH 7 0
BBX 6 6 1 0
BITMAP
78
CC
18
0C
CC
78
ENDCHAR
STARTCHAR U+0438
ENCODING 1080
SWIDTH 545 0
DWIDTH 7 0
BBX 6 6 1 0
BITMAP
CC
CC
CC
CC
CC
74
ENDCHAR
STARTCHAR U+0439
ENCODING 1081
SWIDTH 545 0
DWIDTH 7 0
BBX 6 8 1 0
BITMAP
48
30
CC
CC
CC
CC
CC
74
ENDCHAR
STARTCHAR U+043A
ENCODING 1082
SWIDTH 467 0
DWIDTH 6 0
BBX 5 6 1 0
BITMAP
D8
D8
E0
F0
D8
D8
ENDCHAR
STARTCHAR U+043B
ENCODING 1083
SWIDTH 623 0
DWIDTH 8 0
BBX 7 6 1 0
BITMAP
3E
66
66
66
66
C6
ENDCHAR
STARTCHAR U+043C
ENCODING 1084
SWIDTH 623 0
DWIDTH 8 0
BBX 7 6 1 0
BITMAP
C6
EE
D6
C6
C6
C6
ENDCHAR
STARTCHAR U+043D
ENCODING 1085
SWIDTH 545 0
DWIDTH 7 0
BBX 6 6 1 0
BITMAP
CC
CC
FC
CC
CC
CC
ENDCHAR
STARTCHAR U+043E
ENCODING 1086
SWIDTH 545 0
DWIDTH 7 0
BBX 6 6 1 0
BITMAP
78
CC
CC
CC
CC
78
ENDCHAR
STARTCHAR U+043F
ENCODING 1087
SWIDTH 545 0
DWIDTH 7 0
BBX 6 6 1 0
BITMAP
F8
CC
CC
CC
CC
CC
ENDCHAR
STARTCHAR U+0440
ENCODING 1088
SWIDTH 545 0
DWIDTH 7 0
BBX 6 6 1 0
BITMAP
78
CC
CC
F8
C0
C0
ENDCHAR
STARTCHAR U+0441
ENCODING 1089
SWIDTH 545 0
DWIDTH 7 0
BBX 6 6 1 0
BITMAP
78
CC
C0
C0
CC
78
ENDCHAR
STARTCHAR U+0442
ENCODING 1090
SWIDTH 545 0
DWIDTH 7 0
BBX 6 6 1 0
BITMAP
FC
30
30
30
30
30
ENDCHAR
STARTCHAR U+0443
ENCODING 1091
SWIDTH 545 0
DWIDTH 7 0
BBX 6 8 1 -2
BITMAP
CC
CC
CC
CC
7C
0C
CC
78
ENDCHAR
STARTCHAR U+0444
ENCODING 1092
SWIDTH 701 0
DWIDTH 9 0
BBX 8 6 1 0
BITMAP
18
7E
DB
DB
7E
18
ENDCHAR
STARTCHAR U+0445
ENCODING 1093
SWIDTH 545 0
DWIDTH 7 0
BBX 6 6 1 0
BITMAP
CC
78
30
30
78
CC
ENDCHAR
STARTCHAR U+0446
ENCODING 1094
SWIDTH 623 0
DWIDTH 8 0
BBX 7 7 1 -1
BITMAP
CC
CC
CC
CC
CC
7E
02
ENDCHAR
STARTCHAR U+0447
ENCODING 1095
SWIDTH 545 0
DWIDTH 7 0
BBX 6 6 1 0
BITMAP
CC
CC
CC
7C
0C
0C
ENDCHAR
STARTCHAR U+0448
ENCODING 1096
SWIDTH 701 0
DWIDTH 9 0
BBX 8 6 1 0
BITMAP
DB
DB
DB
DB
DB
7F
ENDCHAR
STARTCHAR U+0449
ENCODING 1097
SWIDTH 701 0
DWIDTH 9 0
BBX 9 7 1 -1
BITMAP
DB00
DB00
DB00
DB00
DB00
7F80
0080
ENDCHAR
STARTCHAR U+044A
ENCODING 1098
SWIDTH 545 0
DWIDTH 7 0
BBX 6 6 1 0
BITMAP
E0
60
78
6C
6C
38
ENDCHAR
STARTCHAR U+044B
ENCODING 1099
SWIDTH 623 0
DWIDTH 8 0
BBX 7 6 1 0
BITMAP
C6
C6
F6
DE
DE
76
ENDCHAR
STARTCHAR U+044C
ENCODING 1100
SWIDTH 467 0
DWIDTH 6 0
BBX 5 6 1 0
BITMAP
C0
C0
F0
D8
D8
70
ENDCHAR
STARTCHAR U+044D
ENCODING 1101
SWIDTH 467 0
DWIDTH 6 0
BBX 5 6 1 0
BITMAP
70
D8
18
38
98
70
ENDCHAR
STARTCHAR U+044E
ENCODING 1102
SWIDTH 701 0
DWIDTH 9 0
BBX 8 6 1 0
BITMAP
CE
DB
DB
FB
DB
CE
ENDCHAR
STARTCHAR U+044F
ENCODING 1103
SWIDTH 545 0
DWIDTH 7 0
BBX 6 6 1 0
BITMAP
78
CC
CC
7C
CC
CC
ENDCHAR
STARTCHAR U+0451
ENCODING 1105
SWIDTH 545 0
DWIDTH 7 0
BBX 6 8 1 0
BITMAP
48
00
78
CC
FC
C0
CC
78
ENDCHAR
STARTCHAR U+0454
ENCODING 1108
SWIDTH 545 0
DWIDTH 7 0
BBX 6 6 1 0
BITMAP
78
CC
C0
F0
C4
78
ENDCHAR
STARTCHAR U+0456
ENCODING 1110
SWIDTH 233 0
DWIDTH 3 0
BBX 2 8 1 0
BITMAP
C0
00
C0
C0
C0
C0
C0
C0
ENDCHAR
STARTCHAR U+0457
ENCODING 1111
SWIDTH 389 0
DWIDTH 5 0
BBX 4 8 1 0
BITMAP
90
00
60
60
60
60
60
60
ENDCHAR
STARTCHAR U+045E
ENCODING 1118
SWIDTH 545 0
DWIDTH 7 0
BBX 6 10 1 -2
BITMAP
48
30
CC
CC
CC
CC
7C
0C
CC
78
ENDCHAR
STARTCHAR U+0490
ENCODING 1168
SWIDTH 545 0
DWIDTH 7 0
BBX 6 9 1 0
BITMAP
04
FC
C0
C0
C0
C0
C0
C0
C0
ENDCHAR
STARTCHAR U+0491
ENCODING 1169
SWIDTH 467 0
DWIDTH 6 0
BBX 5 8 1 0
BITMAP
08
F8
C0
C0
C0
C0
C0
C0
ENDCHAR
STARTCHAR uni0E01
ENCODING 3585
SWIDTH 1000 0
DWIDTH 8 0
BBX 5 8 2 0
BITMAP
70
88
48
88
88
88
88
88
ENDCHAR
STARTCHAR uni0E02
ENCODING 3586
SWIDTH 1000 0
DWIDTH 8 0
BBX 5 8 1 0
BITMAP
48
A8
68
28
28
28
28
38
ENDCHAR
STARTCHAR uni0E03
ENCODING 3587
SWIDTH 1000 0
DWIDTH 8 0
BBX 6 8 1 0
BITMAP
54
AC
54
14
14
14
14
1C
ENDCHAR
STARTCHAR uni0E04
ENCODING 3588
SWIDTH 1000 0
DWIDTH 8 0
BBX 6 8 1 0
BITMAP
78
84
94
AC
54
44
44
44
ENDCHAR
STARTCHAR uni0E05
ENCODING 3589
SWIDTH 1000 0
DWIDTH 8 0
BBX 6 8 1 0
BITMAP
58
A4
94
AC
54
44
44
44
ENDCHAR
STARTCHAR uni0E06
ENCODING 3590
SWIDTH 1000 0
DWIDTH 8 0
BBX 8 8 0 0
BITMAP
51
A9
51
11
11
1D
2B
11
ENDCHAR
STARTCHAR uni0E07
ENCODING 3591
SWIDTH 1000 0
DWIDTH 8 0
BBX 5 8 2 0
BITMAP
10
28
18
08
88
48
28
18
ENDCHAR
STARTCHAR uni0E08
ENCODING 3592
SWIDTH 1000 0
DWIDTH 8 0
BBX 5 8 2 0
BITMAP
70
88
08
28
58
28
08
08
ENDCHAR
STARTCHAR uni0E09
ENCODING 3593
SWIDTH 1000 0
DWIDTH 8 0
BBX 8 8 0 0
BITMAP
78
84
04
44
A4
66
3D
22
ENDCHAR
STARTCHAR uni0E0A
ENCODING 3594
SWIDTH 1000 0
DWIDTH 8 0
BBX 7 10 1 0
BITMAP
02
04
48
B0
68
28
28
28
28
38
ENDCHAR
STARTCHAR uni0E0B
ENCODING 3595
SWIDTH 1000 0
DWIDTH 8 0
BBX 8 10 0 0
BITMAP
01
02
54
A8
54
14
14
14
14
1C
ENDCHAR
STARTCHAR uni0E0C
ENCODING 3596
SWIDTH 1000 0
DWIDTH 8 0
BBX 7 8 1 0
BITMAP
72
8A
4A
8A
8A
CA
B6
4A
ENDCHAR
STARTCHAR uni0E0D
ENCODING 3597
SWIDTH 1000 0
DWIDTH 8 0
BBX 6 11 1 -2
BITMAP
64
94
54
94
94
D4
B4
5C
00
10
1C
ENDCHAR
STARTCHAR uni0E0E
ENCODING 3598
SWIDTH 1000 0
DWIDTH 8 0
BBX 7 11 1 -2
BITMAP
1C
22
12
22
22
62
A2
42
2A
52
2E
ENDCHAR
STARTCHAR uni0E0F
ENCODING 3599
SWIDTH 1000 0
DWIDTH 8 0
BBX 7 11 1 -2
BITMAP
1C
22
12
22
22
62
A2
42
52
AA
56
ENDCHAR
STARTCHAR uni0E10
ENCODING 3600
SWIDTH 1000 0
DWIDTH 8 0
BBX 7 11 1 -2
BITMAP
1C
22
18
04
12
2A
16
02
52
AA
56
ENDCHAR
STARTCHAR uni0E11
ENCODING 3601
SWIDTH 1000 0
DWIDTH 8 0
BBX 8 8 0 0
BITMAP
56
AD
55
19
19
11
11
11
ENDCHAR
STARTCHAR uni0E12
ENCODING 3602
SWIDTH 1000 0
DWIDTH 8 0
BBX 8 8 0 0
BITMAP
29
55
95
AD
95
AD
57
49
ENDCHAR
STARTCHAR uni0E13
ENCODING 3603
SWIDTH 1000 0
DWIDTH 8 0
BBX 8 8 0 0
BITMAP
64
94
54
94
94
D6
BD
52
ENDCHAR
STARTCHAR uni0E14
ENCODING 3604
SWIDTH 1000 0
DWIDTH 8 0
BBX 6 8 1 0
BITMAP
38
44
94
AC
94
A4
44
44
ENDCHAR
STARTCHAR uni0E15
ENCODING 3605
SWIDTH 1000 0
DWIDTH 8 0
BBX 6 8 1 0
BITMAP
28
54
94
AC
94
A4
44
44
ENDCHAR
STARTCHAR uni0E16
ENCODING 3606
SWIDTH 1000 0
DWIDTH 8 0
BBX 5 8 2 0
BITMAP
70
88
48
88
88
C8
A8
48
ENDCHAR
STARTCHAR uni0E17
ENCODING 3607
SWIDTH 1000 0
DWIDTH 8 0
BBX 7 8 1 0
BITMAP
44
AA
6A
32
32
22
22
22
ENDCHAR
STARTCHAR uni0E18
ENCODING 3608
SWIDTH 1000 0
DWIDTH 8 0
BBX 5 8 2 0
BITMAP
70
88
E0
18
88
88
88
F8
ENDCHAR
STARTCHAR uni0E19
ENCODING 3609
SWIDTH 1000 0
DWIDTH 8 0
BBX 8 8 0 0
BITMAP
44
A4
64
24
24
2E
35
22
ENDCHAR
STARTCHAR uni0E1A
ENCODING 3610
SWIDTH 1000 0
DWIDTH 8 0
BBX 7 8 1 0
BITMAP
42
A2
62
22
22
22
22
3E
ENDCHAR
STARTCHAR uni0E1B
ENCODING 3611
SWIDTH 1000 0
DWIDTH 8 0
BBX 7 10 1 0
BITMAP
02
02
42
A2
62
22
22
22
22
3E
ENDCHAR
STARTCHAR uni0E1C
ENCODING 3612
SWIDTH 1000 0
DWIDTH 8 0
BBX 5 8 2 0
BITMAP
48
A8
C8
88
88
A8
D8
88
ENDCHAR
STARTCHAR uni0E1D
ENCODING 3613
SWIDTH 1000 0
DWIDTH 8 0
BBX 5 10 3 0
BITMAP
08
08
48
A8
C8
88
88
A8
D8
88
ENDCHAR
STARTCHAR uni0E1E
ENCODING 3614
SWIDTH 1000 0
DWIDTH 8 0
BBX 7 8 1 0
BITMAP
42
A2
62
22
22
2A
36
22
ENDCHAR
STARTCHAR uni0E1F
ENCODING 3615
SWIDTH 1000 0
DWIDTH 8 0
BBX 7 10 1 0
BITMAP
02
02
42
A2
62
22
22
2A
36
22
ENDCHAR
STARTCHAR uni0E20
ENCODING 3616
SWIDTH 1000 0
DWIDTH 8 0
BBX 7 8 1 0
BITMAP
1C
22
12
22
22
62
A2
42
ENDCHAR
STARTCHAR uni0E21
ENCODING 3617
SWIDTH 1000 0
DWIDTH 8 0
BBX 7 8 1 0
BITMAP
42
A2
62
22
22
72
AA
46
ENDCHAR
STARTCHAR uni0E22
ENCODING 3618
SWIDTH 1000 0
DWIDTH 8 0
BBX 5 8 2 0
BITMAP
48
A8
C8
88
48
88
88
F8
ENDCHAR
STARTCHAR uni0E23
ENCODING 3619
SWIDTH 1000 0
DWIDTH 8 0
BBX 5 8 2 0
BITMAP
70
C8
20
10
10
30
50
20
ENDCHAR
STARTCHAR uni0E24
ENCODING 3620
SWIDTH 1000 0
DWIDTH 8 0
BBX 5 10 2 -2
BITMAP
70
88
48
88
88
C8
A8
48
08
08
ENDCHAR
STARTCHAR uni0E25
ENCODING 3621
SWIDTH 1000 0
DWIDTH 8 0
BBX 5 8 2 0
BITMAP
70
88
08
68
98
C8
A8
48
ENDCHAR
STARTCHAR uni0E26
ENCODING 3622
SWIDTH 1000 0
DWIDTH 8 0
BBX 7 10 1 -2
BITMAP
1C
22
12
22
22
62
A2
42
02
02
ENDCHAR
STARTCHAR uni0E27
ENCODING 3623
SWIDTH 1000 0
DWIDTH 8 0
BBX 5 8 2 0
BITMAP
70
88
08
08
08
18
28
10
ENDCHAR
STARTCHAR uni0E28
ENCODING 3624
SWIDTH 1000 0
DWIDTH 8 0
BBX 7 10 1 0
BITMAP
02
04
78
84
94
AC
54
44
44
44
ENDCHAR
STARTCHAR uni0E29
ENCODING 3625
SWIDTH 1000 0
DWIDTH 8 0
BBX 8 8 0 0
BITMAP
42
A2
6B
36
2A
22
22
3E
ENDCHAR
STARTCHAR uni0E2A
ENCODING 3626
SWIDTH 1000 0
DWIDTH 8 0
BBX 6 10 1 0
BITMAP
04
08
70
88
08
68
98
C8
A8
48
ENDCHAR
STARTCHAR uni0E2B
ENCODING 3627
SWIDTH 1000 0
DWIDTH 8 0
BBX 8 8 0 0
BITMAP
42
A5
6E
32
22
22
22
22
ENDCHAR
STARTCHAR uni0E2C
ENCODING 3628
SWIDTH 1000 0
DWIDTH 8 0
BBX 7 10 1 0
BITMAP
0A
14
4A
A2
62
22
22
2A
36
22
ENDCHAR
STARTCHAR uni0E2D
ENCODING 3629
SWIDTH 1000 0
DWIDTH 8 0
BBX 5 8 2 0
BITMAP
70
88
08
48
A8
C8
88
F8
ENDCHAR
STARTCHAR uni0E2E
ENCODING 3630
SWIDTH 1000 0
DWIDTH 8 0
BBX 6 10 1 0
BITMAP
04
08
70
88
08
48
A8
C8
88
F8
ENDCHAR
STARTCHAR uni0E2F
ENCODING 3631
SWIDTH 1000 0
DWIDTH 8 0
BBX 5 7 1 0
BITMAP
58
A8
48
08
08
08
08
ENDCHAR
STARTCHAR uni0E30
ENCODING 3632
SWIDTH 1000 0
DWIDTH 8 0
BBX 5 6 2 1
BITMAP
40
A8
70
40
A8
70
ENDCHAR
STARTCHAR uni0E31
ENCODING 3633
SWIDTH 1000 0
DWIDTH 8 0
BBX 5 3 2 9
BITMAP
40
A8
70
ENDCHAR
STARTCHAR uni0E32
ENCODING 3634
SWIDTH 1000 0
DWIDTH 8 0
BBX 5 8 2 0
BITMAP
70
88
08
08
08
08
08
08
ENDCHAR
STARTCHAR uni0E33
ENCODING 3635
SWIDTH 1000 0
DWIDTH 8 0
BBX 7 11 0 0
BITMAP
40
A0
40
1C
22
02
02
02
02
02
02
ENDCHAR
STARTCHAR uni0E34
ENCODING 3636
SWIDTH 1000 0
DWIDTH 0 0
BBX 4 1 3 10
BITMAP
F0
ENDCHAR
STARTCHAR uni0E35
ENCODING 3637
SWIDTH 1000 0
DWIDTH 0 0
BBX 4 2 3 10
BITMAP
10
F0
ENDCHAR
STARTCHAR uni0E36
ENCODING 3638
SWIDTH 1000 0
DWIDTH 0 0
BBX 5 3 2 10
BITMAP
10
28
F0
ENDCHAR
STARTCHAR uni0E37
ENCODING 3639
SWIDTH 1000 0
DWIDTH 0 0
BBX 5 2 2 10
BITMAP
28
F8
ENDCHAR
STARTCHAR uni0E38
ENCODING 3640
SWIDTH 1000 0
DWIDTH 0 0
BBX 2 2 4 -2
BITMAP
C0
40
ENDCHAR
STARTCHAR uni0E39
ENCODING 3641
SWIDTH 1000 0
DWIDTH 0 0
BBX 4 2 3 -2
BITMAP
D0
70
ENDCHAR
STARTCHAR uni0E3A
ENCODING 3642
SWIDTH 1000 0
DWIDTH 0 0
BBX 2 2 3 -2
BITMAP
C0
C0
ENDCHAR
STARTCHAR uni0E3F
ENCODING 3647
SWIDTH 1000 0
DWIDTH 8 0
BBX 5 12 2 0
BITMAP
20
20
F0
A8
A8
F0
A8
A8
A8
F0
20
20
ENDCHAR
STARTCHAR uni0E40
ENCODING 3648
SWIDTH 1000 0
DWIDTH 8 0
BBX 3 8 3 0
BITMAP
80
80
80
80
80
C0
A0
40
ENDCHAR
STARTCHAR uni0E41
ENCODING 3649
SWIDTH 1000 0
DWIDTH 8 0
BBX 6 8 1 0
BITMAP
90
90
90
90
90
D8
B4
48
ENDCHAR
STARTCHAR uni0E42
ENCODING 3650
SWIDTH 1000 0
DWIDTH 8 0
BBX 5 11 1 0
BITMAP
78
C0
20
20
20
20
20
20
30
28
10
ENDCHAR
STARTCHAR uni0E43
ENCODING 3651
SWIDTH 1000 0
DWIDTH 8 0
BBX 6 11 1 0
BITMAP
60
90
50
10
10
10
10
10
18
14
08
ENDCHAR
STARTCHAR uni0E44
ENCODING 3652
SWIDTH 1000 0
DWIDTH 8 0
BBX 6 11 1 0
BITMAP
B0
50
10
10
10
10
10
10
18
14
08
ENDCHAR
STARTCHAR uni0E45
ENCODING 3653
SWIDTH 1000 0
DWIDTH 8 0
BBX 5 10 2 -2
BITMAP
70
88
08
08
08
08
08
08
08
08
ENDCHAR
STARTCHAR uni0E46
ENCODING 3654
SWIDTH 1000 0
DWIDTH 8 0
BBX 5 10 2 -2
BITMAP
50
A8
C8
A8
48
08
08
08
10
60
ENDCHAR
STARTCHAR uni0E47
ENCODING 3655
SWIDTH 1000 0
DWIDTH 0 0
BBX 5 4 2 6
BITMAP
08
70
A8
50
ENDCHAR
STARTCHAR uni0E48
ENCODING 3656
SWIDTH 1000 0
DWIDTH 0 0
BBX 1 3 6 6
BITMAP
80
80
80
ENDCHAR
STARTCHAR uni0E49
ENCODING 3657
SWIDTH 1000 0
DWIDTH 0 0
BBX 4 3 3 6
BITMAP
90
50
E0
ENDCHAR
STARTCHAR uni0E4A
ENCODING 3658
SWIDTH 1000 0
DWIDTH 0 0
BBX 6 4 1 6
BITMAP
04
74
A8
50
ENDCHAR
STARTCHAR uni0E4B
ENCODING 3659
SWIDTH 1000 0
DWIDTH 0 0
BBX 3 3 3 6
BITMAP
40
E0
40
ENDCHAR
STARTCHAR uni0E4C
ENCODING 3660
SWIDTH 1000 0
DWIDTH 0 0
BBX 4 4 2 6
BITMAP
30
40
A0
40
ENDCHAR
STARTCHAR uni0E4D
ENCODING 3661
SWIDTH 1000 0
DWIDTH 0 0
BBX 3 3 3 6
BITMAP
40
A0
40
ENDCHAR
STARTCHAR uni0E4E
ENCODING 3662
SWIDTH 1000 0
DWIDTH 0 0
BBX 5 5 2 6
BITMAP
38
40
60
80
C0
ENDCHAR
STARTCHAR uni0E4F
ENCODING 3663
SWIDTH 1000 0
DWIDTH 8 0
BBX 7 8 1 0
BITMAP
38
44
92
BA
BA
92
44
38
ENDCHAR
STARTCHAR uni0E50
ENCODING 3664
SWIDTH 1000 0
DWIDTH 8 0
BBX 7 8 1 0
BITMAP
38
44
8A
9A
B2
A2
44
38
ENDCHAR
STARTCHAR uni0E51
ENCODING 3665
SWIDTH 1000 0
DWIDTH 8 0
BBX 7 7 1 0
BITMAP
38
44
4A
4A
32
84
78
ENDCHAR
STARTCHAR uni0E52
ENCODING 3666
SWIDTH 1000 0
DWIDTH 8 0
BBX 8 8 0 0
BITMAP
8A
55
59
55
29
21
21
3F
ENDCHAR
STARTCHAR uni0E53
ENCODING 3667
SWIDTH 1000 0
DWIDTH 8 0
BBX 7 8 1 0
BITMAP
6C
92
82
82
82
C2
A2
42
ENDCHAR
STARTCHAR uni0E54
ENCODING 3668
SWIDTH 1000 0
DWIDTH 8 0
BBX 7 10 1 0
BITMAP
02
04
38
40
88
94
88
88
44
3E
ENDCHAR
STARTCHAR uni0E55
ENCODING 3669
SWIDTH 1000 0
DWIDTH 8 0
BBX 7 11 1 0
BITMAP
0A
14
08
30
40
88
94
88
88
44
3E
ENDCHAR
STARTCHAR uni0E56
ENCODING 3670
SWIDTH 1000 0
DWIDTH 8 0
BBX 8 9 0 0
BITMAP
80
5C
22
01
11
29
31
22
1C
ENDCHAR
STARTCHAR uni0E57
ENCODING 3671
SWIDTH 1000 0
DWIDTH 8 0
BBX 7 10 1 0
BITMAP
08
04
52
AA
8A
8A
8A
CA
AC
48
ENDCHAR
STARTCHAR uni0E58
ENCODING 3672
SWIDTH 1000 0
DWIDTH 8 0
BBX 7 10 1 0
BITMAP
02
04
38
40
80
80
90
94
BA
4C
ENDCHAR
STARTCHAR uni0E59
ENCODING 3673
SWIDTH 1000 0
DWIDTH 8 0
BBX 7 9 1 0
BITMAP
02
0A
54
A0
90
88
C4
A0
40
ENDCHAR
STARTCHAR uni0E5A
ENCODING 3674
SWIDTH 1000 0
DWIDTH 8 0
BBX 7 7 1 0
BITMAP
5A
AA
4A
0A
0A
0A
0A
ENDCHAR
STARTCHAR uni0E5B
ENCODING 3675
SWIDTH 1000 0
DWIDTH 8 0
BBX 7 7 1 1
BITMAP
40
80
A8
AE
B8
A0
40
ENDCHAR
STARTCHAR U+203B
ENCODING 8251
SWIDTH 960 0
DWIDTH 10 0
BBX 10 11 0 -2
BITMAP
0000
0800
4100
2200
1400
8880
1400
2200
4100
0800
0000
ENDCHAR
STARTCHAR U+2639
ENCODING 9785
SWIDTH 623 0
DWIDTH 8 0
BBX 8 8 0 0
BITMAP
38
44
AA
82
92
AA
44
38
ENDCHAR
STARTCHAR U+263A
ENCODING 9786
SWIDTH 623 0
DWIDTH 8 0
BBX 8 8 0 0
BITMAP
38
44
AA
82
AA
92
44
38
ENDCHAR
STARTCHAR U+300C
ENCODING 12300
SWIDTH 960 0
DWIDTH 10 0
BBX 10 11 0 -2
BITMAP
0F00
0800
0800
0800
0800
0800
0800
0000
0000
0000
0000
ENDCHAR
STARTCHAR U+300D
ENCODING 12301
SWIDTH 960 0
DWIDTH 10 0
BBX 10 11 0 -2
BITMAP
0000
0000
0000
0000
0800
0800
0800
0800
0800
0800
7800
ENDCHAR
STARTCHAR U+AC00
ENCODING 44032
SWIDTH 935 0
DWIDTH 12 0
BBX 10 11 0 -2
BITMAP
7E40
0240
0240
0240
0270
0440
0440
0840
7040
0040
0040
ENDCHAR
STARTCHAR U+AC01
ENCODING 44033
SWIDTH 935 0
DWIDTH 12 0
BBX 10 11 0 -2
BITMAP
7E40
0240
0270
0440
1840
6040
0000
3FC0
0040
0040
0040
ENDCHAR
STARTCHAR U+AC04
ENCODING 44036
SWIDTH 935 0
DWIDTH 12 0
BBX 10 11 0 -2
BITMAP
7E40
0240
0270
0440
1840
6040
0040
2000
2000
2000
1FC0
ENDCHAR
STARTCHAR U+AC07
ENCODING 44039
SWIDTH 935 0
DWIDTH 12 0
BBX 10 11 0 -2
BITMAP
7E40
0240
0270
0440
1840
6040
0000
3FC0
2000
2000
1FC0
ENDCHAR
STARTCHAR U+AC08
ENCODING 44040
SWIDTH 935 0
DWIDTH 12 0
BBX 10 11 0 -2
BITMAP
7E40
0240
0470
1840
6040
0040
3FC0
0040
3FC0
2000
1FC0
ENDCHAR
STARTCHAR U+AC09
ENCODING 44041
SWIDTH 935 0
DWIDTH 12 0
BBX 10 11 0 -2
BITMAP
7E40
0240
0470
1840
6040
0040
3FC0
0440
3C40
2040
1C40
ENDCHAR
STARTCHAR U+AC0A
ENCODING 44042
SWIDTH 935 0
DWIDTH 12 0
BBX 10 11 0 -2
BITMAP
7E40
0240
0470
1840
6040
0040
3DC0
0540
3D40
2140
1FC0
ENDCHAR
STARTCHAR U+AC10
ENCODING 44048
SWIDTH 935 0
DWIDTH 12 0
BBX 10 11 0 -2
BITMAP
7E40
0240
0270
0440
1840
6040
0000
3FC0
2040
2040
1FC0
ENDCHAR
STARTCHAR U+AC11
ENCODING 44049
SWIDTH 935 0
DWIDTH 12 0
BBX 10 11 0 -2
BITMAP
7E40
0240
0270
0440
1840
6040
0000
2040
3FC0
2040
1FC0
ENDCHAR
STARTCHAR U+AC12
ENCODING 44050
SWIDTH 935 0
DWIDTH 12 0
BBX 10 11 0 -2
BITMAP
7E40
0240
0270
0440
1840
6040
0000
2480
3C80
2540
1E20
ENDCHAR
STARTCHAR U+AC13
ENCODING 44051
SWIDTH 935 0
DWIDTH 12 0
BBX 10 11 0 -2
BITMAP
7E40
0240
0270
0440
1840
6040
0000
0100
0280
0C40
3020
ENDCHAR
STARTCHAR U+AC14
ENCODING 44052
SWIDTH 935 0
DWIDTH 12 0
BBX 10 11 0 -2
BITMAP
7E40
0240
0270
0440
1840
6040
0000
0880
0880
1540
2220
ENDCHAR
STARTCHAR U+AC15
ENCODING 44053
SWIDTH 935 0
DWIDTH 12 0
BBX 10 11 0 -2
BITMAP
7E40
0240
0270
0440
1840
6040
0000
1F80
2040
2040
1F80
ENDCHAR
STARTCHAR U+AC16
ENCODING 44054
SWIDTH 935 0
DWIDTH 12 0
BBX 10 11 0 -2
BITMAP
7E40
0240
0270
0440
1840
6040
0000
3FE0
0100
0680
3860
ENDCHAR
STARTCHAR U+AC17
ENCODING 44055
SWIDTH 935 0
DWIDTH 12 0
BBX 10 11 0 -2
BITMAP
7E40
0240
0470
1840
6040
0040
0100
3FE0
0100
0680
3860
ENDCHAR
STARTCHAR U+AC19
ENCODING 44057
SWIDTH 935 0
DWIDTH 12 0
BBX 10 11 0 -2
BITMAP
7E40
0240
0470
1840
6040
0040
3FC0
2000
3FC0
2000
1FC0
ENDCHAR
STARTCHAR U+AC1A
ENCODING 44058
SWIDTH 935 0
DWIDTH 12 0
BBX 10 11 0 -2
BITMAP
7E40
0240
0270
0440
1840
6040
0000
3FE0
0880
0880
3FE0
ENDCHAR
STARTCHAR U+AC1B
ENCODING 44059
SWIDTH 935 0
DWIDTH 12 0
BBX 10 11 0 -2
BITMAP
7E40
0240
0470
1840
6040
0040
0700
0000
7FE0
1040
0F80
ENDCHAR
STARTCHAR U+AC1C
ENCODING 44060
SWIDTH 935 0
DWIDTH 12 0
BBX 10 11 0 -2
BITMAP
7D20
0520
0520
0520
0520
09E0
0920
1120
6120
0120
0120
ENDCHAR
STARTCHAR U+AC1D
ENCODING 44061
SWIDTH 935 0
DWIDTH 12 0
BBX 9 8 1 1
BITMAP
FA00
0A00
0B80
0A00
3200
C200
0000
3F80
ENDCHAR
STARTCHAR U+AC20
ENCODING 44064
SWIDTH 935 0
DWIDTH 12 0
BBX 10 11 0 -2
BITMAP
7D20
0520
05E0
0520
1920
6120
0020
2000
2000
2000
1FE0
ENDCHAR
STARTCHAR U+AC24
ENCODING 44068
SWIDTH 935 0
DWIDTH 12 0
BBX 10 11 0 -2
BITMAP
7D20
0520
05E0
1920
6120
0120
3FE0
0020
3FE0
2000
1FE0
ENDCHAR
STARTCHAR U+AC2C
ENCODING 44076
SWIDTH 935 0
DWIDTH 12 0
BBX 10 11 0 -2
BITMAP
7D20
0520
05E0
0520
1920
6120
0000
3FE0
2020
2020
1FE0
ENDCHAR
STARTCHAR U+AC2D
ENCODING 44077
SWIDTH 935 0
DWIDTH 12 0
BBX 10 11 0 -2
BITMAP
7D20
0520
05E0
0520
1920
6120
0000
2020
3FE0
2020
1FE0
ENDCHAR
STARTCHAR U+AC2F
ENCODING 44079
SWIDTH 935 0
DWIDTH 12 0
BBX 10 11 0 -2
BITMAP
7D20
0520
05E0
0520
1920
6120
0000
0080
0080
0340
1C30
ENDCHAR
STARTCHAR U+AC30
ENCODING 44080
SWIDTH 935 0
DWIDTH 12 0
BBX 10 11 0 -2
BITMAP
7D20
0520
05E0
0520
1920
6120
0000
0840
0840
14A0
2310
ENDCHAR
STARTCHAR U+AC31
ENCODING 44081
SWIDTH 935 0
DWIDTH 12 0
BBX 10 11 0 -2
BITMAP
7D20
0520
05E0
0520
1920
6120
0000
1FC0
2020
2020
1FC0
ENDCHAR
STARTCHAR U+AC38
ENCODING 44088
SWIDTH 935 0
DWIDTH 12 0
BBX 10 11 0 -2
BITMAP
7E40
0240
0270
0240
0240
0440
0470
0840
7040
0040
0040
ENDCHAR
STARTCHAR U+AC39
ENCODING 44089
SWIDTH 935 0
DWIDTH 12 0
BBX 10 11 0 -2
BITMAP
7E40
0270
0240
0470
1840
6040
0000
3FC0
0040
0040
0040
ENDCHAR
STARTCHAR U+AC3C
ENCODING 44092
SWIDTH 935 0
DWIDTH 12 0
BBX 10 11 0 -2
BITMAP
7E40
0270
0240
0470
1840
6040
0040
2000
2000
2000
1FC0
ENDCHAR
STARTCHAR U+AC40
ENCODING 44096
SWIDTH 935 0
DWIDTH 12 0
BBX 10 11 0 -2
BITMAP
7E40
0270
0440
1870
6040
0040
3FC0
0040
3FC0
2000
1FC0
ENDCHAR
STARTCHAR U+AC4B
ENCODING 44107
SWIDTH 935 0
DWIDTH 12 0
BBX 10 11 0 -2
BITMAP
7E40
0270
0240
0470
1840
6040
0000
0100
0280
0C40
3020
ENDCHAR
STARTCHAR U+AC4D
ENCODING 44109
SWIDTH 935 0
DWIDTH 12 0
BBX 10 11 0 -2
BITMAP
7E40
0270
0240
0470
1840
6040
0000
1F80
2040
2040
1F80
ENDCHAR
STARTCHAR U+AC54
ENCODING 44116
SWIDTH 935 0
DWIDTH 12 0
BBX 10 11 0 -2
BITMAP
7D20
0520
05E0
0520
0520
0920
09E0
1120
6120
0120
0120
ENDCHAR
STARTCHAR U+AC58
ENCODING 44120
SWIDTH 935 0
DWIDTH 12 0
BBX 10 11 0 -2
BITMAP
7D20
0520
05E0
0520
1920
6120
0020
2000
2000
2000
1FE0
ENDCHAR
STARTCHAR U+AC5C
ENCODING 44124
SWIDTH 935 0
DWIDTH 12 0
BBX 10 11 0 -2
BITMAP
7D20
0520
05E0
1920
6120
0120
3FE0
0020
3FE0
2000
1FE0
ENDCHAR
STARTCHAR U+AC70
ENCODING 44144
SWIDTH 935 0
DWIDTH 12 0
BBX 10 11 0 -2
BITMAP
7E40
0240
0240
0240
03C0
0440
0440
0840
7040
0040
0040
ENDCHAR
STARTCHAR U+AC71
ENCODING 44145
SWIDTH 935 0
DWIDTH 12 0
BBX 10 11 0 -2
BITMAP
7E40
0240
03C0
0440
1840
6040
0000
3FC0
0040
0040
0040
ENDCHAR
STARTCHAR U+AC74
ENCODING 44148
SWIDTH 935 0
DWIDTH 12 0
BBX 10 11 0 -2
BITMAP
7E40
0240
03C0
0440
1840
6040
0000
2000
2000
2000
1FC0
ENDCHAR
STARTCHAR U+AC77
ENCODING 44151
SWIDTH 935 0
DWIDTH 12 0
BBX 10 11 0 -2
BITMAP
7E40
0240
03C0
0440
1840
6040
0000
3FC0
2000
2000
1FC0
ENDCHAR
STARTCHAR U+AC78
ENCODING 44152
SWIDTH 935 0
DWIDTH 12 0
BBX 10 11 0 -2
BITMAP
7E40
0240
05C0
1840
6040
0040
3FC0
0040
3FC0
2000
1FC0
ENDCHAR
STARTCHAR U+AC7A
ENCODING 44154
SWIDTH 935 0
DWIDTH 12 0
BBX 10 11 0 -2
BITMAP
7E40
0240
05C0
1840
6040
0040
3DC0
0540
3D40
2140
1FC0
ENDCHAR
STARTCHAR U+AC80
ENCODING 44160
SWIDTH 935 0
DWIDTH 12 0
BBX 10 11 0 -2
BITMAP
7E40
0240
03C0
0440
1840
6040
0000
3FC0
2040
2040
1FC0
ENDCHAR
STARTCHAR U+AC81
ENCODING 44161
SWIDTH 935 0
DWIDTH 12 0
BBX 10 11 0 -2
BITMAP
7E40
0240
03C0
0440
1840
6040
0000
2040
3FC0
2040
1FC0
ENDCHAR
STARTCHAR U+AC83
ENCODING 44163
SWIDTH 935 0
DWIDTH 12 0
BBX 10 11 0 -2
BITMAP
7E40
0240
03C0
0440
1840
6040
0000
0200
0500
0880
3060
ENDCHAR
STARTCHAR U+AC84
ENCODING 44164
SWIDTH 935 0
DWIDTH 12 0
BBX 10 11 0 -2
BITMAP
7E40
0240
03C0
0440
1840
6040
0000
0880
0880
1540
2220
ENDCHAR
STARTCHAR U+AC85
ENCODING 44165
SWIDTH 935 0
DWIDTH 12 0
BBX 10 11 0 -2
BITMAP
7E40
0240
03C0
0440
1840
6040
0000
1F80
2040
2040
1F80
ENDCHAR
STARTCHAR U+AC86
ENCODING 44166
SWIDTH 935 0
DWIDTH 12 0
BBX 10 11 0 -2
BITMAP
7E40
0240
03C0
0440
1840
6040
0000
3FE0
0100
0680
3860
ENDCHAR
STARTCHAR U+AC89
ENCODING 44169
SWIDTH 935 0
DWIDTH 12 0
BBX 10 11 0 -2
BITMAP
7E40
0240
05C0
1840
6040
0040
3FC0
2000
3FC0
2000
1FC0
ENDCHAR
STARTCHAR U+AC8A
ENCODING 44170
SWIDTH 935 0
DWIDTH 12 0
BBX 10 11 0 -2
BITMAP
7E40
0240
03C0
0440
1840
6040
0000
3FE0
0880
0880
3FE0
ENDCHAR
STARTCHAR U+AC8B
ENCODING 44171
SWIDTH 935 0
DWIDTH 12 0
BBX 10 11 0 -2
BITMAP
7E40
0240
05C0
1840
6040
0040
0700
0000
7FE0
1040
0F80
ENDCHAR
STARTCHAR U+AC8C
ENCODING 44172
SWIDTH 935 0
DWIDTH 12 0
BBX 8 11 1 -2
BITMAP
F9
09
09
09
0F
11
11
21
C1
01
01
ENDCHAR
STARTCHAR U+AC90
ENCODING 44176
SWIDTH 935 0
DWIDTH 12 0
BBX 10 11 0 -2
BITMAP
7CA0
04A0
07A0
04A0
18A0
60A0
0000
2000
2000
2000
1FE0
ENDCHAR
STARTCHAR U+AC94
ENCODING 44180
SWIDTH 935 0
DWIDTH 12 0
BBX 10 11 0 -2
BITMAP
7CA0
04A0
05A0
18A0
60A0
00A0
3FE0
0020
3FE0
2000
1FE0
ENDCHAR
STARTCHAR U+AC9C
ENCODING 44188
SWIDTH 935 0
DWIDTH 12 0
BBX 10 11 0 -2
BITMAP
7CA0
04A0
07A0
04A0
18A0
60A0
0000
3FE0
2020
2020
1FE0
ENDCHAR
STARTCHAR U+AC9D
ENCODING 44189
SWIDTH 935 0
DWIDTH 12 0
BBX 10 11 0 -2
BITMAP
7CA0
04A0
07A0
04A0
18A0
60A0
0000
2020
3FE0
2020
1FE0
ENDCHAR
STARTCHAR U+AC9F
ENCODING 44191
SWIDTH 935 0
DWIDTH 12 0
BBX 10 11 0 -2
BITMAP
7CA0
04A0
07A0
04A0
18A0
60A0
0000
0080
0080
0340
1C30
ENDCHAR
STARTCHAR U+ACA0
ENCODING 44192
SWIDTH 935 0
DWIDTH 12 0
BBX 10 11 0 -2
BITMAP
7CA0
04A0
07A0
04A0
18A0
60A0
0000
0840
0840
14A0
2310
ENDCHAR
STARTCHAR U+ACA1
ENCODING 44193
SWIDTH 935 0
DWIDTH 12 0
BBX 10 11 0 -2
BITMAP
7CA0
04A0
07A0
04A0
18A0
60A0
0000
1FC0
2020
2020
1FC0
ENDCHAR
STARTCHAR U+ACA8
ENCODING 44200
SWIDTH 935 0
DWIDTH 12 0
BBX 10 11 0 -2
BITMAP
7E40
0240
03C0
0240
0240
05C0
0440
0840
7040
0040
0040
ENDCHAR
STARTCHAR U+ACA9
ENCODING 44201
SWIDTH 935 0
DWIDTH 12 0
BBX 10 11 0 -2
BITMAP
7E40
03C0
0240
05C0
1840
6040
0000
3FC0
0040
0040
0040
ENDCHAR
STARTCHAR U+ACAA
ENCODING 44202
SWIDTH 935 0
DWIDTH 12 0
BBX 10 11 0 -2
BITMAP
7E40
03C0
0240
05C0
1840
6040
0000
3FC0
0440
0440
0440
ENDCHAR
STARTCHAR U+ACAC
ENCODING 44204
SWIDTH 935 0
DWIDTH 12 0
BBX 10 11 0 -2
BITMAP
7E40
03C0
0240
05C0
1840
6040
0000
2000
2000
2000
1FC0
ENDCHAR
STARTCHAR U+ACAF
ENCODING 44207
SWIDTH 935 0
DWIDTH 12 0
BBX 10 11 0 -2
BITMAP
7E40
03C0
0240
05C0
1840
6040
0000
3FC0
2000
2000
1FC0
ENDCHAR
STARTCHAR U+ACB0
ENCODING 44208
SWIDTH 935 0
DWIDTH 12 0
BBX 10 11 0 -2
BITMAP
7E40
03C0
0440
19C0
6040
0040
3FC0
0040
3FC0
2000
1FC0
ENDCHAR
STARTCHAR U+ACB8
ENCODING 44216
SWIDTH 935 0
DWIDTH 12 0
BBX 10 11 0 -2
BITMAP
7E40
03C0
0240
05C0
1840
6040
0000
3FC0
2040
2040
1FC0
ENDCHAR
STARTCHAR U+ACB9
ENCODING 44217
SWIDTH 935 0
DWIDTH 12 0
BBX 10 11 0 -2
BITMAP
7E40
03C0
0240
05C0
1840
6040
0000
2040
3FC0
2040
1FC0
ENDCHAR
STARTCHAR U+ACBB
ENCODING 44219
SWIDTH 935 0
DWIDTH 12 0
BBX 10 11 0 -2
BITMAP
7E40
03C0
0240
05C0
1840
6040
0000
0200
0500
0880
3060
ENDCHAR
STARTCHAR U+ACBC
ENCODING 44220
SWIDTH 935 0
DWIDTH 12 0
BBX 10 11 0 -2
BITMAP
7E40
03C0
0240
05C0
1840
6040
0000
0880
0880
1540
2220
ENDCHAR
STARTCHAR U+ACBD
ENCODING 44221
SWIDTH 935 0
DWIDTH 12 0
BBX 10 11 0 -2
BITMAP
7E40
03C0
0240
05C0
1840
6040
0000
1F80
2040
2040
1F80
ENDCHAR
STARTCHAR U+ACC1
ENCODING 44225
SWIDTH 935 0
DWIDTH 12 0
BBX 10 11 0 -2
BITMAP
7E40
03C0
0440
19C0
6040
0040
3FC0
2000
3FC0
2000
1FC0
ENDCHAR
STARTCHAR U+ACC4
ENCODING 44228
SWIDTH 935 0
DWIDTH 12 0
BBX 8 11 1 -2
BITMAP
F9
09
0F
09
09
17
11
21
C1
01
01
ENDCHAR
STARTCHAR U+ACC8
ENCODING 44232
SWIDTH 935 0
DWIDTH 12 0
BBX 10 11 0 -2
BITMAP
7CA0
07A0
04A0
07A0
18A0
60A0
0000
2000
2000
2000
1FE0
ENDCHAR
STARTCHAR U+ACCC
ENCODING 44236
SWIDTH 935 0
DWIDTH 12 0
BBX 10 11 0 -2
BITMAP
7CA0
05A0
04A0
19A0
60A0
00A0
3FE0
0020
3FE0
2000
1FE0
ENDCHAR
STARTCHAR U+ACD5
ENCODING 44245
SWIDTH 935 0
DWIDTH 12 0
BBX 10 11 0 -2
BITMAP
7CA0
07A0
04A0
07A0
18A0
60A0
0000
2020
3FE0
2020
1FE0
ENDCHAR
STARTCHAR U+ACD7
ENCODING 44247
SWIDTH 935 0
DWIDTH 12 0
BBX 10 11 0 -2
BITMAP
7CA0
07A0
04A0
07A0
18A0
60A0
0000
0080
0080
0340
1C30
ENDCHAR
STARTCHAR U+ACE0
ENCODING 44256
SWIDTH 935 0
DWIDTH 12 0
BBX 10 10 0 -1
BITMAP
7FC0
0040
0040
0040
0040
0840
0840
0840
0800
FFC0
ENDCHAR
STARTCHAR U+ACE1
ENCODING 44257
SWIDTH 935 0
DWIDTH 12 0
BBX 10 11 0 -2
BITMAP
7FC0
0040
0040
0840
0840
FFE0
0000
7FC0
0040
0040
0040
ENDCHAR
STARTCHAR U+ACE4
ENCODING 44260
SWIDTH 935 0
DWIDTH 12 0
BBX 10 11 0 -2
BITMAP
7FC0
0040
0040
0040
0440
FFE0
0000
4000
4000
4000
3FC0
ENDCHAR
STARTCHAR U+ACE7
ENCODING 44263
SWIDTH 935 0
DWIDTH 12 0
BBX 10 11 0 -2
BITMAP
7FC0
0040
0040
0840
0840
FFE0
0000
7FC0
4000
4000
3FC0
ENDCHAR
STARTCHAR U+ACE8
ENCODING 44264
SWIDTH 935 0
DWIDTH 12 0
BBX 10 11 0 -2
BITMAP
7FC0
0040
0840
0840
FFE0
0000
7FC0
0040
7FC0
4000
3FC0
ENDCHAR
STARTCHAR U+ACEA
ENCODING 44266
SWIDTH 935 0
DWIDTH 12 0
BBX 10 11 0 -2
BITMAP
7FC0
0040
0840
0840
FFE0
0000
7BC0
0A40
7A40
4240
3FC0
ENDCHAR
STARTCHAR U+ACEC
ENCODING 44268
SWIDTH 935 0
DWIDTH 12 0
BBX 10 11 0 -2
BITMAP
7FC0
0040
0840
0840
FFE0
0000
7900
0900
7A80
4440
3820
ENDCHAR
STARTCHAR U+ACEF
ENCODING 44271
SWIDTH 935 0
DWIDTH 12 0
BBX 10 11 0 -2
BITMAP
7FC0
0040
0840
0840
FFE0
0000
7880
0FE0
7A40
4240
3980
ENDCHAR
STARTCHAR U+ACF0
ENCODING 44272
SWIDTH 935 0
DWIDTH 12 0
BBX 10 11 0 -2
BITMAP
7FC0
0040
0040
0840
0840
FFE0
0000
7FC0
4040
4040
3FC0
ENDCHAR
STARTCHAR U+ACF1
ENCODING 44273
SWIDTH 935 0
DWIDTH 12 0
BBX 10 11 0 -2
BITMAP
7FC0
0040
0040
0840
0840
FFE0
0000
4040
7FC0
4040
3FC0
ENDCHAR
STARTCHAR U+ACF3
ENCODING 44275
SWIDTH 935 0
DWIDTH 12 0
BBX 10 11 0 -2
BITMAP
7FC0
0040
0040
0840
0840
FFE0
0000
0400
0A00
1100
60C0
ENDCHAR
STARTCHAR U+ACF5
ENCODING 44277
SWIDTH 935 0
DWIDTH 12 0
BBX 10 11 0 -2
BITMAP
7FC0
0040
0040
0840
0840
FFE0
0000
3F80
4040
4040
3F80
ENDCHAR
STARTCHAR U+ACF6
ENCODING 44278
SWIDTH 935 0
DWIDTH 12 0
BBX 10 11 0 -2
BITMAP
7FC0
0040
0040
0840
0840
FFE0
0000
7FC0
0400
0A00
71C0
ENDCHAR
STARTCHAR U+ACFC
ENCODING 44284
SWIDTH 935 0
DWIDTH 12 0
BBX 10 11 0 -2
BITMAP
7F40
0140
0140
0140
1170
1140
1140
1040
7F40
0040
0040
ENDCHAR
STARTCHAR U+ACFD
ENCODING 44285
SWIDTH 935 0
DWIDTH 12 0
BBX 10 11 0 -2
BITMAP
7E40
0240
0240
1270
1240
7F40
0000
3FC0
0040
0040
0040
ENDCHAR
STARTCHAR U+AD00
ENCODING 44288
SWIDTH 935 0
DWIDTH 12 0
BBX 10 11 0 -2
BITMAP
7E40
0240
0240
0270
0A40
7F40
0000
2000
2000
2000
1FC0
ENDCHAR
STARTCHAR U+AD04
ENCODING 44292
SWIDTH 935 0
DWIDTH 12 0
BBX 10 11 0 -2
BITMAP
7E40
0240
1240
1270
7FC0
0000
3FC0
0040
3FC0
2000
1FC0
ENDCHAR
STARTCHAR U+AD06
ENCODING 44294
SWIDTH 935 0
DWIDTH 12 0
BBX 10 11 0 -2
BITMAP
7E40
0240
1240
1270
7FC0
0000
3DC0
0540
3D40
2140
1FC0
ENDCHAR
STARTCHAR U+AD0C
ENCODING 44300
SWIDTH 935 0
DWIDTH 12 0
BBX 10 11 0 -2
BITMAP
7E40
0240
0240
1270
1240
7F40
0000
3FC0
2040
2040
1FC0
ENDCHAR
STARTCHAR U+AD0D
ENCODING 44301
SWIDTH 935 0
DWIDTH 12 0
BBX 10 11 0 -2
BITMAP
7E40
0240
0240
1270
1240
7F40
0000
2040
3FC0
2040
1FC0
ENDCHAR
STARTCHAR U+AD0F
ENCODING 44303
SWIDTH 935 0
DWIDTH 12 0
BBX 10 11 0 -2
BITMAP
7E40
0240
0240
1270
1240
7F40
0000
0200
0500
0880
3060
ENDCHAR
STARTCHAR U+AD11
ENCODING 44305
SWIDTH 935 0
DWIDTH 12 0
BBX 10 11 0 -2
BITMAP
7E40
0240
0240
1270
1240
7F40
0000
1F80
2040
2040
1F80
ENDCHAR
STARTCHAR U+AD18
ENCODING 44312
SWIDTH 935 0
DWIDTH 12 0
BBX 10 11 0 -2
BITMAP
7EA0
02A0
02A0
02A0
22E0
22A0
22A0
20A0
7EA0
00A0
00A0
ENDCHAR
STARTCHAR U+AD1C
ENCODING 44316
SWIDTH 935 0
DWIDTH 12 0
BBX 10 11 0 -2
BITMAP
7CA0
04A0
04E0
04A0
10A0
7EA0
00A0
2000
2000
2000
1FE0
ENDCHAR
STARTCHAR U+AD20
ENCODING 44320
SWIDTH 935 0
DWIDTH 12 0
BBX 10 11 0 -2
BITMAP
7CA0
04A0
24E0
20A0
7EA0
0000
3FE0
0020
3FE0
2000
1FE0
ENDCHAR
STARTCHAR U+AD29
ENCODING 44329
SWIDTH 935 0
DWIDTH 12 0
BBX 10 11 0 -2
BITMAP
7CA0
04A0
04E0
24A0
20A0
7EA0
00A0
2020
3FE0
2020
1FE0
ENDCHAR
STARTCHAR U+AD2C
ENCODING 44332
SWIDTH 935 0
DWIDTH 12 0
BBX 10 11 0 -2
BITMAP
7CA0
04A0
04E0
24A0
20A0
7EA0
00A0
0880
0880
1540
2220
ENDCHAR
STARTCHAR U+AD2D
ENCODING 44333
SWIDTH 935 0
DWIDTH 12 0
BBX 10 11 0 -2
BITMAP
7CA0
04A0
04E0
24A0
20A0
7EA0
00A0
1FC0
2020
2020
1FC0
ENDCHAR
STARTCHAR U+AD34
ENCODING 44340
SWIDTH 935 0
DWIDTH 12 0
BBX 10 11 0 -2
BITMAP
7F40
0140
0140
0140
1140
1140
1140
1040
7F40
0040
0040
ENDCHAR
STARTCHAR U+AD35
ENCODING 44341
SWIDTH 935 0
DWIDTH 12 0
BBX 10 11 0 -2
BITMAP
7E40
0240
0240
1240
1240
7F40
0040
3FC0
0040
0040
0040
ENDCHAR
STARTCHAR U+AD38
ENCODING 44344
SWIDTH 935 0
DWIDTH 12 0
BBX 10 11 0 -2
BITMAP
7E40
0240
0240
0240
0A40
7F40
0040
2000
2000
2000
1FC0
ENDCHAR
STARTCHAR U+AD3C
ENCODING 44348
SWIDTH 935 0
DWIDTH 12 0
BBX 10 11 0 -2
BITMAP
7E40
0240
1240
1240
7F40
0040
3FC0
0040
3FC0
2000
1FC0
ENDCHAR
STARTCHAR U+AD44
ENCODING 44356
SWIDTH 935 0
DWIDTH 12 0
BBX 10 11 0 -2
BITMAP
7E40
0240
0240
1240
1240
7F40
0040
3FC0
2040
2040
1FC0
ENDCHAR
STARTCHAR U+AD45
ENCODING 44357
SWIDTH 935 0
DWIDTH 12 0
BBX 10 11 0 -2
BITMAP
7E40
0240
0240
1240
1240
7F40
0040
2040
3FC0
2040
1FC0
ENDCHAR
STARTCHAR U+AD47
ENCODING 44359
SWIDTH 935 0
DWIDTH 12 0
BBX 10 11 0 -2
BITMAP
7E40
0240
0240
1240
1240
7F40
0040
0200
0500
0880
3060
ENDCHAR
STARTCHAR U+AD49
ENCODING 44361
SWIDTH 935 0
DWIDTH 12 0
BBX 10 11 0 -2
BITMAP
7E40
0240
0240
1240
1240
7F40
0040
1F80
2040
2040
1F80
ENDCHAR
STARTCHAR U+AD50
ENCODING 44368
SWIDTH 935 0
DWIDTH 12 0
BBX 10 10 0 -1
BITMAP
7FC0
0040
0040
0040
2240
2240
2240
2240
2200
FFC0
ENDCHAR
STARTCHAR U+AD54
ENCODING 44372
SWIDTH 935 0
DWIDTH 12 0
BBX 10 11 0 -2
BITMAP
7FC0
0040
0040
0040
1140
FFE0
0000
4000
4000
4000
3FC0
ENDCHAR
STARTCHAR U+AD58
ENCODING 44376
SWIDTH 935 0
DWIDTH 12 0
BBX 10 11 0 -2
BITMAP
7FC0
0040
2240
2240
FFE0
0000
7FC0
0040
7FC0
4000
3FC0
ENDCHAR
STARTCHAR U+AD61
ENCODING 44385
SWIDTH 935 0
DWIDTH 12 0
BBX 10 11 0 -2
BITMAP
7FC0
0040
0040
2240
2240
FFE0
0000
4040
7FC0
4040
3FC0
ENDCHAR
STARTCHAR U+AD63
ENCODING 44387
SWIDTH 935 0
DWIDTH 12 0
BBX 10 11 0 -2
BITMAP
7FC0
0040
0040
2240
2240
FFE0
0000
0400
0A00
1100
60C0
ENDCHAR
STARTCHAR U+AD6C
ENCODING 44396
SWIDTH 935 0
DWIDTH 12 0
BBX 10 11 0 -2
BITMAP
7FC0
0040
0040
0040
0040
0040
FFE0
0400
0400
0400
0400
ENDCHAR
STARTCHAR U+AD6D
ENCODING 44397
SWIDTH 935 0
DWIDTH 12 0
BBX 10 11 0 -2
BITMAP
7FC0
0040
0040
0040
0000
FFE0
0400
7FC0
0040
0040
0040
ENDCHAR
STARTCHAR U+AD70
ENCODING 44400
SWIDTH 935 0
DWIDTH 12 0
BBX 10 11 0 -2
BITMAP
7FC0
0040
0040
0040
0000
FFE0
0400
4400
4000
4000
3FC0
ENDCHAR
STARTCHAR U+AD73
ENCODING 44403
SWIDTH 935 0
DWIDTH 12 0
BBX 10 11 0 -2
BITMAP
7FC0
0040
0040
0040
0000
FFE0
0400
7FC0
4000
4000
3FC0
ENDCHAR
STARTCHAR U+AD74
ENCODING 44404
SWIDTH 935 0
DWIDTH 12 0
BBX 10 11 0 -2
BITMAP
7FC0
0040
0040
0040
FFE0
0400
7FC0
0040
7FC0
4000
3FC0
ENDCHAR
STARTCHAR U+AD75
ENCODING 44405
SWIDTH 935 0
DWIDTH 12 0
BBX 10 11 0 -2
BITMAP
7FC0
0040
0040
0040
FFE0
0400
7BC0
0840
7840
4040
3C40
ENDCHAR
STARTCHAR U+AD76
ENCODING 44406
SWIDTH 935 0
DWIDTH 12 0
BBX 10 11 0 -2
BITMAP
7FC0
0040
0040
0040
FFE0
0400
7BC0
0A40
7A40
4240
3FC0
ENDCHAR
STARTCHAR U+AD7B
ENCODING 44411
SWIDTH 935 0
DWIDTH 12 0
BBX 10 11 0 -2
BITMAP
7FC0
0040
0040
0040
FFE0
0400
7880
0FE0
7A40
4240
3980
ENDCHAR
STARTCHAR U+AD7C
ENCODING 44412
SWIDTH 935 0
DWIDTH 12 0
BBX 10 11 0 -2
BITMAP
7FC0
0040
0040
0040
0000
FFE0
0400
7FC0
4040
4040
3FC0
ENDCHAR
STARTCHAR U+AD7D
ENCODING 44413
SWIDTH 935 0
DWIDTH 12 0
BBX 10 11 0 -2
BITMAP
7FC0
0040
0040
0040
0000
FFE0
0400
4040
7FC0
4040
3FC0
ENDCHAR
STARTCHAR U+AD7F
ENCODING 44415
SWIDTH 935 0
DWIDTH 12 0
BBX 10 11 0 -2
BITMAP
7FC0
0040
0040
0040
0000
FFE0
0400
0400
0A00
1100
60C0
ENDCHAR
STARTCHAR U+AD81
ENCODING 44417
SWIDTH 935 0
DWIDTH 12 0
BBX 10 11 0 -2
BITMAP
7FC0
0040
0040
0040
0000
FFE0
0400
3F80
4040
4040
3F80
ENDCHAR
STARTCHAR U+AD82
ENCODING 44418
SWIDTH 935 0
DWIDTH 12 0
BBX 10 11 0 -2
BITMAP
7FC0
0040
0040
0040
0000
FFE0
0400
7FC0
0400
0A00
71C0
ENDCHAR
STARTCHAR U+AD88
ENCODING 44424
SWIDTH 935 0
DWIDTH 12 0
BBX 10 11 0 -2
BITMAP
7E40
0240
0240
0240
0240
0040
7F40
0840
0BC0
0840
0840
ENDCHAR
STARTCHAR U+AD89
ENCODING 44425
SWIDTH 935 0
DWIDTH 12 0
BBX 10 11 0 -2
BITMAP
7E40
0240
02C0
0240
0040
7F40
0840
3FC0
0040
0040
0040
ENDCHAR
STARTCHAR U+AD8C
ENCODING 44428
SWIDTH 935 0
DWIDTH 12 0
BBX 10 11 0 -2
BITMAP
7E40
0240
02C0
0240
0040
7F40
0840
2040
2000
2000
1FC0
ENDCHAR
STARTCHAR U+AD90
ENCODING 44432
SWIDTH 935 0
DWIDTH 12 0
BBX 10 11 0 -2
BITMAP
7E40
0240
02C0
0240
7F40
0840
3FC0
0040
3FC0
2000
1FC0
ENDCHAR
STARTCHAR U+AD9C
ENCODING 44444
SWIDTH 935 0
DWIDTH 12 0
BBX 10 11 0 -2
BITMAP
7E40
0240
02C0
0240
0040
7F40
0840
0880
0880
1540
2220
ENDCHAR
STARTCHAR U+AD9D
ENCODING 44445
SWIDTH 935 0
DWIDTH 12 0
BBX 10 11 0 -2
BITMAP
7E40
0240
02C0
0240
0040
7F40
0840
1F80
2040
2040
1F80
ENDCHAR
STARTCHAR U+ADA4
ENCODING 44452
SWIDTH 935 0
DWIDTH 12 0
BBX 8 11 1 -2
BITMAP
FD
05
05
05
05
01
FD
21
27
21
21
ENDCHAR
STARTCHAR U+ADB7
ENCODING 44471
SWIDTH 935 0
DWIDTH 12 0
BBX 10 11 0 -2
BITMAP
7CA0
04A0
05A0
04A0
00A0
7EA0
10A0
0100
0100
0680
3860
ENDCHAR
STARTCHAR U+ADC0
ENCODING 44480
SWIDTH 935 0
DWIDTH 12 0
BBX 10 11 0 -2
BITMAP
7E40
0240
0240
0240
0240
0040
7F40
0840
0840
0840
0840
ENDCHAR
STARTCHAR U+ADC1
ENCODING 44481
SWIDTH 935 0
DWIDTH 12 0
BBX 10 11 0 -2
BITMAP
7E40
0240
0240
0240
0040
7FC0
0840
3FC0
0040
0040
0040
ENDCHAR
STARTCHAR U+ADC4
ENCODING 44484
SWIDTH 935 0
DWIDTH 12 0
BBX 10 11 0 -2
BITMAP
7E40
0240
0240
0240
0040
7FC0
0840
2000
2000
2000
1FC0
ENDCHAR
STARTCHAR U+ADC8
ENCODING 44488
SWIDTH 935 0
DWIDTH 12 0
BBX 10 11 0 -2
BITMAP
7E40
0240
0240
0240
0040
7FC0
3FC0
0040
3FC0
2000
1FC0
ENDCHAR
STARTCHAR U+ADD0
ENCODING 44496
SWIDTH 935 0
DWIDTH 12 0
BBX 10 11 0 -2
BITMAP
7E40
0240
0240
0240
0040
7FC0
0840
3FC0
2040
2040
1FC0
ENDCHAR
STARTCHAR U+ADD1
ENCODING 44497
SWIDTH 935 0
DWIDTH 12 0
BBX 10 11 0 -2
BITMAP
7E40
0240
0240
0240
0040
7FC0
0840
2040
3FC0
2040
1FC0
ENDCHAR
STARTCHAR U+ADD3
ENCODING 44499
SWIDTH 935 0
DWIDTH 12 0
BBX 10 11 0 -2
BITMAP
7E40
0240
0240
0240
0040
7FC0
0840
0200
0500
0880
3060
ENDCHAR
STARTCHAR U+ADDC
ENCODING 44508
SWIDTH 935 0
DWIDTH 12 0
BBX 10 11 0 -2
BITMAP
7FC0
0040
0040
0040
0040
0040
FFE0
1100
1100
1100
1100
ENDCHAR
STARTCHAR U+ADE0
ENCODING 44512
SWIDTH 935 0
DWIDTH 12 0
BBX 10 11 0 -2
BITMAP
7FC0
0040
0040
0040
0000
FFE0
1100
5100
4000
4000
3FC0
ENDCHAR
STARTCHAR U+ADE4
ENCODING 44516
SWIDTH 935 0
DWIDTH 12 0
BBX 10 11 0 -2
BITMAP
7FC0
0040
0040
0040
FFE0
1100
7FC0
0040
7FC0
4000
3FC0
ENDCHAR
STARTCHAR U+ADF8
ENCODING 44536
SWIDTH 935 0
DWIDTH 12 0
BBX 10 10 0 -1
BITMAP
7FC0
0040
0040
0040
0040
0040
0040
0040
0000
FFC0
ENDCHAR
STARTCHAR U+ADF9
ENCODING 44537
SWIDTH 935 0
DWIDTH 12 0
BBX 10 11 0 -2
BITMAP
7FC0
0040
0040
0040
0040
FFE0
0000
7FC0
0040
0040
0040
ENDCHAR
STARTCHAR U+ADFC
ENCODING 44540
SWIDTH 935 0
DWIDTH 12 0
BBX 10 11 0 -2
BITMAP
7FC0
0040
0040
0040
0040
FFE0
0000
4000
4000
4000
3FC0
ENDCHAR
STARTCHAR U+ADFF
ENCODING 44543
SWIDTH 935 0
DWIDTH 12 0
BBX 10 11 0 -2
BITMAP
7FC0
0040
0040
0040
0040
FFE0
0000
7FC0
4000
4000
3FC0
ENDCHAR
STARTCHAR U+AE00
ENCODING 44544
SWIDTH 935 0
DWIDTH 12 0
BBX 10 11 0 -2
BITMAP
7FC0
0040
0040
0040
FFE0
0000
7FC0
0040
7FC0
4000
3FC0
ENDCHAR
STARTCHAR U+AE01
ENCODING 44545
SWIDTH 935 0
DWIDTH 12 0
BBX 10 11 0 -2
BITMAP
7FC0
0040
0040
0040
FFE0
0000
7BC0
0840
7840
4040
3C40
ENDCHAR
STARTCHAR U+AE08
ENCODING 44552
SWIDTH 935 0
DWIDTH 12 0
BBX 10 11 0 -2
BITMAP
7FC0
0040
0040
0040
0040
FFE0
0000
7FC0
4040
4040
3FC0
ENDCHAR
STARTCHAR U+AE09
ENCODING 44553
SWIDTH 935 0
DWIDTH 12 0
BBX 10 11 0 -2
BITMAP
7FC0
0040
0040
0040
0040
FFE0
0000
4040
7FC0
4040
3FC0
ENDCHAR
STARTCHAR U+AE0B
ENCODING 44555
SWIDTH 935 0
DWIDTH 12 0
BBX 10 11 0 -2
BITMAP
7FC0
0040
0040
0040
0040
FFE0
0000
0400
0A00
1100
60C0
ENDCHAR
STARTCHAR U+AE0D
ENCODING 44557
SWIDTH 935 0
DWIDTH 12 0
BBX 10 11 0 -2
BITMAP
7FC0
0040
0040
0040
0040
FFE0
0000
3F80
4040
4040
3F80
ENDCHAR
STARTCHAR U+AE14
ENCODING 44564
SWIDTH 935 0
DWIDTH 12 0
BBX 10 11 0 -2
BITMAP
7F40
0140
0140
0140
0140
0140
0140
0040
7FC0
0040
0040
ENDCHAR
STARTCHAR U+AE30
ENCODING 44592
SWIDTH 935 0
DWIDTH 12 0
BBX 10 11 0 -2
BITMAP
7E40
0240
0240
0240
0240
0440
0440
0840
7040
0040
0040
ENDCHAR
STARTCHAR U+AE31
ENCODING 44593
SWIDTH 935 0
DWIDTH 12 0
BBX 10 11 0 -2
BITMAP
7E40
0240
0240
0440
1840
6040
0000
3FC0
0040
0040
0040
ENDCHAR
STARTCHAR U+AE34
ENCODING 44596
SWIDTH 935 0
DWIDTH 12 0
BBX 10 11 0 -2
BITMAP
7E40
0240
0240
0440
1840
6040
0040
2000
2000
2000
1FC0
ENDCHAR
STARTCHAR U+AE37
ENCODING 44599
SWIDTH 935 0
DWIDTH 12 0
BBX 10 11 0 -2
BITMAP
7E40
0240
0240
0440
1840
6040
0000
3FC0
2000
2000
1FC0
ENDCHAR
STARTCHAR U+AE38
ENCODING 44600
SWIDTH 935 0
DWIDTH 12 0
BBX 10 11 0 -2
BITMAP
7E40
0240
0440
1840
6040
0040
3FC0
0040
3FC0
2000
1FC0
ENDCHAR
STARTCHAR U+AE3A
ENCODING 44602
SWIDTH 935 0
DWIDTH 12 0
BBX 10 11 0 -2
BITMAP
7E40
0240
0440
1840
6040
0040
3DC0
0540
3D40
2140
1FC0
ENDCHAR
STARTCHAR U+AE40
ENCODING 44608
SWIDTH 935 0
DWIDTH 12 0
BBX 10 11 0 -2
BITMAP
7E40
0240
0240
0440
1840
6040
0000
3FC0
2040
2040
1FC0
ENDCHAR
STARTCHAR U+AE41
ENCODING 44609
SWIDTH 935 0
DWIDTH 12 0
BBX 10 11 0 -2
BITMAP
7E40
0240
0240
0440
1840
6040
0000
2040
3FC0
2040
1FC0
ENDCHAR
STARTCHAR U+AE43
ENCODING 44611
SWIDTH 935 0
DWIDTH 12 0
BBX 10 11 0 -2
BITMAP
7E40
0240
0240
0440
1840
6040
0000
0100
0280
0C40
3020
ENDCHAR
STARTCHAR U+AE45
ENCODING 44613
SWIDTH 935 0
DWIDTH 12 0
BBX 10 11 0 -2
BITMAP
7E40
0240
0240
0440
1840
6040
0000
1F80
2040
2040
1F80
ENDCHAR
STARTCHAR U+AE46
ENCODING 44614
SWIDTH 935 0
DWIDTH 12 0
BBX 10 11 0 -2
BITMAP
7E40
0240
0240
0440
1840
6040
0000
3FE0
0100
0680
3860
ENDCHAR
STARTCHAR U+AE4A
ENCODING 44618
SWIDTH 935 0
DWIDTH 12 0
BBX 10 11 0 -2
BITMAP
7E40
0240
0240
0440
1840
6040
0000
3FE0
0880
0880
3FE0
ENDCHAR
STARTCHAR U+AE4C
ENCODING 44620
SWIDTH 935 0
DWIDTH 12 0
BBX 10 11 0 -2
BITMAP
7740
1140
1140
1140
1170
1140
2140
2240
4240
0440
0040
ENDCHAR
STARTCHAR U+AE4D
ENCODING 44621
SWIDTH 935 0
DWIDTH 12 0
BBX 10 11 0 -2
BITMAP
7E40
1240
1270
1240
2240
4440
0000
3FC0
0040
0040
0040
ENDCHAR
STARTCHAR U+AE4E
ENCODING 44622
SWIDTH 935 0
DWIDTH 12 0
BBX 10 11 0 -2
BITMAP
7E40
1240
1270
1240
2240
4440
0000
3FC0
0440
0440
0440
ENDCHAR
STARTCHAR U+AE50
ENCODING 44624
SWIDTH 935 0
DWIDTH 12 0
BBX 10 11 0 -2
BITMAP
7E40
1240
1240
1270
2240
4440
0040
2000
2000
2000
1FC0
ENDCHAR
STARTCHAR U+AE54
ENCODING 44628
SWIDTH 935 0
DWIDTH 12 0
BBX 10 11 0 -2
BITMAP
7E40
1240
1270
2240
4440
0040
3FC0
0040
3FC0
2000
1FC0
ENDCHAR
STARTCHAR U+AE56
ENCODING 44630
SWIDTH 935 0
DWIDTH 12 0
BBX 10 11 0 -2
BITMAP
7E40
1240
1270
2240
4440
0040
3DC0
0540
3D40
2140
1FC0
ENDCHAR
STARTCHAR U+AE5C
ENCODING 44636
SWIDTH 935 0
DWIDTH 12 0
BBX 10 11 0 -2
BITMAP
7E40
1240
1270
1240
2240
4440
0000
3FC0
2040
2040
1FC0
ENDCHAR
STARTCHAR U+AE5D
ENCODING 44637
SWIDTH 935 0
DWIDTH 12 0
BBX 10 11 0 -2
BITMAP
7E40
1240
1270
1240
2240
4440
0000
2040
3FC0
2040
1FC0
ENDCHAR
STARTCHAR U+AE5F
ENCODING 44639
SWIDTH 935 0
DWIDTH 12 0
BBX 10 11 0 -2
BITMAP
7E40
1240
1270
1240
2240
4440
0000
0100
0280
0C40
3020
ENDCHAR
STARTCHAR U+AE60
ENCODING 44640
SWIDTH 935 0
DWIDTH 12 0
BBX 10 11 0 -2
BITMAP
7E40
1240
1270
1240
2240
4440
0000
0880
0880
1540
2220
ENDCHAR
STARTCHAR U+AE61
ENCODING 44641
SWIDTH 935 0
DWIDTH 12 0
BBX 10 11 0 -2
BITMAP
7E40
1240
1270
1240
2240
4440
0000
1F80
2040
2040
1F80
ENDCHAR
STARTCHAR U+AE65
ENCODING 44645
SWIDTH 935 0
DWIDTH 12 0
BBX 10 11 0 -2
BITMAP
7E40
1240
1270
2240
4440
0040
3FC0
2000
3FC0
2000
1FC0
ENDCHAR
STARTCHAR U+AE68
ENCODING 44648
SWIDTH 935 0
DWIDTH 12 0
BBX 10 11 0 -2
BITMAP
FD20
2520
2520
2520
2520
25E0
4520
4920
8920
1120
0120
ENDCHAR
STARTCHAR U+AE69
ENCODING 44649
SWIDTH 935 0
DWIDTH 12 0
BBX 9 8 1 1
BITMAP
FE00
2600
2780
4A00
9200
2200
0000
3F80
ENDCHAR
STARTCHAR U+AE6C
ENCODING 44652
SWIDTH 935 0
DWIDTH 12 0
BBX 10 11 0 -2
BITMAP
7F20
1320
13E0
2520
4920
1120
0020
2000
2000
2000
1FE0
ENDCHAR
STARTCHAR U+AE70
ENCODING 44656
SWIDTH 935 0
DWIDTH 12 0
BBX 10 11 0 -2
BITMAP
7F20
1320
13E0
2520
4920
0120
3FE0
0020
3FE0
2000
1FE0
ENDCHAR
STARTCHAR U+AE78
ENCODING 44664
SWIDTH 935 0
DWIDTH 12 0
BBX 10 11 0 -2
BITMAP
7F20
1320
13E0
2520
4920
1120
0000
3FE0
2020
2020
1FE0
ENDCHAR
STARTCHAR U+AE79
ENCODING 44665
SWIDTH 935 0
DWIDTH 12 0
BBX 10 11 0 -2
BITMAP
7F20
1320
13E0
2520
4920
1120
0000
2020
3FE0
2020
1FE0
ENDCHAR
STARTCHAR U+AE7B
ENCODING 44667
SWIDTH 935 0
DWIDTH 12 0
BBX 10 11 0 -2
BITMAP
7F20
1320
13E0
2520
4920
1120
0000
0080
0080
0340
1C30
ENDCHAR
STARTCHAR U+AE7C
ENCODING 44668
SWIDTH 935 0
DWIDTH 12 0
BBX 10 11 0 -2
BITMAP
7F20
1320
13E0
2520
4920
1120
0000
0840
0840
14A0
2310
ENDCHAR
STARTCHAR U+AE7D
ENCODING 44669
SWIDTH 935 0
DWIDTH 12 0
BBX 10 11 0 -2
BITMAP
7F20
1320
13E0
2520
4920
1120
0000
1FC0
2020
2020
1FC0
ENDCHAR
STARTCHAR U+AE84
ENCODING 44676
SWIDTH 935 0
DWIDTH 12 0
BBX 10 11 0 -2
BITMAP
7740
1140
1170
1140
1140
1140
2170
2240
4240
0440
0040
ENDCHAR
STARTCHAR U+AE85
ENCODING 44677
SWIDTH 935 0
DWIDTH 12 0
BBX 10 11 0 -2
BITMAP
7E40
1270
1240
1270
2240
4440
0000
3FC0
0040
0040
0040
ENDCHAR
STARTCHAR U+AE8C
ENCODING 44684
SWIDTH 935 0
DWIDTH 12 0
BBX 10 11 0 -2
BITMAP
7E40
1270
1240
2270
4440
0040
3FC0
0040
3FC0
2000
1FC0
ENDCHAR
STARTCHAR U+AEBC
ENCODING 44732
SWIDTH 935 0
DWIDTH 12 0
BBX 10 11 0 -2
BITMAP
7740
1140
1140
11C0
1140
1140
2140
2240
4240
0440
0040
ENDCHAR
STARTCHAR U+AEBD
ENCODING 44733
SWIDTH 935 0
DWIDTH 12 0
BBX 10 11 0 -2
BITMAP
7E40
1240
13C0
1240
2240
4440
0000
3FC0
0040
0040
0040
ENDCHAR
STARTCHAR U+AEBE
ENCODING 44734
SWIDTH 935 0
DWIDTH 12 0
BBX 10 11 0 -2
BITMAP
7E40
1240
13C0
1240
2240
4440
0000
3FC0
0440
0440
0440
ENDCHAR
STARTCHAR U+AEC0
ENCODING 44736
SWIDTH 935 0
DWIDTH 12 0
BBX 10 11 0 -2
BITMAP
7E40
1240
13C0
1240
2240
4440
0040
2000
2000
2000
1FC0
ENDCHAR
STARTCHAR U+AEC4
ENCODING 44740
SWIDTH 935 0
DWIDTH 12 0
BBX 10 11 0 -2
BITMAP
7E40
1240
13C0
2240
4440
0040
3FC0
0040
3FC0
2000
1FC0
ENDCHAR
STARTCHAR U+AECC
ENCODING 44748
SWIDTH 935 0
DWIDTH 12 0
BBX 10 11 0 -2
BITMAP
7E40
1240
13C0
1240
2240
4440
0000
3FC0
2040
2040
1FC0
ENDCHAR
STARTCHAR U+AECD
ENCODING 44749
SWIDTH 935 0
DWIDTH 12 0
BBX 10 11 0 -2
BITMAP
7E40
1240
13C0
1240
2240
4440
0000
2040
3FC0
2040
1FC0
ENDCHAR
STARTCHAR U+AECF
ENCODING 44751
SWIDTH 935 0
DWIDTH 12 0
BBX 10 11 0 -2
BITMAP
7E40
1240
13C0
1240
2240
4440
0000
0200
0500
0880
3060
ENDCHAR
STARTCHAR U+AED0
ENCODING 44752
SWIDTH 935 0
DWIDTH 12 0
BBX 10 11 0 -2
BITMAP
7E40
1240
13C0
1240
2240
4440
0000
0880
0880
1540
2220
ENDCHAR
STARTCHAR U+AED1
ENCODING 44753
SWIDTH 935 0
DWIDTH 12 0
BBX 10 11 0 -2
BITMAP
7E40
1240
13C0
1240
2240
4440
0000
1F80
2040
2040
1F80
ENDCHAR
STARTCHAR U+AED8
ENCODING 44760
SWIDTH 935 0
DWIDTH 12 0
BBX 10 11 0 -2
BITMAP
FCA0
24A0
24A0
24A0
27A0
24A0
44A0
48A0
88A0
10A0
00A0
ENDCHAR
STARTCHAR U+AED9
ENCODING 44761
SWIDTH 935 0
DWIDTH 12 0
BBX 9 8 1 1
BITMAP
FD00
2500
2700
4900
9100
2100
0000
3F80
ENDCHAR
STARTCHAR U+AEDC
ENCODING 44764
SWIDTH 935 0
DWIDTH 12 0
BBX 10 11 0 -2
BITMAP
7EA0
12A0
13A0
24A0
48A0
10A0
0020
2000
2000
2000
1FE0
ENDCHAR
STARTCHAR U+AEE8
ENCODING 44776
SWIDTH 935 0
DWIDTH 12 0
BBX 10 11 0 -2
BITMAP
7EA0
12A0
13A0
24A0
48A0
10A0
0000
3FE0
2020
2020
1FE0
ENDCHAR
STARTCHAR U+AEEB
ENCODING 44779
SWIDTH 935 0
DWIDTH 12 0
BBX 10 11 0 -2
BITMAP
7EA0
12A0
13A0
24A0
48A0
10A0
0000
0080
0080
0340
1C30
ENDCHAR
STARTCHAR U+AEED
ENCODING 44781
SWIDTH 935 0
DWIDTH 12 0
BBX 10 11 0 -2
BITMAP
7EA0
12A0
13A0
24A0
48A0
10A0
0000
1FC0
2020
2020
1FC0
ENDCHAR
STARTCHAR U+AEF4
ENCODING 44788
SWIDTH 935 0
DWIDTH 12 0
BBX 10 11 0 -2
BITMAP
7740
1140
11C0
1140
1140
11C0
2140
2240
4240
0440
0040
ENDCHAR
STARTCHAR U+AEF8
ENCODING 44792
SWIDTH 935 0
DWIDTH 12 0
BBX 10 11 0 -2
BITMAP
7E40
13C0
1240
13C0
2240
4440
0040
2000
2000
2000
1FC0
ENDCHAR
STARTCHAR U+AEFC
ENCODING 44796
SWIDTH 935 0
DWIDTH 12 0
BBX 10 11 0 -2
BITMAP
7E40
13C0
1240
23C0
4440
0040
3FC0
0040
3FC0
2000
1FC0
ENDCHAR
STARTCHAR U+AF07
ENCODING 44807
SWIDTH 935 0
DWIDTH 12 0
BBX 10 11 0 -2
BITMAP
7E40
13C0
1240
13C0
2240
4440
0000
0200
0500
0880
3060
ENDCHAR
STARTCHAR U+AF08
ENCODING 44808
SWIDTH 935 0
DWIDTH 12 0
BBX 10 11 0 -2
BITMAP
7E40
13C0
1240
13C0
2240
4440
0000
0880
0880
1540
2220
ENDCHAR
STARTCHAR U+AF0D
ENCODING 44813
SWIDTH 935 0
DWIDTH 12 0
BBX 10 11 0 -2
BITMAP
7E40
13C0
1240
23C0
4440
0040
3FC0
2000
3FC0
2000
1FC0
ENDCHAR
STARTCHAR U+AF10
ENCODING 44816
SWIDTH 935 0
DWIDTH 12 0
BBX 10 11 0 -2
BITMAP
FCA0
24A0
27A0
24A0
24A0
27A0
44A0
48A0
88A0
10A0
00A0
ENDCHAR
STARTCHAR U+AF2C
ENCODING 44844
SWIDTH 935 0
DWIDTH 12 0
BBX 10 10 0 -1
BITMAP
7BC0
0840
0840
0840
0840
1040
2040
4480
0400
FFC0
ENDCHAR
STARTCHAR U+AF2D
ENCODING 44845
SWIDTH 935 0
DWIDTH 12 0
BBX 10 11 0 -2
BITMAP
7BC0
0840
0840
1040
2440
FFE0
0000
7FC0
0040
0040
0040
ENDCHAR
STARTCHAR U+AF30
ENCODING 44848
SWIDTH 935 0
DWIDTH 12 0
BBX 10 11 0 -2
BITMAP
7BC0
0840
0840
1040
2040
0400
FFE0
4000
4000
4000
3FC0
ENDCHAR
STARTCHAR U+AF32
ENCODING 44850
SWIDTH 935 0
DWIDTH 12 0
BBX 10 11 0 -2
BITMAP
7BC0
0840
0840
1040
2440
FFE0
0100
47E0
4240
4240
3980
ENDCHAR
STARTCHAR U+AF34
ENCODING 44852
SWIDTH 935 0
DWIDTH 12 0
BBX 10 11 0 -2
BITMAP
7BC0
0840
1040
2440
FFE0
0000
7FC0
0040
7FC0
4000
3FC0
ENDCHAR
STARTCHAR U+AF3C
ENCODING 44860
SWIDTH 935 0
DWIDTH 12 0
BBX 10 11 0 -2
BITMAP
7BC0
0840
0840
1040
2440
FFE0
0000
7FC0
4040
4040
3FC0
ENDCHAR
STARTCHAR U+AF3D
ENCODING 44861
SWIDTH 935 0
DWIDTH 12 0
BBX 10 11 0 -2
BITMAP
7BC0
0840
0840
1040
2440
FFE0
0000
4040
7FC0
4040
3FC0
ENDCHAR
STARTCHAR U+AF3F
ENCODING 44863
SWIDTH 935 0
DWIDTH 12 0
BBX 10 11 0 -2
BITMAP
7BC0
0840
0840
1040
2440
FFE0
0000
0400
0A00
1100
60C0
ENDCHAR
STARTCHAR U+AF41
ENCODING 44865
SWIDTH 935 0
DWIDTH 12 0
BBX 10 11 0 -2
BITMAP
7BC0
0840
0840
1040
2440
FFE0
0000
3F80
4040
4040
3F80
ENDCHAR
STARTCHAR U+AF42
ENCODING 44866
SWIDTH 935 0
DWIDTH 12 0
BBX 10 11 0 -2
BITMAP
7BC0
0840
0840
1040
2440
FFE0
0000
7FC0
0400
0A00
71C0
ENDCHAR
STARTCHAR U+AF43
ENCODING 44867
SWIDTH 935 0
DWIDTH 12 0
BBX 10 11 0 -2
BITMAP
7BC0
0840
1040
2440
FFE0
0000
0200
7FC0
0400
1B00
60C0
ENDCHAR
STARTCHAR U+AF48
ENCODING 44872
SWIDTH 935 0
DWIDTH 12 0
BBX 10 11 0 -2
BITMAP
7740
1140
1140
1140
2170
4140
0840
0840
7F40
0040
0040
ENDCHAR
STARTCHAR U+AF49
ENCODING 44873
SWIDTH 935 0
DWIDTH 12 0
BBX 10 11 0 -2
BITMAP
7740
1140
2140
4170
0840
7F40
0000
3FC0
0040
0040
0040
ENDCHAR
STARTCHAR U+AF50
ENCODING 44880
SWIDTH 935 0
DWIDTH 12 0
BBX 10 11 0 -2
BITMAP
7740
1140
2140
0870
7FC0
0000
3FC0
0040
3FC0
2000
1FC0
ENDCHAR
STARTCHAR U+AF5C
ENCODING 44892
SWIDTH 935 0
DWIDTH 12 0
BBX 10 11 0 -2
BITMAP
7740
1140
2140
4170
0840
7F40
0000
0880
0880
1540
2220
ENDCHAR
STARTCHAR U+AF5D
ENCODING 44893
SWIDTH 935 0
DWIDTH 12 0
BBX 10 11 0 -2
BITMAP
7740
1140
2140
4170
0840
7F40
0000
1F80
2040
2040
1F80
ENDCHAR
STARTCHAR U+AF64
ENCODING 44900
SWIDTH 935 0
DWIDTH 12 0
BBX 10 11 0 -2
BITMAP
7EA0
12A0
12A0
12A0
22E0
42A0
10A0
10A0
7EA0
00A0
00A0
ENDCHAR
STARTCHAR U+AF65
ENCODING 44901
SWIDTH 935 0
DWIDTH 12 0
BBX 9 8 1 1
BITMAP
FD00
2500
4580
8500
2100
FD00
0100
3F80
ENDCHAR
STARTCHAR U+AF79
ENCODING 44921
SWIDTH 935 0
DWIDTH 12 0
BBX 10 11 0 -2
BITMAP
7EA0
12A0
22E0
42A0
10A0
7EA0
00A0
1FC0
2020
2020
1FC0
ENDCHAR
STARTCHAR U+AF80
ENCODING 44928
SWIDTH 935 0
DWIDTH 12 0
BBX 10 11 0 -2
BITMAP
7740
1140
1140
1140
2140
4140
0840
0840
7F40
0040
0040
ENDCHAR
STARTCHAR U+AF84
ENCODING 44932
SWIDTH 935 0
DWIDTH 12 0
BBX 10 11 0 -2
BITMAP
7740
1140
2140
4140
0840
7F40
0040
2040
2000
2000
1FC0
ENDCHAR
STARTCHAR U+AF88
ENCODING 44936
SWIDTH 935 0
DWIDTH 12 0
BBX 10 11 0 -2
BITMAP
7740
1140
2140
0840
7F40
0040
3FC0
0040
3FC0
2000
1FC0
ENDCHAR
STARTCHAR U+AF90
ENCODING 44944
SWIDTH 935 0
DWIDTH 12 0
BBX 10 11 0 -2
BITMAP
7740
1140
2140
4140
0840
7F40
0040
3FC0
2040
2040
1FC0
ENDCHAR
STARTCHAR U+AF91
ENCODING 44945
SWIDTH 935 0
DWIDTH 12 0
BBX 10 11 0 -2
BITMAP
7740
1140
2140
4140
0840
7F40
0040
2040
3FC0
2040
1FC0
ENDCHAR
STARTCHAR U+AF95
ENCODING 44949
SWIDTH 935 0
DWIDTH 12 0
BBX 10 11 0 -2
BITMAP
7740
1140
2140
4140
0840
7F40
0040
1F80
2040
2040
1F80
ENDCHAR
STARTCHAR U+AF9C
ENCODING 44956
SWIDTH 935 0
DWIDTH 12 0
BBX 10 10 0 -1
BITMAP
7BC0
0840
0840
0840
0840
1040
2040
5180
1100
FFC0
ENDCHAR
STARTCHAR U+AFB8
ENCODING 44984
SWIDTH 935 0
DWIDTH 12 0
BBX 10 11 0 -2
BITMAP
7BC0
0840
0840
0840
0840
0840
FFE0
0400
0400
0400
0400
ENDCHAR
STARTCHAR U+AFB9
ENCODING 44985
SWIDTH 935 0
DWIDTH 12 0
BBX 10 11 0 -2
BITMAP
7BC0
0840
0840
0840
0000
FFE0
0400
7FC0
0040
0040
0040
ENDCHAR
STARTCHAR U+AFBC
ENCODING 44988
SWIDTH 935 0
DWIDTH 12 0
BBX 10 11 0 -2
BITMAP
7BC0
0840
0840
0840
0000
0000
FFE0
4400
4400
4000
3FC0
ENDCHAR
STARTCHAR U+AFC0
ENCODING 44992
SWIDTH 935 0
DWIDTH 12 0
BBX 10 11 0 -2
BITMAP
7BC0
0840
0840
0840
FFE0
0400
7FC0
0040
7FC0
4000
3FC0
ENDCHAR
STARTCHAR U+AFC7
ENCODING 44999
SWIDTH 935 0
DWIDTH 12 0
BBX 10 11 0 -2
BITMAP
7BC0
0840
0840
0840
FFE0
0400
7880
0FE0
7A40
4240
3980
ENDCHAR
STARTCHAR U+AFC8
ENCODING 45000
SWIDTH 935 0
DWIDTH 12 0
BBX 10 11 0 -2
BITMAP
7BC0
0840
0840
0840
0000
FFE0
0400
7FC0
4040
4040
3FC0
ENDCHAR
STARTCHAR U+AFC9
ENCODING 45001
SWIDTH 935 0
DWIDTH 12 0
BBX 10 11 0 -2
BITMAP
7BC0
0840
0840
0840
0000
FFE0
0400
4040
7FC0
4040
3FC0
ENDCHAR
STARTCHAR U+AFCB
ENCODING 45003
SWIDTH 935 0
DWIDTH 12 0
BBX 10 11 0 -2
BITMAP
7BC0
0840
0840
0840
0000
FFE0
0400
0400
0A00
1100
60C0
ENDCHAR
STARTCHAR U+AFCD
ENCODING 45005
SWIDTH 935 0
DWIDTH 12 0
BBX 10 11 0 -2
BITMAP
7BC0
0840
0840
0840
0000
FFE0
0400
3F80
4040
4040
3F80
ENDCHAR
STARTCHAR U+AFCE
ENCODING 45006
SWIDTH 935 0
DWIDTH 12 0
BBX 10 11 0 -2
BITMAP
7BC0
0840
0840
0840
0000
FFE0
0400
7FC0
0400
0A00
71C0
ENDCHAR
STARTCHAR U+AFD4
ENCODING 45012
SWIDTH 935 0
DWIDTH 12 0
BBX 10 11 0 -2
BITMAP
7740
1140
1140
1140
1140
0040
7F40
0840
0BC0
0840
0840
ENDCHAR
STARTCHAR U+AFDC
ENCODING 45020
SWIDTH 935 0
DWIDTH 12 0
BBX 10 11 0 -2
BITMAP
7E40
1240
12C0
0040
7F40
0840
3FC0
0040
3FC0
2000
1FC0
ENDCHAR
STARTCHAR U+AFE8
ENCODING 45032
SWIDTH 935 0
DWIDTH 12 0
BBX 10 11 0 -2
BITMAP
7E40
1240
12C0
0040
0040
7F40
0840
0880
0880
1540
2220
ENDCHAR
STARTCHAR U+AFE9
ENCODING 45033
SWIDTH 935 0
DWIDTH 12 0
BBX 10 11 0 -2
BITMAP
7E40
1240
12C0
0040
0040
7F40
0840
1F80
2040
2040
1F80
ENDCHAR
STARTCHAR U+AFF0
ENCODING 45040
SWIDTH 935 0
DWIDTH 12 0
BBX 8 11 1 -2
BITMAP
FD
25
25
25
25
01
FD
21
27
21
21
ENDCHAR
STARTCHAR U+AFF1
ENCODING 45041
SWIDTH 935 0
DWIDTH 12 0
BBX 9 8 1 1
BITMAP
F900
2900
2B00
0100
0100
FD00
2100
1F80
ENDCHAR
STARTCHAR U+AFF4
ENCODING 45044
SWIDTH 935 0
DWIDTH 12 0
BBX 10 11 0 -2
BITMAP
7CA0
14A0
15A0
00A0
00A0
7EA0
08A0
2800
2000
2000
1FE0
ENDCHAR
STARTCHAR U+AFF8
ENCODING 45048
SWIDTH 935 0
DWIDTH 12 0
BBX 10 11 0 -2
BITMAP
7EA0
12A0
11A0
00A0
00A0
7EA0
3FE0
0020
3FE0
2000
1FE0
ENDCHAR
STARTCHAR U+B000
ENCODING 45056
SWIDTH 935 0
DWIDTH 12 0
BBX 10 11 0 -2
BITMAP
7CA0
14A0
15A0
00A0
00A0
7EA0
10A0
3FE0
2020
2020
1FE0
ENDCHAR
STARTCHAR U+B001
ENCODING 45057
SWIDTH 935 0
DWIDTH 12 0
BBX 10 11 0 -2
BITMAP
7CA0
14A0
15A0
00A0
00A0
7EA0
10A0
2020
3FE0
2020
1FE0
ENDCHAR
STARTCHAR U+B004
ENCODING 45060
SWIDTH 935 0
DWIDTH 12 0
BBX 10 11 0 -2
BITMAP
7CA0
14A0
15A0
00A0
00A0
7EA0
10A0
0880
0880
1540
2220
ENDCHAR
STARTCHAR U+B00C
ENCODING 45068
SWIDTH 935 0
DWIDTH 12 0
BBX 10 11 0 -2
BITMAP
7740
1140
1140
1140
1140
0040
7F40
0840
0840
0840
0840
ENDCHAR
STARTCHAR U+B010
ENCODING 45072
SWIDTH 935 0
DWIDTH 12 0
BBX 10 11 0 -2
BITMAP
7E40
1240
1240
0040
0040
7FC0
0840
2840
2000
2000
1FC0
ENDCHAR
STARTCHAR U+B014
ENCODING 45076
SWIDTH 935 0
DWIDTH 12 0
BBX 10 11 0 -2
BITMAP
7E40
1240
1240
0040
0040
7FC0
3FC0
0040
3FC0
2000
1FC0
ENDCHAR
STARTCHAR U+B01C
ENCODING 45084
SWIDTH 935 0
DWIDTH 12 0
BBX 10 11 0 -2
BITMAP
7E40
1240
1240
0040
0040
7FC0
0840
3FC0
2040
2040
1FC0
ENDCHAR
STARTCHAR U+B01D
ENCODING 45085
SWIDTH 935 0
DWIDTH 12 0
BBX 10 11 0 -2
BITMAP
7E40
1240
1240
0040
0040
7FC0
0840
2040
3FC0
2040
1FC0
ENDCHAR
STARTCHAR U+B028
ENCODING 45096
SWIDTH 935 0
DWIDTH 12 0
BBX 10 11 0 -2
BITMAP
7BC0
0840
0840
0840
0840
0840
FFE0
1100
1100
1100
1100
ENDCHAR
STARTCHAR U+B044
ENCODING 45124
SWIDTH 935 0
DWIDTH 12 0
BBX 10 10 0 -1
BITMAP
7BC0
0840
0840
0840
0840
1040
2040
4080
0000
FFC0
ENDCHAR
STARTCHAR U+B045
ENCODING 45125
SWIDTH 935 0
DWIDTH 12 0
BBX 10 11 0 -2
BITMAP
7BC0
0840
0840
1040
2040
FFE0
0000
7FC0
0040
0040
0040
ENDCHAR
STARTCHAR U+B048
ENCODING 45128
SWIDTH 935 0
DWIDTH 12 0
BBX 10 11 0 -2
BITMAP
7BC0
0840
0840
1040
2040
0000
FFE0
4000
4000
4000
3FC0
ENDCHAR
STARTCHAR U+B04A
ENCODING 45130
SWIDTH 935 0
DWIDTH 12 0
BBX 10 11 0 -2
BITMAP
7BC0
0840
0840
1040
2040
FFE0
0100
47E0
4240
4240
3980
ENDCHAR
STARTCHAR U+B04C
ENCODING 45132
SWIDTH 935 0
DWIDTH 12 0
BBX 10 11 0 -2
BITMAP
7BC0
0840
1040
2040
FFE0
0000
7FC0
0040
7FC0
4000
3FC0
ENDCHAR
STARTCHAR U+B04E
ENCODING 45134
SWIDTH 935 0
DWIDTH 12 0
BBX 10 11 0 -2
BITMAP
7BC0
0840
1040
2040
FFE0
0000
7BC0
0A40
7A40
4240
3FC0
ENDCHAR
STARTCHAR U+B053
ENCODING 45139
SWIDTH 935 0
DWIDTH 12 0
BBX 10 11 0 -2
BITMAP
7BC0
0840
1040
2040
FFE0
0000
7880
0FE0
7A40
4240
3980
ENDCHAR
STARTCHAR U+B054
ENCODING 45140
SWIDTH 935 0
DWIDTH 12 0
BBX 10 11 0 -2
BITMAP
7BC0
0840
0840
1040
2040
FFE0
0000
7FC0
4040
4040
3FC0
ENDCHAR
STARTCHAR U+B055
ENCODING 45141
SWIDTH 935 0
DWIDTH 12 0
BBX 10 11 0 -2
BITMAP
7BC0
0840
0840
1040
2040
FFE0
0000
4040
7FC0
4040
3FC0
ENDCHAR
STARTCHAR U+B057
ENCODING 45143
SWIDTH 935 0
DWIDTH 12 0
BBX 10 11 0 -2
BITMAP
7BC0
0840
0840
1040
2040
FFE0
0000
0400
0A00
1100
60C0
ENDCHAR
STARTCHAR U+B059
ENCODING 45145
SWIDTH 935 0
DWIDTH 12 0
BBX 10 11 0 -2
BITMAP
7BC0
0840
0840
1040
2040
FFE0
0000
3F80
4040
4040
3F80
ENDCHAR
STARTCHAR U+B05D
ENCODING 45149
SWIDTH 935 0
DWIDTH 12 0
BBX 10 11 0 -2
BITMAP
7BC0
0840
1040
2040
FFE0
0000
7FC0
4000
7F80
4000
3FC0
ENDCHAR
STARTCHAR U+B07C
ENCODING 45180
SWIDTH 935 0
DWIDTH 12 0
BBX 10 11 0 -2
BITMAP
7740
1140
1140
1140
1140
1140
2140
2240
4240
0440
0040
ENDCHAR
STARTCHAR U+B07D
ENCODING 45181
SWIDTH 935 0
DWIDTH 12 0
BBX 10 11 0 -2
BITMAP
7E40
1240
1240
1240
2240
4440
0000
3FC0
0040
0040
0040
ENDCHAR
STARTCHAR U+B080
ENCODING 45184
SWIDTH 935 0
DWIDTH 12 0
BBX 10 11 0 -2
BITMAP
7E40
1240
1240
1240
2240
4440
0040
2000
2000
2000
1FC0
ENDCHAR
STARTCHAR U+B084
ENCODING 45188
SWIDTH 935 0
DWIDTH 12 0
BBX 10 11 0 -2
BITMAP
7E40
1240
1240
2240
4440
0040
3FC0
0040
3FC0
2000
1FC0
ENDCHAR
STARTCHAR U+B08C
ENCODING 45196
SWIDTH 935 0
DWIDTH 12 0
BBX 10 11 0 -2
BITMAP
7E40
1240
1240
1240
2240
4440
0000
3FC0
2040
2040
1FC0
ENDCHAR
STARTCHAR U+B08D
ENCODING 45197
SWIDTH 935 0
DWIDTH 12 0
BBX 10 11 0 -2
BITMAP
7E40
1240
1240
1240
2240
4440
0000
2040
3FC0
2040
1FC0
ENDCHAR
STARTCHAR U+B08F
ENCODING 45199
SWIDTH 935 0
DWIDTH 12 0
BBX 10 11 0 -2
BITMAP
7E40
1240
1240
1240
2240
4440
0000
0100
0280
0C40
3020
ENDCHAR
STARTCHAR U+B091
ENCODING 45201
SWIDTH 935 0
DWIDTH 12 0
BBX 10 11 0 -2
BITMAP
7E40
1240
1240
1240
2240
4440
0000
1F80
2040
2040
1F80
ENDCHAR
STARTCHAR U+B098
ENCODING 45208
SWIDTH 935 0
DWIDTH 12 0
BBX 10 11 0 -2
BITMAP
4040
4040
4040
4040
4070
4040
4040
3F40
0040
0040
0040
ENDCHAR
STARTCHAR U+B099
ENCODING 45209
SWIDTH 935 0
DWIDTH 12 0
BBX 10 11 0 -2
BITMAP
4040
4040
4070
4040
3F40
0040
0000
3FC0
0040
0040
0040
ENDCHAR
STARTCHAR U+B09A
ENCODING 45210
SWIDTH 935 0
DWIDTH 12 0
BBX 10 11 0 -2
BITMAP
4040
4040
4070
4040
3F40
0040
0000
3FC0
0440
0440
0440
ENDCHAR
STARTCHAR U+B09C
ENCODING 45212
SWIDTH 935 0
DWIDTH 12 0
BBX 10 11 0 -2
BITMAP
4040
4040
4040
4070
3F40
0040
0040
2000
2000
2000
1FC0
ENDCHAR
STARTCHAR U+B09F
ENCODING 45215
SWIDTH 935 0
DWIDTH 12 0
BBX 10 11 0 -2
BITMAP
4040
4040
4070
4040
3F40
0040
0000
3FC0
2000
2000
1FC0
ENDCHAR
STARTCHAR U+B0A0
ENCODING 45216
SWIDTH 935 0
DWIDTH 12 0
BBX 10 11 0 -2
BITMAP
4040
4040
4070
4040
3F40
0040
3FC0
0040
3FC0
2000
1FC0
ENDCHAR
STARTCHAR U+B0A1
ENCODING 45217
SWIDTH 935 0
DWIDTH 12 0
BBX 10 11 0 -2
BITMAP
4040
4040
4070
4040
3F40
0040
3FC0
0440
3C40
2040
1C40
ENDCHAR
STARTCHAR U+B0A2
ENCODING 45218
SWIDTH 935 0
DWIDTH 12 0
BBX 10 11 0 -2
BITMAP
4040
4040
4070
4040
3F40
0040
3DC0
0540
3D40
2140
1FC0
ENDCHAR
STARTCHAR U+B0A8
ENCODING 45224
SWIDTH 935 0
DWIDTH 12 0
BBX 10 11 0 -2
BITMAP
4040
4040
4070
4040
3F40
0040
0000
3FC0
2040
2040
1FC0
ENDCHAR
STARTCHAR U+B0A9
ENCODING 45225
SWIDTH 935 0
DWIDTH 12 0
BBX 10 11 0 -2
BITMAP
4040
4040
4070
4040
3F40
0040
0000
2040
3FC0
2040
1FC0
ENDCHAR
STARTCHAR U+B0AB
ENCODING 45227
SWIDTH 935 0
DWIDTH 12 0
BBX 10 11 0 -2
BITMAP
4040
4040
4070
4040
3F40
0040
0000
0100
0280
0C40
3020
ENDCHAR
STARTCHAR U+B0AC
ENCODING 45228
SWIDTH 935 0
DWIDTH 12 0
BBX 10 11 0 -2
BITMAP
4040
4040
4070
4040
3F40
0040
0000
0880
0880
1540
2220
ENDCHAR
STARTCHAR U+B0AD
ENCODING 45229
SWIDTH 935 0
DWIDTH 12 0
BBX 10 11 0 -2
BITMAP
4040
4040
4070
4040
3F40
0040
0000
1F80
2040
2040
1F80
ENDCHAR
STARTCHAR U+B0AE
ENCODING 45230
SWIDTH 935 0
DWIDTH 12 0
BBX 10 11 0 -2
BITMAP
4040
4040
4070
4040
3F40
0040
0000
3FE0
0100
0680
3860
ENDCHAR
STARTCHAR U+B0AF
ENCODING 45231
SWIDTH 935 0
DWIDTH 12 0
BBX 10 11 0 -2
BITMAP
4040
4040
4070
4040
3F40
0040
0100
3FE0
0100
0680
3860
ENDCHAR
STARTCHAR U+B0B1
ENCODING 45233
SWIDTH 935 0
DWIDTH 12 0
BBX 10 11 0 -2
BITMAP
4040
4040
4070
4040
3F40
0040
3FC0
2000
3FC0
2000
1FC0
ENDCHAR
STARTCHAR U+B0B3
ENCODING 45235
SWIDTH 935 0
DWIDTH 12 0
BBX 10 11 0 -2
BITMAP
4040
4040
4070
4040
3F40
0040
0700
0000
7FE0
1040
0F80
ENDCHAR
STARTCHAR U+B0B4
ENCODING 45236
SWIDTH 935 0
DWIDTH 12 0
BBX 10 11 0 -2
BITMAP
4120
4120
4120
4120
4120
41E0
4120
3D20
0120
0120
0120
ENDCHAR
STARTCHAR U+B0B5
ENCODING 45237
SWIDTH 935 0
DWIDTH 12 0
BBX 9 8 1 1
BITMAP
8200
8200
8380
8200
7E00
0200
0000
3F80
ENDCHAR
STARTCHAR U+B0B8
ENCODING 45240
SWIDTH 935 0
DWIDTH 12 0
BBX 10 11 0 -2
BITMAP
4120
4120
41E0
4120
3F20
0120
0020
2000
2000
2000
1FE0
ENDCHAR
STARTCHAR U+B0BC
ENCODING 45244
SWIDTH 935 0
DWIDTH 12 0
BBX 10 11 0 -2
BITMAP
4120
4120
41E0
4120
3F20
0120
3FE0
0020
3FE0
2000
1FE0
ENDCHAR
STARTCHAR U+B0C4
ENCODING 45252
SWIDTH 935 0
DWIDTH 12 0
BBX 10 11 0 -2
BITMAP
4120
4120
41E0
4120
3F20
0120
0000
3FE0
2020
2020
1FE0
ENDCHAR
STARTCHAR U+B0C5
ENCODING 45253
SWIDTH 935 0
DWIDTH 12 0
BBX 10 11 0 -2
BITMAP
4120
4120
41E0
4120
3F20
0120
0000
2020
3FE0
2020
1FE0
ENDCHAR
STARTCHAR U+B0C7
ENCODING 45255
SWIDTH 935 0
DWIDTH 12 0
BBX 10 11 0 -2
BITMAP
4120
4120
41E0
4120
3F20
0120
0000
0080
0080
0340
1C30
ENDCHAR
STARTCHAR U+B0C8
ENCODING 45256
SWIDTH 935 0
DWIDTH 12 0
BBX 10 11 0 -2
BITMAP
4120
4120
41E0
4120
3F20
0120
0000
0840
0840
14A0
2310
ENDCHAR
STARTCHAR U+B0C9
ENCODING 45257
SWIDTH 935 0
DWIDTH 12 0
BBX 10 11 0 -2
BITMAP
4120
4120
41E0
4120
3F20
0120
0000
1FC0
2020
2020
1FC0
ENDCHAR
STARTCHAR U+B0D0
ENCODING 45264
SWIDTH 935 0
DWIDTH 12 0
BBX 10 11 0 -2
BITMAP
4040
4040
4070
4040
4040
4040
4070
3F40
0040
0040
0040
ENDCHAR
STARTCHAR U+B0D1
ENCODING 45265
SWIDTH 935 0
DWIDTH 12 0
BBX 10 11 0 -2
BITMAP
4040
4070
4040
4070
3F40
0040
0000
3FC0
0040
0040
0040
ENDCHAR
STARTCHAR U+B0D4
ENCODING 45268
SWIDTH 935 0
DWIDTH 12 0
BBX 10 11 0 -2
BITMAP
4040
4070
4040
4070
3F40
0040
0040
2000
2000
2000
1FC0
ENDCHAR
STARTCHAR U+B0D8
ENCODING 45272
SWIDTH 935 0
DWIDTH 12 0
BBX 10 11 0 -2
BITMAP
4040
4070
4040
4070
3F40
0040
3FC0
0040
3FC0
2000
1FC0
ENDCHAR
STARTCHAR U+B0E0
ENCODING 45280
SWIDTH 935 0
DWIDTH 12 0
BBX 10 11 0 -2
BITMAP
4040
4070
4040
4070
3F40
0040
0000
3FC0
2040
2040
1FC0
ENDCHAR
STARTCHAR U+B0E5
ENCODING 45285
SWIDTH 935 0
DWIDTH 12 0
BBX 10 11 0 -2
BITMAP
4040
4070
4040
4070
3F40
0040
0000
1F80
2040
2040
1F80
ENDCHAR
STARTCHAR U+B108
ENCODING 45320
SWIDTH 935 0
DWIDTH 12 0
BBX 10 11 0 -2
BITMAP
4040
4040
4040
41C0
4040
4040
4040
3F40
0040
0040
0040
ENDCHAR
STARTCHAR U+B109
ENCODING 45321
SWIDTH 935 0
DWIDTH 12 0
BBX 10 11 0 -2
BITMAP
4040
4040
41C0
4040
3F40
0040
0000
3FC0
0040
0040
0040
ENDCHAR
STARTCHAR U+B10B
ENCODING 45323
SWIDTH 935 0
DWIDTH 12 0
BBX 10 11 0 -2
BITMAP
4040
4040
41C0
4040
3F40
0040
0000
3C80
0480
0540
0220
ENDCHAR
STARTCHAR U+B10C
ENCODING 45324
SWIDTH 935 0
DWIDTH 12 0
BBX 10 11 0 -2
BITMAP
4040
4040
41C0
4040
3F40
0040
0040
2000
2000
2000
1FC0
ENDCHAR
STARTCHAR U+B110
ENCODING 45328
SWIDTH 935 0
DWIDTH 12 0
BBX 10 11 0 -2
BITMAP
4040
4040
41C0
4040
3F40
0040
3FC0
0040
3FC0
2000
1FC0
ENDCHAR
STARTCHAR U+B112
ENCODING 45330
SWIDTH 935 0
DWIDTH 12 0
BBX 10 11 0 -2
BITMAP
4040
4040
41C0
4040
3F40
0040
3DC0
0540
3D40
2140
1FC0
ENDCHAR
STARTCHAR U+B113
ENCODING 45331
SWIDTH 935 0
DWIDTH 12 0
BBX 10 11 0 -2
BITMAP
4040
4040
41C0
4040
3F40
0040
3D40
0540
3DC0
2140
1FC0
ENDCHAR
STARTCHAR U+B118
ENCODING 45336
SWIDTH 935 0
DWIDTH 12 0
BBX 10 11 0 -2
BITMAP
4040
4040
41C0
4040
3F40
0040
0000
3FC0
2040
2040
1FC0
ENDCHAR
STARTCHAR U+B119
ENCODING 45337
SWIDTH 935 0
DWIDTH 12 0
BBX 10 11 0 -2
BITMAP
4040
4040
41C0
4040
3F40
0040
0000
2040
3FC0
2040
1FC0
ENDCHAR
STARTCHAR U+B11B
ENCODING 45339
SWIDTH 935 0
DWIDTH 12 0
BBX 10 11 0 -2
BITMAP
4040
4040
41C0
4040
3F40
0040
0000
0200
0500
0880
3060
ENDCHAR
STARTCHAR U+B11C
ENCODING 45340
SWIDTH 935 0
DWIDTH 12 0
BBX 10 11 0 -2
BITMAP
4040
4040
41C0
4040
3F40
0040
0000
0880
0880
1540
2220
ENDCHAR
STARTCHAR U+B11D
ENCODING 45341
SWIDTH 935 0
DWIDTH 12 0
BBX 10 11 0 -2
BITMAP
4040
4040
41C0
4040
3F40
0040
0000
1F80
2040
2040
1F80
ENDCHAR
STARTCHAR U+B123
ENCODING 45347
SWIDTH 935 0
DWIDTH 12 0
BBX 10 11 0 -2
BITMAP
4040
4040
41C0
4040
3F40
0040
0700
0000
7FE0
1040
0F80
ENDCHAR
STARTCHAR U+B124
ENCODING 45348
SWIDTH 935 0
DWIDTH 12 0
BBX 8 11 1 -2
BITMAP
81
81
81
81
87
81
81
79
01
01
01
ENDCHAR
STARTCHAR U+B125
ENCODING 45349
SWIDTH 935 0
DWIDTH 12 0
BBX 9 8 1 1
BITMAP
8100
8100
8700
8100
7D00
0100
0000
3F80
ENDCHAR
STARTCHAR U+B128
ENCODING 45352
SWIDTH 935 0
DWIDTH 12 0
BBX 10 11 0 -2
BITMAP
40A0
40A0
43A0
40A0
3EA0
00A0
0020
2000
2000
2000
1FE0
ENDCHAR
STARTCHAR U+B12C
ENCODING 45356
SWIDTH 935 0
DWIDTH 12 0
BBX 10 11 0 -2
BITMAP
40A0
40A0
43A0
40A0
3EA0
00A0
3FE0
0020
3FE0
2000
1FE0
ENDCHAR
STARTCHAR U+B134
ENCODING 45364
SWIDTH 935 0
DWIDTH 12 0
BBX 10 11 0 -2
BITMAP
40A0
40A0
43A0
40A0
3EA0
00A0
0000
3FE0
2020
2020
1FE0
ENDCHAR
STARTCHAR U+B135
ENCODING 45365
SWIDTH 935 0
DWIDTH 12 0
BBX 10 11 0 -2
BITMAP
40A0
40A0
43A0
40A0
3EA0
00A0
0000
2020
3FE0
2020
1FE0
ENDCHAR
STARTCHAR U+B137
ENCODING 45367
SWIDTH 935 0
DWIDTH 12 0
BBX 10 11 0 -2
BITMAP
40A0
40A0
43A0
40A0
3EA0
00A0
0000
0080
0080
0340
1C30
ENDCHAR
STARTCHAR U+B138
ENCODING 45368
SWIDTH 935 0
DWIDTH 12 0
BBX 10 11 0 -2
BITMAP
40A0
40A0
43A0
40A0
3EA0
00A0
0000
0840
0840
14A0
2310
ENDCHAR
STARTCHAR U+B139
ENCODING 45369
SWIDTH 935 0
DWIDTH 12 0
BBX 10 11 0 -2
BITMAP
40A0
40A0
43A0
40A0
3EA0
00A0
0000
1FC0
2020
2020
1FC0
ENDCHAR
STARTCHAR U+B140
ENCODING 45376
SWIDTH 935 0
DWIDTH 12 0
BBX 10 11 0 -2
BITMAP
4040
4040
41C0
4040
4040
41C0
4040
3F40
0040
0040
0040
ENDCHAR
STARTCHAR U+B141
ENCODING 45377
SWIDTH 935 0
DWIDTH 12 0
BBX 10 11 0 -2
BITMAP
4040
41C0
4040
41C0
3F40
0040
0000
3FC0
0040
0040
0040
ENDCHAR
STARTCHAR U+B144
ENCODING 45380
SWIDTH 935 0
DWIDTH 12 0
BBX 10 11 0 -2
BITMAP
4040
41C0
4040
41C0
3F40
0040
0040
2000
2000
2000
1FC0
ENDCHAR
STARTCHAR U+B148
ENCODING 45384
SWIDTH 935 0
DWIDTH 12 0
BBX 10 11 0 -2
BITMAP
4040
41C0
4040
41C0
3F40
0040
3FC0
0040
3FC0
2000
1FC0
ENDCHAR
STARTCHAR U+B150
ENCODING 45392
SWIDTH 935 0
DWIDTH 12 0
BBX 10 11 0 -2
BITMAP
4040
41C0
4040
41C0
3F40
0040
0000
3FC0
2040
2040
1FC0
ENDCHAR
STARTCHAR U+B151
ENCODING 45393
SWIDTH 935 0
DWIDTH 12 0
BBX 10 11 0 -2
BITMAP
4040
41C0
4040
41C0
3F40
0040
0000
2040
3FC0
2040
1FC0
ENDCHAR
STARTCHAR U+B154
ENCODING 45396
SWIDTH 935 0
DWIDTH 12 0
BBX 10 11 0 -2
BITMAP
4040
41C0
4040
41C0
3F40
0040
0000
0880
0880
1540
2220
ENDCHAR
STARTCHAR U+B155
ENCODING 45397
SWIDTH 935 0
DWIDTH 12 0
BBX 10 11 0 -2
BITMAP
4040
41C0
4040
41C0
3F40
0040
0000
1F80
2040
2040
1F80
ENDCHAR
STARTCHAR U+B158
ENCODING 45400
SWIDTH 935 0
DWIDTH 12 0
BBX 10 11 0 -2
BITMAP
4040
41C0
4040
41C0
3F40
0040
0000
3FC0
0040
3FC0
0040
ENDCHAR
STARTCHAR U+B15C
ENCODING 45404
SWIDTH 935 0
DWIDTH 12 0
BBX 8 11 1 -2
BITMAP
81
81
87
81
81
87
81
79
01
01
01
ENDCHAR
STARTCHAR U+B160
ENCODING 45408
SWIDTH 935 0
DWIDTH 12 0
BBX 10 11 0 -2
BITMAP
40A0
43A0
40A0
43A0
3EA0
00A0
0020
2000
2000
2000
1FE0
ENDCHAR
STARTCHAR U+B178
ENCODING 45432
SWIDTH 935 0
DWIDTH 12 0
BBX 10 10 0 -1
BITMAP
4000
4000
4000
4000
4000
3FC0
0000
0400
0400
FFC0
ENDCHAR
STARTCHAR U+B179
ENCODING 45433
SWIDTH 935 0
DWIDTH 12 0
BBX 10 11 0 -2
BITMAP
4000
4000
4000
3FC0
0400
FFE0
0000
7FC0
0040
0040
0040
ENDCHAR
STARTCHAR U+B17C
ENCODING 45436
SWIDTH 935 0
DWIDTH 12 0
BBX 10 11 0 -2
BITMAP
4000
4000
4000
3FC0
0000
0400
FFE0
4000
4000
4000
3FC0
ENDCHAR
STARTCHAR U+B180
ENCODING 45440
SWIDTH 935 0
DWIDTH 12 0
BBX 10 11 0 -2
BITMAP
4000
4000
3FC0
0400
FFE0
0000
7FC0
0040
7FC0
4000
3FC0
ENDCHAR
STARTCHAR U+B182
ENCODING 45442
SWIDTH 935 0
DWIDTH 12 0
BBX 10 11 0 -2
BITMAP
4000
4000
3FC0
0400
FFE0
0000
7BC0
0A40
7A40
4240
3FC0
ENDCHAR
STARTCHAR U+B188
ENCODING 45448
SWIDTH 935 0
DWIDTH 12 0
BBX 10 11 0 -2
BITMAP
4000
4000
4000
3FC0
0400
FFE0
0000
7FC0
4040
4040
3FC0
ENDCHAR
STARTCHAR U+B189
ENCODING 45449
SWIDTH 935 0
DWIDTH 12 0
BBX 10 11 0 -2
BITMAP
4000
4000
4000
3FC0
0400
FFE0
0000
4040
7FC0
4040
3FC0
ENDCHAR
STARTCHAR U+B18B
ENCODING 45451
SWIDTH 935 0
DWIDTH 12 0
BBX 10 11 0 -2
BITMAP
4000
4000
4000
3FC0
0400
FFE0
0000
0400
0A00
1100
60C0
ENDCHAR
STARTCHAR U+B18D
ENCODING 45453
SWIDTH 935 0
DWIDTH 12 0
BBX 10 11 0 -2
BITMAP
4000
4000
4000
3FC0
0400
FFE0
0000
3F80
4040
4040
3F80
ENDCHAR
STARTCHAR U+B192
ENCODING 45458
SWIDTH 935 0
DWIDTH 12 0
BBX 10 11 0 -2
BITMAP
4000
4000
4000
3FC0
0400
FFE0
0000
7FC0
1100
1100
7FC0
ENDCHAR
STARTCHAR U+B193
ENCODING 45459
SWIDTH 935 0
DWIDTH 12 0
BBX 10 11 0 -2
BITMAP
4000
4000
3FC0
0400
FFE0
0000
0E00
0000
7FC0
2080
1F00
ENDCHAR
STARTCHAR U+B194
ENCODING 45460
SWIDTH 935 0
DWIDTH 12 0
BBX 10 11 0 -2
BITMAP
4040
4040
4040
4040
3E70
0040
0840
0840
7F40
0040
0040
ENDCHAR
STARTCHAR U+B198
ENCODING 45464
SWIDTH 935 0
DWIDTH 12 0
BBX 10 11 0 -2
BITMAP
4040
4040
4040
3E70
0840
7F40
0040
2000
2000
2000
1FC0
ENDCHAR
STARTCHAR U+B19C
ENCODING 45468
SWIDTH 935 0
DWIDTH 12 0
BBX 10 11 0 -2
BITMAP
4040
4040
3E40
0870
7FC0
0000
3FC0
0040
3FC0
2000
1FC0
ENDCHAR
STARTCHAR U+B1A8
ENCODING 45480
SWIDTH 935 0
DWIDTH 12 0
BBX 10 11 0 -2
BITMAP
4040
4040
4040
3E70
0840
7F40
0000
0880
0880
1540
2220
ENDCHAR
STARTCHAR U+B1CC
ENCODING 45516
SWIDTH 935 0
DWIDTH 12 0
BBX 10 11 0 -2
BITMAP
4040
4040
4040
4040
3E40
0040
0840
0840
7F40
0040
0040
ENDCHAR
STARTCHAR U+B1D0
ENCODING 45520
SWIDTH 935 0
DWIDTH 12 0
BBX 10 11 0 -2
BITMAP
4040
4040
4040
3E40
0840
7F40
0040
2040
2000
2000
1FC0
ENDCHAR
STARTCHAR U+B1D4
ENCODING 45524
SWIDTH 935 0
DWIDTH 12 0
BBX 10 11 0 -2
BITMAP
4040
4040
3E40
0840
7F40
0040
3FC0
0040
3FC0
2000
1FC0
ENDCHAR
STARTCHAR U+B1DC
ENCODING 45532
SWIDTH 935 0
DWIDTH 12 0
BBX 10 11 0 -2
BITMAP
4040
4040
4040
3E40
0840
7F40
0040
3FC0
2040
2040
1FC0
ENDCHAR
STARTCHAR U+B1DD
ENCODING 45533
SWIDTH 935 0
DWIDTH 12 0
BBX 10 11 0 -2
BITMAP
4040
4040
4040
3E40
0840
7F40
0040
2040
3FC0
2040
1FC0
ENDCHAR
STARTCHAR U+B1DF
ENCODING 45535
SWIDTH 935 0
DWIDTH 12 0
BBX 10 11 0 -2
BITMAP
4040
4040
4040
3E40
0840
7F40
0040
0200
0500
0880
3060
ENDCHAR
STARTCHAR U+B1E8
ENCODING 45544
SWIDTH 935 0
DWIDTH 12 0
BBX 10 10 0 -1
BITMAP
4000
4000
4000
4000
4000
3FC0
0000
1100
1100
FFC0
ENDCHAR
STARTCHAR U+B1E9
ENCODING 45545
SWIDTH 935 0
DWIDTH 12 0
BBX 10 11 0 -2
BITMAP
4000
4000
4000
3FC0
1100
FFE0
0000
7FC0
0040
0040
0040
ENDCHAR
STARTCHAR U+B1EC
ENCODING 45548
SWIDTH 935 0
DWIDTH 12 0
BBX 10 11 0 -2
BITMAP
4000
4000
4000
3FC0
0000
1100
FFE0
4000
4000
4000
3FC0
ENDCHAR
STARTCHAR U+B1F0
ENCODING 45552
SWIDTH 935 0
DWIDTH 12 0
BBX 10 11 0 -2
BITMAP
4000
4000
3FC0
1100
FFE0
0000
7FC0
0040
7FC0
4000
3FC0
ENDCHAR
STARTCHAR U+B1F9
ENCODING 45561
SWIDTH 935 0
DWIDTH 12 0
BBX 10 11 0 -2
BITMAP
4000
4000
4000
3FC0
1100
FFE0
0000
4040
7FC0
4040
3FC0
ENDCHAR
STARTCHAR U+B1FB
ENCODING 45563
SWIDTH 935 0
DWIDTH 12 0
BBX 10 11 0 -2
BITMAP
4000
4000
4000
3FC0
1100
FFE0
0000
0400
0A00
1100
60C0
ENDCHAR
STARTCHAR U+B1FD
ENCODING 45565
SWIDTH 935 0
DWIDTH 12 0
BBX 10 11 0 -2
BITMAP
4000
4000
4000
3FC0
1100
FFE0
0000
3F80
4040
4040
3F80
ENDCHAR
STARTCHAR U+B204
ENCODING 45572
SWIDTH 935 0
DWIDTH 12 0
BBX 10 11 0 -2
BITMAP
4000
4000
4000
3FC0
0000
0000
FFE0
0400
0400
0400
0400
ENDCHAR
STARTCHAR U+B205
ENCODING 45573
SWIDTH 935 0
DWIDTH 12 0
BBX 10 11 0 -2
BITMAP
4000
4000
4000
3FC0
0000
FFE0
0400
7FC0
0040
0040
0040
ENDCHAR
STARTCHAR U+B208
ENCODING 45576
SWIDTH 935 0
DWIDTH 12 0
BBX 10 11 0 -2
BITMAP
4000
4000
4000
3FC0
0000
0000
FFE0
4400
4400
4000
3FC0
ENDCHAR
STARTCHAR U+B20B
ENCODING 45579
SWIDTH 935 0
DWIDTH 12 0
BBX 10 11 0 -2
BITMAP
4000
4000
4000
3FC0
0000
FFE0
0400
7FC0
4000
4000
3FC0
ENDCHAR
STARTCHAR U+B20C
ENCODING 45580
SWIDTH 935 0
DWIDTH 12 0
BBX 10 11 0 -2
BITMAP
4000
4000
3FC0
0000
FFE0
0400
7FC0
0040
7FC0
4000
3FC0
ENDCHAR
STARTCHAR U+B214
ENCODING 45588
SWIDTH 935 0
DWIDTH 12 0
BBX 10 11 0 -2
BITMAP
4000
4000
4000
3FC0
0000
FFE0
0400
7FC0
4040
4040
3FC0
ENDCHAR
STARTCHAR U+B215
ENCODING 45589
SWIDTH 935 0
DWIDTH 12 0
BBX 10 11 0 -2
BITMAP
4000
4000
4000
3FC0
0000
FFE0
0400
4040
7FC0
4040
3FC0
ENDCHAR
STARTCHAR U+B217
ENCODING 45591
SWIDTH 935 0
DWIDTH 12 0
BBX 10 11 0 -2
BITMAP
4000
4000
4000
3FC0
0000
FFE0
0400
0400
0A00
1100
60C0
ENDCHAR
STARTCHAR U+B219
ENCODING 45593
SWIDTH 935 0
DWIDTH 12 0
BBX 10 11 0 -2
BITMAP
4000
4000
4000
3FC0
0000
FFE0
0400
3F80
4040
4040
3F80
ENDCHAR
STARTCHAR U+B220
ENCODING 45600
SWIDTH 935 0
DWIDTH 12 0
BBX 10 11 0 -2
BITMAP
4040
4040
4040
3F40
0040
0040
7F40
0840
0BC0
0840
0840
ENDCHAR
STARTCHAR U+B234
ENCODING 45620
SWIDTH 935 0
DWIDTH 12 0
BBX 10 11 0 -2
BITMAP
4040
4040
40C0
3C40
0040
7F40
0840
0880
0880
1540
2220
ENDCHAR
STARTCHAR U+B23C
ENCODING 45628
SWIDTH 935 0
DWIDTH 12 0
BBX 8 11 1 -2
BITMAP
81
81
81
79
01
01
FD
21
27
21
21
ENDCHAR
STARTCHAR U+B258
ENCODING 45656
SWIDTH 935 0
DWIDTH 12 0
BBX 10 11 0 -2
BITMAP
4040
4040
4040
3F40
0040
0040
7F40
0840
0840
0840
0840
ENDCHAR
STARTCHAR U+B25C
ENCODING 45660
SWIDTH 935 0
DWIDTH 12 0
BBX 10 11 0 -2
BITMAP
4040
4040
4040
3C40
0040
7FC0
0840
2840
2000
2000
1FC0
ENDCHAR
STARTCHAR U+B260
ENCODING 45664
SWIDTH 935 0
DWIDTH 12 0
BBX 10 11 0 -2
BITMAP
4040
4040
3C40
0040
0040
7FC0
3FC0
0040
3FC0
2000
1FC0
ENDCHAR
STARTCHAR U+B268
ENCODING 45672
SWIDTH 935 0
DWIDTH 12 0
BBX 10 11 0 -2
BITMAP
4040
4040
4040
3C40
0040
7FC0
0840
3FC0
2040
2040
1FC0
ENDCHAR
STARTCHAR U+B269
ENCODING 45673
SWIDTH 935 0
DWIDTH 12 0
BBX 10 11 0 -2
BITMAP
4040
4040
4040
3C40
0040
7FC0
0840
2040
3FC0
2040
1FC0
ENDCHAR
STARTCHAR U+B274
ENCODING 45684
SWIDTH 935 0
DWIDTH 12 0
BBX 10 11 0 -2
BITMAP
4000
4000
4000
3FC0
0000
0000
FFE0
1100
1100
1100
1100
ENDCHAR
STARTCHAR U+B275
ENCODING 45685
SWIDTH 935 0
DWIDTH 12 0
BBX 10 11 0 -2
BITMAP
4000
4000
4000
3FC0
0000
FFE0
1100
7FC0
0040
0040
0040
ENDCHAR
STARTCHAR U+B27C
ENCODING 45692
SWIDTH 935 0
DWIDTH 12 0
BBX 10 11 0 -2
BITMAP
4000
4000
3FC0
0000
FFE0
1100
7FC0
0040
7FC0
4000
3FC0
ENDCHAR
STARTCHAR U+B284
ENCODING 45700
SWIDTH 935 0
DWIDTH 12 0
BBX 10 11 0 -2
BITMAP
4000
4000
4000
3FC0
0000
FFE0
1100
7FC0
4040
4040
3FC0
ENDCHAR
STARTCHAR U+B285
ENCODING 45701
SWIDTH 935 0
DWIDTH 12 0
BBX 10 11 0 -2
BITMAP
4000
4000
4000
3FC0
0000
FFE0
1100
4040
7FC0
4040
3FC0
ENDCHAR
STARTCHAR U+B289
ENCODING 45705
SWIDTH 935 0
DWIDTH 12 0
BBX 10 11 0 -2
BITMAP
4000
4000
4000
3FC0
0000
FFE0
1100
3F80
4040
4040
3F80
ENDCHAR
STARTCHAR U+B290
ENCODING 45712
SWIDTH 935 0
DWIDTH 12 0
BBX 10 10 0 -1
BITMAP
4000
4000
4000
4000
4000
3FC0
0000
0000
0000
FFC0
ENDCHAR
STARTCHAR U+B291
ENCODING 45713
SWIDTH 935 0
DWIDTH 12 0
BBX 10 11 0 -2
BITMAP
4000
4000
4000
3FC0
0000
FFE0
0000
7FC0
0040
0040
0040
ENDCHAR
STARTCHAR U+B294
ENCODING 45716
SWIDTH 935 0
DWIDTH 12 0
BBX 10 11 0 -2
BITMAP
4000
4000
4000
3FC0
0000
0000
FFE0
4000
4000
4000
3FC0
ENDCHAR
STARTCHAR U+B298
ENCODING 45720
SWIDTH 935 0
DWIDTH 12 0
BBX 10 11 0 -2
BITMAP
4000
4000
3FC0
0000
FFE0
0000
7FC0
0040
7FC0
4000
3FC0
ENDCHAR
STARTCHAR U+B299
ENCODING 45721
SWIDTH 935 0
DWIDTH 12 0
BBX 10 11 0 -2
BITMAP
4000
4000
3FC0
0000
FFE0
0000
7BC0
0840
7840
4040
3C40
ENDCHAR
STARTCHAR U+B29A
ENCODING 45722
SWIDTH 935 0
DWIDTH 12 0
BBX 10 11 0 -2
BITMAP
4000
4000
3FC0
0000
FFE0
0000
7BC0
0A40
7A40
4240
3FC0
ENDCHAR
STARTCHAR U+B2A0
ENCODING 45728
SWIDTH 935 0
DWIDTH 12 0
BBX 10 11 0 -2
BITMAP
4000
4000
4000
3FC0
0000
FFE0
0000
7FC0
4040
4040
3FC0
ENDCHAR
STARTCHAR U+B2A1
ENCODING 45729
SWIDTH 935 0
DWIDTH 12 0
BBX 10 11 0 -2
BITMAP
4000
4000
4000
3FC0
0000
FFE0
0000
4040
7FC0
4040
3FC0
ENDCHAR
STARTCHAR U+B2A3
ENCODING 45731
SWIDTH 935 0
DWIDTH 12 0
BBX 10 11 0 -2
BITMAP
4000
4000
4000
3FC0
0000
FFE0
0000
0400
0A00
1100
60C0
ENDCHAR
STARTCHAR U+B2A5
ENCODING 45733
SWIDTH 935 0
DWIDTH 12 0
BBX 10 11 0 -2
BITMAP
4000
4000
4000
3FC0
0000
FFE0
0000
3F80
4040
4040
3F80
ENDCHAR
STARTCHAR U+B2A6
ENCODING 45734
SWIDTH 935 0
DWIDTH 12 0
BBX 10 11 0 -2
BITMAP
4000
4000
4000
3FC0
0000
FFE0
0000
7FC0
0400
0A00
71C0
ENDCHAR
STARTCHAR U+B2AA
ENCODING 45738
SWIDTH 935 0
DWIDTH 12 0
BBX 10 11 0 -2
BITMAP
4000
4000
4000
3FC0
0000
FFE0
0000
7FC0
1100
1100
7FC0
ENDCHAR
STARTCHAR U+B2AC
ENCODING 45740
SWIDTH 935 0
DWIDTH 12 0
BBX 10 11 0 -2
BITMAP
4040
4040
4040
4040
3E40
0040
0040
0040
7FC0
0040
0040
ENDCHAR
STARTCHAR U+B2B0
ENCODING 45744
SWIDTH 935 0
DWIDTH 12 0
BBX 10 11 0 -2
BITMAP
4040
4040
4040
3E40
0040
7FC0
0040
2000
2000
2000
1FC0
ENDCHAR
STARTCHAR U+B2B4
ENCODING 45748
SWIDTH 935 0
DWIDTH 12 0
BBX 10 11 0 -2
BITMAP
4040
4040
3E40
0040
7FC0
0040
3FC0
0040
3FC0
2000
1FC0
ENDCHAR
STARTCHAR U+B2C8
ENCODING 45768
SWIDTH 935 0
DWIDTH 12 0
BBX 10 11 0 -2
BITMAP
4040
4040
4040
4040
4040
4040
4040
3F40
0040
0040
0040
ENDCHAR
STARTCHAR U+B2C9
ENCODING 45769
SWIDTH 935 0
DWIDTH 12 0
BBX 10 11 0 -2
BITMAP
4040
4040
4040
4040
3F40
0040
0000
3FC0
0040
0040
0040
ENDCHAR
STARTCHAR U+B2CC
ENCODING 45772
SWIDTH 935 0
DWIDTH 12 0
BBX 10 11 0 -2
BITMAP
4040
4040
4040
4040
3F40
0040
0040
2000
2000
2000
1FC0
ENDCHAR
STARTCHAR U+B2D0
ENCODING 45776
SWIDTH 935 0
DWIDTH 12 0
BBX 10 11 0 -2
BITMAP
4040
4040
4040
4040
3F40
0040
3FC0
0040
3FC0
2000
1FC0
ENDCHAR
STARTCHAR U+B2D2
ENCODING 45778
SWIDTH 935 0
DWIDTH 12 0
BBX 10 11 0 -2
BITMAP
4040
4040
4040
4040
3F40
0040
3DC0
0540
3D40
2140
1FC0
ENDCHAR
STARTCHAR U+B2D8
ENCODING 45784
SWIDTH 935 0
DWIDTH 12 0
BBX 10 11 0 -2
BITMAP
4040
4040
4040
4040
3F40
0040
0000
3FC0
2040
2040
1FC0
ENDCHAR
STARTCHAR U+B2D9
ENCODING 45785
SWIDTH 935 0
DWIDTH 12 0
BBX 10 11 0 -2
BITMAP
4040
4040
4040
4040
3F40
0040
0000
2040
3FC0
2040
1FC0
ENDCHAR
STARTCHAR U+B2DB
ENCODING 45787
SWIDTH 935 0
DWIDTH 12 0
BBX 10 11 0 -2
BITMAP
4040
4040
4040
4040
3F40
0040
0000
0100
0280
0C40
3020
ENDCHAR
STARTCHAR U+B2DD
ENCODING 45789
SWIDTH 935 0
DWIDTH 12 0
BBX 10 11 0 -2
BITMAP
4040
4040
4040
4040
3F40
0040
0000
1F80
2040
2040
1F80
ENDCHAR
STARTCHAR U+B2E2
ENCODING 45794
SWIDTH 935 0
DWIDTH 12 0
BBX 10 11 0 -2
BITMAP
4040
4040
4040
4040
3F40
0040
0000
3FE0
0880
0880
3FE0
ENDCHAR
STARTCHAR U+B2E4
ENCODING 45796
SWIDTH 935 0
DWIDTH 12 0
BBX 10 11 0 -2
BITMAP
7E40
4040
4040
4040
4070
4040
4040
3F40
0040
0040
0040
ENDCHAR
STARTCHAR U+B2E5
ENCODING 45797
SWIDTH 935 0
DWIDTH 12 0
BBX 10 11 0 -2
BITMAP
7E40
4040
4070
4040
3F40
0040
0000
3FC0
0040
0040
0040
ENDCHAR
STARTCHAR U+B2E6
ENCODING 45798
SWIDTH 935 0
DWIDTH 12 0
BBX 10 11 0 -2
BITMAP
7E40
4040
4070
4040
3F40
0040
0000
3FC0
0440
0440
0440
ENDCHAR
STARTCHAR U+B2E8
ENCODING 45800
SWIDTH 935 0
DWIDTH 12 0
BBX 10 11 0 -2
BITMAP
7E40
4040
4040
4070
3F40
0040
0040
2000
2000
2000
1FC0
ENDCHAR
STARTCHAR U+B2EB
ENCODING 45803
SWIDTH 935 0
DWIDTH 12 0
BBX 10 11 0 -2
BITMAP
7E40
4040
4070
4040
3F40
0040
0000
3FC0
2000
2000
1FC0
ENDCHAR
STARTCHAR U+B2EC
ENCODING 45804
SWIDTH 935 0
DWIDTH 12 0
BBX 10 11 0 -2
BITMAP
7E40
4040
4070
4040
3F40
0040
3FC0
0040
3FC0
2000
1FC0
ENDCHAR
STARTCHAR U+B2ED
ENCODING 45805
SWIDTH 935 0
DWIDTH 12 0
BBX 10 11 0 -2
BITMAP
7E40
4040
4070
4040
3F40
0040
3FC0
0440
3C40
2040
1C40
ENDCHAR
STARTCHAR U+B2EE
ENCODING 45806
SWIDTH 935 0
DWIDTH 12 0
BBX 10 11 0 -2
BITMAP
7E40
4040
4070
4040
3F40
0040
3DC0
0540
3D40
2140
1FC0
ENDCHAR
STARTCHAR U+B2EF
ENCODING 45807
SWIDTH 935 0
DWIDTH 12 0
BBX 10 11 0 -2
BITMAP
7E40
4040
4070
4040
3F40
0040
3A40
0A40
3BC0
2240
1FC0
ENDCHAR
STARTCHAR U+B2F3
ENCODING 45811
SWIDTH 935 0
DWIDTH 12 0
BBX 10 11 0 -2
BITMAP
7E40
4040
4070
4040
3F40
0040
7880
0FE0
7A40
4240
3980
ENDCHAR
STARTCHAR U+B2F4
ENCODING 45812
SWIDTH 935 0
DWIDTH 12 0
BBX 10 11 0 -2
BITMAP
7E40
4040
4070
4040
3F40
0040
0000
3FC0
2040
2040
1FC0
ENDCHAR
STARTCHAR U+B2F5
ENCODING 45813
SWIDTH 935 0
DWIDTH 12 0
BBX 10 11 0 -2
BITMAP
7E40
4040
4070
4040
3F40
0040
0000
2040
3FC0
2040
1FC0
ENDCHAR
STARTCHAR U+B2F7
ENCODING 45815
SWIDTH 935 0
DWIDTH 12 0
BBX 10 11 0 -2
BITMAP
7E40
4040
4070
4040
3F40
0040
0000
0100
0280
0C40
3020
ENDCHAR
STARTCHAR U+B2F8
ENCODING 45816
SWIDTH 935 0
DWIDTH 12 0
BBX 10 11 0 -2
BITMAP
7E40
4040
4070
4040
3F40
0040
0000
0880
0880
1540
2220
ENDCHAR
STARTCHAR U+B2F9
ENCODING 45817
SWIDTH 935 0
DWIDTH 12 0
BBX 10 11 0 -2
BITMAP
7E40
4040
4070
4040
3F40
0040
0000
1F80
2040
2040
1F80
ENDCHAR
STARTCHAR U+B2FA
ENCODING 45818
SWIDTH 935 0
DWIDTH 12 0
BBX 10 11 0 -2
BITMAP
7E40
4040
4070
4040
3F40
0040
0000
3FE0
0100
0680
3860
ENDCHAR
STARTCHAR U+B2FB
ENCODING 45819
SWIDTH 935 0
DWIDTH 12 0
BBX 10 11 0 -2
BITMAP
7E40
4040
4070
4040
3F40
0040
0100
3FE0
0100
0680
3860
ENDCHAR
STARTCHAR U+B2FF
ENCODING 45823
SWIDTH 935 0
DWIDTH 12 0
BBX 10 11 0 -2
BITMAP
7E40
4040
4070
4040
3F40
0040
0700
0000
7FE0
1040
0F80
ENDCHAR
STARTCHAR U+B300
ENCODING 45824
SWIDTH 935 0
DWIDTH 12 0
BBX 10 11 0 -2
BITMAP
7920
4120
4120
4120
4120
41E0
4120
3D20
0120
0120
0120
ENDCHAR
STARTCHAR U+B301
ENCODING 45825
SWIDTH 935 0
DWIDTH 12 0
BBX 9 8 1 1
BITMAP
FA00
8200
8380
8200
7E00
0200
0000
3F80
ENDCHAR
STARTCHAR U+B304
ENCODING 45828
SWIDTH 935 0
DWIDTH 12 0
BBX 10 11 0 -2
BITMAP
7D20
4120
41E0
4120
3F20
0120
0020
2000
2000
2000
1FE0
ENDCHAR
STARTCHAR U+B308
ENCODING 45832
SWIDTH 935 0
DWIDTH 12 0
BBX 10 11 0 -2
BITMAP
7D20
4120
41E0
4120
3F20
0120
3FE0
0020
3FE0
2000
1FE0
ENDCHAR
STARTCHAR U+B310
ENCODING 45840
SWIDTH 935 0
DWIDTH 12 0
BBX 10 11 0 -2
BITMAP
7D20
4120
41E0
4120
3F20
0120
0000
3FE0
2020
2020
1FE0
ENDCHAR
STARTCHAR U+B311
ENCODING 45841
SWIDTH 935 0
DWIDTH 12 0
BBX 10 11 0 -2
BITMAP
7D20
4120
41E0
4120
3F20
0120
0000
2020
3FE0
2020
1FE0
ENDCHAR
STARTCHAR U+B313
ENCODING 45843
SWIDTH 935 0
DWIDTH 12 0
BBX 10 11 0 -2
BITMAP
7D20
4120
41E0
4120
3F20
0120
0000
0080
0080
0340
1C30
ENDCHAR
STARTCHAR U+B314
ENCODING 45844
SWIDTH 935 0
DWIDTH 12 0
BBX 10 11 0 -2
BITMAP
7D20
4120
41E0
4120
3F20
0120
0000
0840
0840
14A0
2310
ENDCHAR
STARTCHAR U+B315
ENCODING 45845
SWIDTH 935 0
DWIDTH 12 0
BBX 10 11 0 -2
BITMAP
7D20
4120
41E0
4120
3F20
0120
0000
1FC0
2020
2020
1FC0
ENDCHAR
STARTCHAR U+B31C
ENCODING 45852
SWIDTH 935 0
DWIDTH 12 0
BBX 10 11 0 -2
BITMAP
7E40
4040
4070
4040
4040
4040
4070
3F40
0040
0040
0040
ENDCHAR
STARTCHAR U+B354
ENCODING 45908
SWIDTH 935 0
DWIDTH 12 0
BBX 10 11 0 -2
BITMAP
7E40
4040
4040
41C0
4040
4040
4040
3F40
0040
0040
0040
ENDCHAR
STARTCHAR U+B355
ENCODING 45909
SWIDTH 935 0
DWIDTH 12 0
BBX 10 11 0 -2
BITMAP
7E40
4040
41C0
4040
3F40
0040
0000
3FC0
0040
0040
0040
ENDCHAR
STARTCHAR U+B356
ENCODING 45910
SWIDTH 935 0
DWIDTH 12 0
BBX 10 11 0 -2
BITMAP
7E40
4040
41C0
4040
3F40
0040
0000
3FC0
0440
0440
0440
ENDCHAR
STARTCHAR U+B358
ENCODING 45912
SWIDTH 935 0
DWIDTH 12 0
BBX 10 11 0 -2
BITMAP
7E40
4040
41C0
4040
3F40
0040
0040
2000
2000
2000
1FC0
ENDCHAR
STARTCHAR U+B35B
ENCODING 45915
SWIDTH 935 0
DWIDTH 12 0
BBX 10 11 0 -2
BITMAP
7E40
4040
41C0
4040
3F40
0040
0000
3FC0
2000
2000
1FC0
ENDCHAR
STARTCHAR U+B35C
ENCODING 45916
SWIDTH 935 0
DWIDTH 12 0
BBX 10 11 0 -2
BITMAP
7E40
4040
41C0
4040
3F40
0040
3FC0
0040
3FC0
2000
1FC0
ENDCHAR
STARTCHAR U+B35E
ENCODING 45918
SWIDTH 935 0
DWIDTH 12 0
BBX 10 11 0 -2
BITMAP
7E40
4040
41C0
4040
3F40
0040
3DC0
0540
3D40
2140
1FC0
ENDCHAR
STARTCHAR U+B35F
ENCODING 45919
SWIDTH 935 0
DWIDTH 12 0
BBX 10 11 0 -2
BITMAP
7E40
4040
41C0
4040
3F40
0040
3D40
0540
3DC0
2140
1FC0
ENDCHAR
STARTCHAR U+B364
ENCODING 45924
SWIDTH 935 0
DWIDTH 12 0
BBX 10 11 0 -2
BITMAP
7E40
4040
41C0
4040
3F40
0040
0000
3FC0
2040
2040
1FC0
ENDCHAR
STARTCHAR U+B365
ENCODING 45925
SWIDTH 935 0
DWIDTH 12 0
BBX 10 11 0 -2
BITMAP
7E40
4040
41C0
4040
3F40
0040
0000
2040
3FC0
2040
1FC0
ENDCHAR
STARTCHAR U+B367
ENCODING 45927
SWIDTH 935 0
DWIDTH 12 0
BBX 10 11 0 -2
BITMAP
7E40
4040
41C0
4040
3F40
0040
0000
0200
0500
0880
3060
ENDCHAR
STARTCHAR U+B369
ENCODING 45929
SWIDTH 935 0
DWIDTH 12 0
BBX 10 11 0 -2
BITMAP
7E40
4040
41C0
4040
3F40
0040
0000
1F80
2040
2040
1F80
ENDCHAR
STARTCHAR U+B36B
ENCODING 45931
SWIDTH 935 0
DWIDTH 12 0
BBX 10 11 0 -2
BITMAP
7E40
4040
41C0
4040
3F40
0040
0100
3FE0
0100
0680
3860
ENDCHAR
STARTCHAR U+B36E
ENCODING 45934
SWIDTH 935 0
DWIDTH 12 0
BBX 10 11 0 -2
BITMAP
7E40
4040
41C0
4040
3F40
0040
0000
3FE0
0880
0880
3FE0
ENDCHAR
STARTCHAR U+B370
ENCODING 45936
SWIDTH 935 0
DWIDTH 12 0
BBX 8 11 1 -2
BITMAP
F1
81
81
81
87
81
81
79
01
01
01
ENDCHAR
STARTCHAR U+B371
ENCODING 45937
SWIDTH 935 0
DWIDTH 12 0
BBX 9 8 1 1
BITMAP
F900
8100
8700
8100
7D00
0100
0000
3F80
ENDCHAR
STARTCHAR U+B374
ENCODING 45940
SWIDTH 935 0
DWIDTH 12 0
BBX 10 11 0 -2
BITMAP
7CA0
40A0
43A0
40A0
3EA0
00A0
0020
2000
2000
2000
1FE0
ENDCHAR
STARTCHAR U+B378
ENCODING 45944
SWIDTH 935 0
DWIDTH 12 0
BBX 10 11 0 -2
BITMAP
7CA0
40A0
43A0
40A0
3EA0
00A0
3FE0
0020
3FE0
2000
1FE0
ENDCHAR
STARTCHAR U+B380
ENCODING 45952
SWIDTH 935 0
DWIDTH 12 0
BBX 10 11 0 -2
BITMAP
7CA0
40A0
43A0
40A0
3EA0
00A0
0000
3FE0
2020
2020
1FE0
ENDCHAR
STARTCHAR U+B381
ENCODING 45953
SWIDTH 935 0
DWIDTH 12 0
BBX 10 11 0 -2
BITMAP
7CA0
40A0
43A0
40A0
3EA0
00A0
0000
2020
3FE0
2020
1FE0
ENDCHAR
STARTCHAR U+B383
ENCODING 45955
SWIDTH 935 0
DWIDTH 12 0
BBX 10 11 0 -2
BITMAP
7CA0
40A0
43A0
40A0
3EA0
00A0
0000
0080
0080
0340
1C30
ENDCHAR
STARTCHAR U+B384
ENCODING 45956
SWIDTH 935 0
DWIDTH 12 0
BBX 10 11 0 -2
BITMAP
7CA0
40A0
43A0
40A0
3EA0
00A0
0000
0840
0840
14A0
2310
ENDCHAR
STARTCHAR U+B385
ENCODING 45957
SWIDTH 935 0
DWIDTH 12 0
BBX 10 11 0 -2
BITMAP
7CA0
40A0
43A0
40A0
3EA0
00A0
0000
1FC0
2020
2020
1FC0
ENDCHAR
STARTCHAR U+B38C
ENCODING 45964
SWIDTH 935 0
DWIDTH 12 0
BBX 10 11 0 -2
BITMAP
7E40
4040
41C0
4040
4040
41C0
4040
3F40
0040
0040
0040
ENDCHAR
STARTCHAR U+B390
ENCODING 45968
SWIDTH 935 0
DWIDTH 12 0
BBX 10 11 0 -2
BITMAP
7E40
41C0
4040
41C0
3F40
0040
0040
2000
2000
2000
1FC0
ENDCHAR
STARTCHAR U+B394
ENCODING 45972
SWIDTH 935 0
DWIDTH 12 0
BBX 10 11 0 -2
BITMAP
7E40
41C0
4040
41C0
3F40
0040
3FC0
0040
3FC0
2000
1FC0
ENDCHAR
STARTCHAR U+B3A0
ENCODING 45984
SWIDTH 935 0
DWIDTH 12 0
BBX 10 11 0 -2
BITMAP
7E40
41C0
4040
41C0
3F40
0040
0000
0880
0880
1540
2220
ENDCHAR
STARTCHAR U+B3A1
ENCODING 45985
SWIDTH 935 0
DWIDTH 12 0
BBX 10 11 0 -2
BITMAP
7E40
41C0
4040
41C0
3F40
0040
0000
1F80
2040
2040
1F80
ENDCHAR
STARTCHAR U+B3A8
ENCODING 45992
SWIDTH 935 0
DWIDTH 12 0
BBX 8 11 1 -2
BITMAP
F1
81
87
81
81
87
81
79
01
01
01
ENDCHAR
STARTCHAR U+B3AC
ENCODING 45996
SWIDTH 935 0
DWIDTH 12 0
BBX 10 11 0 -2
BITMAP
7CA0
43A0
40A0
43A0
3EA0
00A0
0020
2000
2000
2000
1FE0
ENDCHAR
STARTCHAR U+B3C4
ENCODING 46020
SWIDTH 935 0
DWIDTH 12 0
BBX 10 10 0 -1
BITMAP
7FC0
4000
4000
4000
4000
3FC0
0000
0400
0400
FFC0
ENDCHAR
STARTCHAR U+B3C5
ENCODING 46021
SWIDTH 935 0
DWIDTH 12 0
BBX 10 11 0 -2
BITMAP
7FC0
4000
4000
3FC0
0400
FFE0
0000
7FC0
0040
0040
0040
ENDCHAR
STARTCHAR U+B3C8
ENCODING 46024
SWIDTH 935 0
DWIDTH 12 0
BBX 10 11 0 -2
BITMAP
7FC0
4000
4000
3FC0
0000
0400
FFE0
4000
4000
4000
3FC0
ENDCHAR
STARTCHAR U+B3CB
ENCODING 46027
SWIDTH 935 0
DWIDTH 12 0
BBX 10 11 0 -2
BITMAP
7FC0
4000
4000
3FC0
0400
FFE0
0000
7FC0
4000
4000
3FC0
ENDCHAR
STARTCHAR U+B3CC
ENCODING 46028
SWIDTH 935 0
DWIDTH 12 0
BBX 10 11 0 -2
BITMAP
7FC0
4000
3FC0
0400
FFE0
0000
7FC0
0040
7FC0
4000
3FC0
ENDCHAR
STARTCHAR U+B3CE
ENCODING 46030
SWIDTH 935 0
DWIDTH 12 0
BBX 10 11 0 -2
BITMAP
7FC0
4000
3FC0
0400
FFE0
0000
7BC0
0A40
7A40
4240
3FC0
ENDCHAR
STARTCHAR U+B3D0
ENCODING 46032
SWIDTH 935 0
DWIDTH 12 0
BBX 10 11 0 -2
BITMAP
7FC0
4000
3FC0
0400
FFE0
0000
7900
0900
7A80
4440
3820
ENDCHAR
STARTCHAR U+B3D4
ENCODING 46036
SWIDTH 935 0
DWIDTH 12 0
BBX 10 11 0 -2
BITMAP
7FC0
4000
4000
3FC0
0400
FFE0
0000
7FC0
4040
4040
3FC0
ENDCHAR
STARTCHAR U+B3D5
ENCODING 46037
SWIDTH 935 0
DWIDTH 12 0
BBX 10 11 0 -2
BITMAP
7FC0
4000
4000
3FC0
0400
FFE0
0000
4040
7FC0
4040
3FC0
ENDCHAR
STARTCHAR U+B3D7
ENCODING 46039
SWIDTH 935 0
DWIDTH 12 0
BBX 10 11 0 -2
BITMAP
7FC0
4000
4000
3FC0
0400
FFE0
0000
0400
0A00
1100
60C0
ENDCHAR
STARTCHAR U+B3D9
ENCODING 46041
SWIDTH 935 0
DWIDTH 12 0
BBX 10 11 0 -2
BITMAP
7FC0
4000
4000
3FC0
0400
FFE0
0000
3F80
4040
4040
3F80
ENDCHAR
STARTCHAR U+B3DB
ENCODING 46043
SWIDTH 935 0
DWIDTH 12 0
BBX 10 11 0 -2
BITMAP
7FC0
4000
3FC0
0400
FFE0
0000
0200
7FC0
0400
1B00
60C0
ENDCHAR
STARTCHAR U+B3DD
ENCODING 46045
SWIDTH 935 0
DWIDTH 12 0
BBX 10 11 0 -2
BITMAP
7FC0
4000
3FC0
0400
FFE0
0000
7FC0
4000
7F80
4000
3FC0
ENDCHAR
STARTCHAR U+B3E0
ENCODING 46048
SWIDTH 935 0
DWIDTH 12 0
BBX 10 11 0 -2
BITMAP
7E40
4040
4040
4040
3E70
0040
0840
0840
7F40
0040
0040
ENDCHAR
STARTCHAR U+B3E4
ENCODING 46052
SWIDTH 935 0
DWIDTH 12 0
BBX 10 11 0 -2
BITMAP
7E40
4040
4040
3E70
0840
7F40
0040
2000
2000
2000
1FC0
ENDCHAR
STARTCHAR U+B3E8
ENCODING 46056
SWIDTH 935 0
DWIDTH 12 0
BBX 10 11 0 -2
BITMAP
7E40
4040
3E40
0870
7FC0
0000
3FC0
0040
3FC0
2000
1FC0
ENDCHAR
STARTCHAR U+B3FC
ENCODING 46076
SWIDTH 935 0
DWIDTH 12 0
BBX 10 11 0 -2
BITMAP
7EA0
40A0
40A0
40A0
3EE0
00A0
10A0
10A0
7EA0
00A0
00A0
ENDCHAR
STARTCHAR U+B410
ENCODING 46096
SWIDTH 935 0
DWIDTH 12 0
BBX 10 11 0 -2
BITMAP
7CA0
40A0
40E0
3CA0
10A0
7EA0
00A0
0880
0880
1540
2220
ENDCHAR
STARTCHAR U+B418
ENCODING 46104
SWIDTH 935 0
DWIDTH 12 0
BBX 10 11 0 -2
BITMAP
7E40
4040
4040
4040
3E40
0040
0840
0840
7F40
0040
0040
ENDCHAR
STARTCHAR U+B41C
ENCODING 46108
SWIDTH 935 0
DWIDTH 12 0
BBX 10 11 0 -2
BITMAP
7E40
4040
4040
3E40
0840
7F40
0040
2040
2000
2000
1FC0
ENDCHAR
STARTCHAR U+B420
ENCODING 46112
SWIDTH 935 0
DWIDTH 12 0
BBX 10 11 0 -2
BITMAP
7E40
4040
3E40
0840
7F40
0040
3FC0
0040
3FC0
2000
1FC0
ENDCHAR
STARTCHAR U+B428
ENCODING 46120
SWIDTH 935 0
DWIDTH 12 0
BBX 10 11 0 -2
BITMAP
7E40
4040
4040
3E40
0840
7F40
0040
3FC0
2040
2040
1FC0
ENDCHAR
STARTCHAR U+B429
ENCODING 46121
SWIDTH 935 0
DWIDTH 12 0
BBX 10 11 0 -2
BITMAP
7E40
4040
4040
3E40
0840
7F40
0040
2040
3FC0
2040
1FC0
ENDCHAR
STARTCHAR U+B42B
ENCODING 46123
SWIDTH 935 0
DWIDTH 12 0
BBX 10 11 0 -2
BITMAP
7E40
4040
4040
3E40
0840
7F40
0040
0200
0500
0880
3060
ENDCHAR
STARTCHAR U+B434
ENCODING 46132
SWIDTH 935 0
DWIDTH 12 0
BBX 10 10 0 -1
BITMAP
7FC0
4000
4000
4000
4000
3FC0
0000
1100
1100
FFC0
ENDCHAR
STARTCHAR U+B450
ENCODING 46160
SWIDTH 935 0
DWIDTH 12 0
BBX 10 11 0 -2
BITMAP
7FC0
4000
4000
4000
3FC0
0000
FFE0
0400
0400
0400
0400
ENDCHAR
STARTCHAR U+B451
ENCODING 46161
SWIDTH 935 0
DWIDTH 12 0
BBX 10 11 0 -2
BITMAP
7FC0
4000
4000
3FC0
0000
FFE0
0400
7FC0
0040
0040
0040
ENDCHAR
STARTCHAR U+B454
ENCODING 46164
SWIDTH 935 0
DWIDTH 12 0
BBX 10 11 0 -2
BITMAP
7FC0
4000
4000
3FC0
0000
0000
FFE0
4400
4400
4000
3FC0
ENDCHAR
STARTCHAR U+B458
ENCODING 46168
SWIDTH 935 0
DWIDTH 12 0
BBX 10 11 0 -2
BITMAP
7FC0
4000
3FC0
0000
FFE0
0400
7FC0
0040
7FC0
4000
3FC0
ENDCHAR
STARTCHAR U+B460
ENCODING 46176
SWIDTH 935 0
DWIDTH 12 0
BBX 10 11 0 -2
BITMAP
7FC0
4000
4000
3FC0
0000
FFE0
0400
7FC0
4040
4040
3FC0
ENDCHAR
STARTCHAR U+B461
ENCODING 46177
SWIDTH 935 0
DWIDTH 12 0
BBX 10 11 0 -2
BITMAP
7FC0
4000
4000
3FC0
0000
FFE0
0400
4040
7FC0
4040
3FC0
ENDCHAR
STARTCHAR U+B463
ENCODING 46179
SWIDTH 935 0
DWIDTH 12 0
BBX 10 11 0 -2
BITMAP
7FC0
4000
4000
3FC0
0000
FFE0
0400
0400
0A00
1100
60C0
ENDCHAR
STARTCHAR U+B465
ENCODING 46181
SWIDTH 935 0
DWIDTH 12 0
BBX 10 11 0 -2
BITMAP
7FC0
4000
4000
3FC0
0000
FFE0
0400
3F80
4040
4040
3F80
ENDCHAR
STARTCHAR U+B46C
ENCODING 46188
SWIDTH 935 0
DWIDTH 12 0
BBX 10 11 0 -2
BITMAP
7E40
4040
4040
4040
3E40
0040
7F40
0840
0BC0
0840
0840
ENDCHAR
STARTCHAR U+B480
ENCODING 46208
SWIDTH 935 0
DWIDTH 12 0
BBX 10 11 0 -2
BITMAP
7C40
4040
40C0
3C40
0040
7F40
0840
0880
0880
1540
2220
ENDCHAR
STARTCHAR U+B488
ENCODING 46216
SWIDTH 935 0
DWIDTH 12 0
BBX 8 11 1 -2
BITMAP
F9
81
81
79
01
01
FD
21
27
21
21
ENDCHAR
STARTCHAR U+B49D
ENCODING 46237
SWIDTH 935 0
DWIDTH 12 0
BBX 10 11 0 -2
BITMAP
7CA0
40A0
41A0
3CA0
00A0
7EA0
10A0
1FC0
2020
2020
1FC0
ENDCHAR
STARTCHAR U+B4A4
ENCODING 46244
SWIDTH 935 0
DWIDTH 12 0
BBX 10 11 0 -2
BITMAP
7E40
4040
4040
4040
3E40
0040
7F40
0840
0840
0840
0840
ENDCHAR
STARTCHAR U+B4A8
ENCODING 46248
SWIDTH 935 0
DWIDTH 12 0
BBX 10 11 0 -2
BITMAP
7C40
4040
4040
3C40
0040
7FC0
0840
2840
2000
2000
1FC0
ENDCHAR
STARTCHAR U+B4AC
ENCODING 46252
SWIDTH 935 0
DWIDTH 12 0
BBX 10 11 0 -2
BITMAP
7C40
4040
3C40
0040
0040
7FC0
3FC0
0040
3FC0
2000
1FC0
ENDCHAR
STARTCHAR U+B4B5
ENCODING 46261
SWIDTH 935 0
DWIDTH 12 0
BBX 10 11 0 -2
BITMAP
7C40
4040
4040
3C40
0040
7FC0
0840
2040
3FC0
2040
1FC0
ENDCHAR
STARTCHAR U+B4B7
ENCODING 46263
SWIDTH 935 0
DWIDTH 12 0
BBX 10 11 0 -2
BITMAP
7C40
4040
4040
3C40
0040
7FC0
0840
0200
0500
0880
3060
ENDCHAR
STARTCHAR U+B4B9
ENCODING 46265
SWIDTH 935 0
DWIDTH 12 0
BBX 10 11 0 -2
BITMAP
7C40
4040
4040
3C40
0040
7FC0
0840
1F80
2040
2040
1F80
ENDCHAR
STARTCHAR U+B4C0
ENCODING 46272
SWIDTH 935 0
DWIDTH 12 0
BBX 10 11 0 -2
BITMAP
7FC0
4000
4000
4000
3FC0
0000
FFE0
1100
1100
1100
1100
ENDCHAR
STARTCHAR U+B4C4
ENCODING 46276
SWIDTH 935 0
DWIDTH 12 0
BBX 10 11 0 -2
BITMAP
7FC0
4000
4000
3FC0
0000
0000
FFE0
5100
5100
4000
3FC0
ENDCHAR
STARTCHAR U+B4C8
ENCODING 46280
SWIDTH 935 0
DWIDTH 12 0
BBX 10 11 0 -2
BITMAP
7FC0
4000
3FC0
0000
FFE0
1100
7FC0
0040
7FC0
4000
3FC0
ENDCHAR
STARTCHAR U+B4D0
ENCODING 46288
SWIDTH 935 0
DWIDTH 12 0
BBX 10 11 0 -2
BITMAP
7FC0
4000
4000
3FC0
0000
FFE0
1100
7FC0
4040
4040
3FC0
ENDCHAR
STARTCHAR U+B4D5
ENCODING 46293
SWIDTH 935 0
DWIDTH 12 0
BBX 10 11 0 -2
BITMAP
7FC0
4000
4000
3FC0
0000
FFE0
1100
3F80
4040
4040
3F80
ENDCHAR
STARTCHAR U+B4DC
ENCODING 46300
SWIDTH 935 0
DWIDTH 12 0
BBX 10 10 0 -1
BITMAP
7FC0
4000
4000
4000
4000
3FC0
0000
0000
0000
FFC0
ENDCHAR
STARTCHAR U+B4DD
ENCODING 46301
SWIDTH 935 0
DWIDTH 12 0
BBX 10 11 0 -2
BITMAP
7FC0
4000
4000
3FC0
0000
FFE0
0000
7FC0
0040
0040
0040
ENDCHAR
STARTCHAR U+B4E0
ENCODING 46304
SWIDTH 935 0
DWIDTH 12 0
BBX 10 11 0 -2
BITMAP
7FC0
4000
4000
3FC0
0000
0000
FFE0
4000
4000
4000
3FC0
ENDCHAR
STARTCHAR U+B4E3
ENCODING 46307
SWIDTH 935 0
DWIDTH 12 0
BBX 10 11 0 -2
BITMAP
7FC0
4000
4000
3FC0
0000
FFE0
0000
7FC0
4000
4000
3FC0
ENDCHAR
STARTCHAR U+B4E4
ENCODING 46308
SWIDTH 935 0
DWIDTH 12 0
BBX 10 11 0 -2
BITMAP
7FC0
4000
3FC0
0000
FFE0
0000
7FC0
0040
7FC0
4000
3FC0
ENDCHAR
STARTCHAR U+B4E6
ENCODING 46310
SWIDTH 935 0
DWIDTH 12 0
BBX 10 11 0 -2
BITMAP
7FC0
4000
3FC0
0000
FFE0
0000
7BC0
0A40
7A40
4240
3FC0
ENDCHAR
STARTCHAR U+B4EC
ENCODING 46316
SWIDTH 935 0
DWIDTH 12 0
BBX 10 11 0 -2
BITMAP
7FC0
4000
4000
3FC0
0000
FFE0
0000
7FC0
4040
4040
3FC0
ENDCHAR
STARTCHAR U+B4ED
ENCODING 46317
SWIDTH 935 0
DWIDTH 12 0
BBX 10 11 0 -2
BITMAP
7FC0
4000
4000
3FC0
0000
FFE0
0000
4040
7FC0
4040
3FC0
ENDCHAR
STARTCHAR U+B4EF
ENCODING 46319
SWIDTH 935 0
DWIDTH 12 0
BBX 10 11 0 -2
BITMAP
7FC0
4000
4000
3FC0
0000
FFE0
0000
0400
0A00
1100
60C0
ENDCHAR
STARTCHAR U+B4F1
ENCODING 46321
SWIDTH 935 0
DWIDTH 12 0
BBX 10 11 0 -2
BITMAP
7FC0
4000
4000
3FC0
0000
FFE0
0000
3F80
4040
4040
3F80
ENDCHAR
STARTCHAR U+B4F8
ENCODING 46328
SWIDTH 935 0
DWIDTH 12 0
BBX 10 11 0 -2
BITMAP
7E40
4040
4040
4040
3E40
0040
0040
0040
7FC0
0040
0040
ENDCHAR
STARTCHAR U+B514
ENCODING 46356
SWIDTH 935 0
DWIDTH 12 0
BBX 10 11 0 -2
BITMAP
7E40
4040
4040
4040
4040
4040
4040
3F40
0040
0040
0040
ENDCHAR
STARTCHAR U+B515
ENCODING 46357
SWIDTH 935 0
DWIDTH 12 0
BBX 10 11 0 -2
BITMAP
7E40
4040
4040
4040
3F40
0040
0000
3FC0
0040
0040
0040
ENDCHAR
STARTCHAR U+B518
ENCODING 46360
SWIDTH 935 0
DWIDTH 12 0
BBX 10 11 0 -2
BITMAP
7E40
4040
4040
4040
3F40
0040
0040
2000
2000
2000
1FC0
ENDCHAR
STARTCHAR U+B51B
ENCODING 46363
SWIDTH 935 0
DWIDTH 12 0
BBX 10 11 0 -2
BITMAP
7E40
4040
4040
4040
3F40
0040
0000
3FC0
2000
2000
1FC0
ENDCHAR
STARTCHAR U+B51C
ENCODING 46364
SWIDTH 935 0
DWIDTH 12 0
BBX 10 11 0 -2
BITMAP
7E40
4040
4040
4040
3F40
0040
3FC0
0040
3FC0
2000
1FC0
ENDCHAR
STARTCHAR U+B524
ENCODING 46372
SWIDTH 935 0
DWIDTH 12 0
BBX 10 11 0 -2
BITMAP
7E40
4040
4040
4040
3F40
0040
0000
3FC0
2040
2040
1FC0
ENDCHAR
STARTCHAR U+B525
ENCODING 46373
SWIDTH 935 0
DWIDTH 12 0
BBX 10 11 0 -2
BITMAP
7E40
4040
4040
4040
3F40
0040
0000
2040
3FC0
2040
1FC0
ENDCHAR
STARTCHAR U+B527
ENCODING 46375
SWIDTH 935 0
DWIDTH 12 0
BBX 10 11 0 -2
BITMAP
7E40
4040
4040
4040
3F40
0040
0000
0100
0280
0C40
3020
ENDCHAR
STARTCHAR U+B528
ENCODING 46376
SWIDTH 935 0
DWIDTH 12 0
BBX 10 11 0 -2
BITMAP
7E40
4040
4040
4040
3F40
0040
0000
0880
0880
1540
2220
ENDCHAR
STARTCHAR U+B529
ENCODING 46377
SWIDTH 935 0
DWIDTH 12 0
BBX 10 11 0 -2
BITMAP
7E40
4040
4040
4040
3F40
0040
0000
1F80
2040
2040
1F80
ENDCHAR
STARTCHAR U+B52A
ENCODING 46378
SWIDTH 935 0
DWIDTH 12 0
BBX 10 11 0 -2
BITMAP
7E40
4040
4040
4040
3F40
0040
0000
3FE0
0100
0680
3860
ENDCHAR
STARTCHAR U+B530
ENCODING 46384
SWIDTH 935 0
DWIDTH 12 0
BBX 10 11 0 -2
BITMAP
7F40
4840
4840
4840
4870
4840
4840
4840
3F40
0040
0040
ENDCHAR
STARTCHAR U+B531
ENCODING 46385
SWIDTH 935 0
DWIDTH 12 0
BBX 10 11 0 -2
BITMAP
7F40
4840
4870
4840
3F40
0040
0000
3FC0
0040
0040
0040
ENDCHAR
STARTCHAR U+B534
ENCODING 46388
SWIDTH 935 0
DWIDTH 12 0
BBX 10 11 0 -2
BITMAP
7F40
4840
4840
4870
3F40
0040
0040
2000
2000
2000
1FC0
ENDCHAR
STARTCHAR U+B538
ENCODING 46392
SWIDTH 935 0
DWIDTH 12 0
BBX 10 11 0 -2
BITMAP
7F40
4840
4870
4840
3F40
0040
3FC0
0040
3FC0
2000
1FC0
ENDCHAR
STARTCHAR U+B540
ENCODING 46400
SWIDTH 935 0
DWIDTH 12 0
BBX 10 11 0 -2
BITMAP
7F40
4840
4870
4840
3F40
0040
0000
3FC0
2040
2040
1FC0
ENDCHAR
STARTCHAR U+B541
ENCODING 46401
SWIDTH 935 0
DWIDTH 12 0
BBX 10 11 0 -2
BITMAP
7F40
4840
4870
4840
3F40
0040
0000
2040
3FC0
2040
1FC0
ENDCHAR
STARTCHAR U+B543
ENCODING 46403
SWIDTH 935 0
DWIDTH 12 0
BBX 10 11 0 -2
BITMAP
7F40
4840
4870
4840
3F40
0040
0000
0100
0280
0C40
3020
ENDCHAR
STARTCHAR U+B544
ENCODING 46404
SWIDTH 935 0
DWIDTH 12 0
BBX 10 11 0 -2
BITMAP
7F40
4840
4870
4840
3F40
0040
0000
0880
0880
1540
2220
ENDCHAR
STARTCHAR U+B545
ENCODING 46405
SWIDTH 935 0
DWIDTH 12 0
BBX 10 11 0 -2
BITMAP
7F40
4840
4870
4840
3F40
0040
0000
1F80
2040
2040
1F80
ENDCHAR
STARTCHAR U+B54B
ENCODING 46411
SWIDTH 935 0
DWIDTH 12 0
BBX 10 11 0 -2
BITMAP
7F40
4840
4870
4840
3F40
0040
0700
0000
7FE0
1040
0F80
ENDCHAR
STARTCHAR U+B54C
ENCODING 46412
SWIDTH 935 0
DWIDTH 12 0
BBX 10 11 0 -2
BITMAP
7D20
5120
5120
5120
5120
51E0
5120
5120
3D20
0120
0120
ENDCHAR
STARTCHAR U+B54D
ENCODING 46413
SWIDTH 935 0
DWIDTH 12 0
BBX 9 8 1 1
BITMAP
FE00
9200
9380
9200
7E00
0200
0000
3F80
ENDCHAR
STARTCHAR U+B550
ENCODING 46416
SWIDTH 935 0
DWIDTH 12 0
BBX 10 11 0 -2
BITMAP
7F20
4920
49E0
4920
3F20
0120
0020
2000
2000
2000
1FE0
ENDCHAR
STARTCHAR U+B554
ENCODING 46420
SWIDTH 935 0
DWIDTH 12 0
BBX 10 11 0 -2
BITMAP
7F20
4920
49E0
4920
3F20
0120
3FE0
0020
3FE0
2000
1FE0
ENDCHAR
STARTCHAR U+B55C
ENCODING 46428
SWIDTH 935 0
DWIDTH 12 0
BBX 10 11 0 -2
BITMAP
7F20
4920
49E0
4920
3F20
0120
0000
3FE0
2020
2020
1FE0
ENDCHAR
STARTCHAR U+B55D
ENCODING 46429
SWIDTH 935 0
DWIDTH 12 0
BBX 10 11 0 -2
BITMAP
7F20
4920
49E0
4920
3F20
0120
0000
2020
3FE0
2020
1FE0
ENDCHAR
STARTCHAR U+B55F
ENCODING 46431
SWIDTH 935 0
DWIDTH 12 0
BBX 10 11 0 -2
BITMAP
7F20
4920
49E0
4920
3F20
0120
0000
0080
0080
0340
1C30
ENDCHAR
STARTCHAR U+B560
ENCODING 46432
SWIDTH 935 0
DWIDTH 12 0
BBX 10 11 0 -2
BITMAP
7F20
4920
49E0
4920
3F20
0120
0000
0840
0840
14A0
2310
ENDCHAR
STARTCHAR U+B561
ENCODING 46433
SWIDTH 935 0
DWIDTH 12 0
BBX 10 11 0 -2
BITMAP
7F20
4920
49E0
4920
3F20
0120
0000
1FC0
2020
2020
1FC0
ENDCHAR
STARTCHAR U+B5A0
ENCODING 46496
SWIDTH 935 0
DWIDTH 12 0
BBX 10 11 0 -2
BITMAP
7F40
4840
4840
49C0
4840
4840
4840
4840
3F40
0040
0040
ENDCHAR
STARTCHAR U+B5A1
ENCODING 46497
SWIDTH 935 0
DWIDTH 12 0
BBX 10 11 0 -2
BITMAP
7F40
4840
49C0
4840
3F40
0040
0000
3FC0
0040
0040
0040
ENDCHAR
STARTCHAR U+B5A4
ENCODING 46500
SWIDTH 935 0
DWIDTH 12 0
BBX 10 11 0 -2
BITMAP
7F40
4840
49C0
4840
3F40
0040
0040
2000
2000
2000
1FC0
ENDCHAR
STARTCHAR U+B5A8
ENCODING 46504
SWIDTH 935 0
DWIDTH 12 0
BBX 10 11 0 -2
BITMAP
7F40
4840
49C0
4840
3F40
0040
3FC0
0040
3FC0
2000
1FC0
ENDCHAR
STARTCHAR U+B5AA
ENCODING 46506
SWIDTH 935 0
DWIDTH 12 0
BBX 10 11 0 -2
BITMAP
7F40
4840
49C0
4840
3F40
0040
3DC0
0540
3D40
2140
1FC0
ENDCHAR
STARTCHAR U+B5AB
ENCODING 46507
SWIDTH 935 0
DWIDTH 12 0
BBX 10 11 0 -2
BITMAP
7F40
4840
49C0
4840
3F40
0040
3D40
0540
3DC0
2140
1FC0
ENDCHAR
STARTCHAR U+B5B0
ENCODING 46512
SWIDTH 935 0
DWIDTH 12 0
BBX 10 11 0 -2
BITMAP
7F40
4840
49C0
4840
3F40
0040
0000
3FC0
2040
2040
1FC0
ENDCHAR
STARTCHAR U+B5B1
ENCODING 46513
SWIDTH 935 0
DWIDTH 12 0
BBX 10 11 0 -2
BITMAP
7F40
4840
49C0
4840
3F40
0040
0000
2040
3FC0
2040
1FC0
ENDCHAR
STARTCHAR U+B5B3
ENCODING 46515
SWIDTH 935 0
DWIDTH 12 0
BBX 10 11 0 -2
BITMAP
7F40
4840
49C0
4840
3F40
0040
0000
0200
0500
0880
3060
ENDCHAR
STARTCHAR U+B5B4
ENCODING 46516
SWIDTH 935 0
DWIDTH 12 0
BBX 10 11 0 -2
BITMAP
7F40
4840
49C0
4840
3F40
0040
0000
0880
0880
1540
2220
ENDCHAR
STARTCHAR U+B5B5
ENCODING 46517
SWIDTH 935 0
DWIDTH 12 0
BBX 10 11 0 -2
BITMAP
7F40
4840
49C0
4840
3F40
0040
0000
1F80
2040
2040
1F80
ENDCHAR
STARTCHAR U+B5BB
ENCODING 46523
SWIDTH 935 0
DWIDTH 12 0
BBX 10 11 0 -2
BITMAP
7F40
4840
49C0
4840
3F40
0040
0700
0000
7FE0
1040
0F80
ENDCHAR
STARTCHAR U+B5BC
ENCODING 46524
SWIDTH 935 0
DWIDTH 12 0
BBX 8 11 1 -2
BITMAP
F9
A1
A1
A1
A7
A1
A1
A1
79
01
01
ENDCHAR
STARTCHAR U+B5BD
ENCODING 46525
SWIDTH 935 0
DWIDTH 12 0
BBX 9 8 1 1
BITMAP
FD00
9100
9700
9100
7D00
0100
0000
3F80
ENDCHAR
STARTCHAR U+B5C0
ENCODING 46528
SWIDTH 935 0
DWIDTH 12 0
BBX 10 11 0 -2
BITMAP
7EA0
48A0
4BA0
48A0
3EA0
00A0
0020
2000
2000
2000
1FE0
ENDCHAR
STARTCHAR U+B5C4
ENCODING 46532
SWIDTH 935 0
DWIDTH 12 0
BBX 10 11 0 -2
BITMAP
7EA0
48A0
4BA0
48A0
3EA0
00A0
3FE0
0020
3FE0
2000
1FE0
ENDCHAR
STARTCHAR U+B5CC
ENCODING 46540
SWIDTH 935 0
DWIDTH 12 0
BBX 10 11 0 -2
BITMAP
7EA0
48A0
4BA0
48A0
3EA0
00A0
0000
3FE0
2020
2020
1FE0
ENDCHAR
STARTCHAR U+B5CD
ENCODING 46541
SWIDTH 935 0
DWIDTH 12 0
BBX 10 11 0 -2
BITMAP
7EA0
48A0
4BA0
48A0
3EA0
00A0
0000
2020
3FE0
2020
1FE0
ENDCHAR
STARTCHAR U+B5CF
ENCODING 46543
SWIDTH 935 0
DWIDTH 12 0
BBX 10 11 0 -2
BITMAP
7EA0
48A0
4BA0
48A0
3EA0
00A0
0000
0080
0080
0340
1C30
ENDCHAR
STARTCHAR U+B5D0
ENCODING 46544
SWIDTH 935 0
DWIDTH 12 0
BBX 10 11 0 -2
BITMAP
7EA0
48A0
4BA0
48A0
3EA0
00A0
0000
0840
0840
14A0
2310
ENDCHAR
STARTCHAR U+B5D1
ENCODING 46545
SWIDTH 935 0
DWIDTH 12 0
BBX 10 11 0 -2
BITMAP
7EA0
48A0
4BA0
48A0
3EA0
00A0
0000
1FC0
2020
2020
1FC0
ENDCHAR
STARTCHAR U+B5D8
ENCODING 46552
SWIDTH 935 0
DWIDTH 12 0
BBX 10 11 0 -2
BITMAP
7F40
4840
49C0
4840
4840
49C0
4840
4840
3F40
0040
0040
ENDCHAR
STARTCHAR U+B5EC
ENCODING 46572
SWIDTH 935 0
DWIDTH 12 0
BBX 10 11 0 -2
BITMAP
7F40
49C0
4840
49C0
3F40
0040
0000
0880
0880
1540
2220
ENDCHAR
STARTCHAR U+B610
ENCODING 46608
SWIDTH 935 0
DWIDTH 12 0
BBX 10 10 0 -1
BITMAP
7BC0
4200
4200
4200
4200
39C0
0000
0400
0400
FFC0
ENDCHAR
STARTCHAR U+B611
ENCODING 46609
SWIDTH 935 0
DWIDTH 12 0
BBX 10 11 0 -2
BITMAP
7BC0
4200
4200
3BC0
0400
FFE0
0000
7FC0
0040
0040
0040
ENDCHAR
STARTCHAR U+B614
ENCODING 46612
SWIDTH 935 0
DWIDTH 12 0
BBX 10 11 0 -2
BITMAP
7BC0
4200
4200
39C0
0000
0400
FFE0
4000
4000
4000
3FC0
ENDCHAR
STARTCHAR U+B618
ENCODING 46616
SWIDTH 935 0
DWIDTH 12 0
BBX 10 11 0 -2
BITMAP
7BC0
4200
3BC0
0400
FFE0
0000
7FC0
0040
7FC0
4000
3FC0
ENDCHAR
STARTCHAR U+B625
ENCODING 46629
SWIDTH 935 0
DWIDTH 12 0
BBX 10 11 0 -2
BITMAP
7BC0
4200
4200
3BC0
0400
FFE0
0000
3F80
4040
4040
3F80
ENDCHAR
STARTCHAR U+B62C
ENCODING 46636
SWIDTH 935 0
DWIDTH 12 0
BBX 10 11 0 -2
BITMAP
7F40
4840
4840
4840
3F70
0040
0840
0840
7F40
0040
0040
ENDCHAR
STARTCHAR U+B634
ENCODING 46644
SWIDTH 935 0
DWIDTH 12 0
BBX 10 11 0 -2
BITMAP
7E40
4840
3E40
0870
7FC0
0000
3FC0
0040
3FC0
2000
1FC0
ENDCHAR
STARTCHAR U+B648
ENCODING 46664
SWIDTH 935 0
DWIDTH 12 0
BBX 10 11 0 -2
BITMAP
7EA0
48A0
48A0
48A0
3EE0
00A0
10A0
10A0
7EA0
00A0
00A0
ENDCHAR
STARTCHAR U+B664
ENCODING 46692
SWIDTH 935 0
DWIDTH 12 0
BBX 10 11 0 -2
BITMAP
7F40
4840
4840
4840
3F40
0040
0840
0840
7F40
0040
0040
ENDCHAR
STARTCHAR U+B668
ENCODING 46696
SWIDTH 935 0
DWIDTH 12 0
BBX 10 11 0 -2
BITMAP
7E40
4840
4840
3E40
0840
7F40
0040
2040
2000
2000
1FC0
ENDCHAR
STARTCHAR U+B69C
ENCODING 46748
SWIDTH 935 0
DWIDTH 12 0
BBX 10 11 0 -2
BITMAP
7BC0
4200
4200
4200
39C0
0000
FFE0
0400
0400
0400
0400
ENDCHAR
STARTCHAR U+B69D
ENCODING 46749
SWIDTH 935 0
DWIDTH 12 0
BBX 10 11 0 -2
BITMAP
7BC0
4200
4200
39C0
0000
FFE0
0400
7FC0
0040
0040
0040
ENDCHAR
STARTCHAR U+B6A0
ENCODING 46752
SWIDTH 935 0
DWIDTH 12 0
BBX 10 11 0 -2
BITMAP
7BC0
4200
4200
39C0
0000
0000
FFE0
4400
4400
4000
3FC0
ENDCHAR
STARTCHAR U+B6A4
ENCODING 46756
SWIDTH 935 0
DWIDTH 12 0
BBX 10 11 0 -2
BITMAP
7BC0
4200
39C0
0000
FFE0
0400
7FC0
0040
7FC0
4000
3FC0
ENDCHAR
STARTCHAR U+B6AB
ENCODING 46763
SWIDTH 935 0
DWIDTH 12 0
BBX 10 11 0 -2
BITMAP
7BC0
4200
39C0
0000
FFE0
0400
7880
0FE0
7A40
4240
3980
ENDCHAR
STARTCHAR U+B6AC
ENCODING 46764
SWIDTH 935 0
DWIDTH 12 0
BBX 10 11 0 -2
BITMAP
7BC0
4200
4200
39C0
0000
FFE0
0400
7FC0
4040
4040
3FC0
ENDCHAR
STARTCHAR U+B6B1
ENCODING 46769
SWIDTH 935 0
DWIDTH 12 0
BBX 10 11 0 -2
BITMAP
7BC0
4200
4200
39C0
0000
FFE0
0400
3F80
4040
4040
3F80
ENDCHAR
STARTCHAR U+B6D4
ENCODING 46804
SWIDTH 935 0
DWIDTH 12 0
BBX 8 11 1 -2
BITMAP
FD
91
91
7D
01
01
FD
21
27
21
21
ENDCHAR
STARTCHAR U+B6F0
ENCODING 46832
SWIDTH 935 0
DWIDTH 12 0
BBX 10 11 0 -2
BITMAP
7F40
4840
4840
4840
3F40
0040
7F40
0840
0840
0840
0840
ENDCHAR
STARTCHAR U+B6F4
ENCODING 46836
SWIDTH 935 0
DWIDTH 12 0
BBX 10 11 0 -2
BITMAP
7E40
4840
4840
3E40
0040
7FC0
0840
2840
2000
2000
1FC0
ENDCHAR
STARTCHAR U+B6F8
ENCODING 46840
SWIDTH 935 0
DWIDTH 12 0
BBX 10 11 0 -2
BITMAP
7E40
4840
3E40
0040
0040
7FC0
3FC0
0040
3FC0
2000
1FC0
ENDCHAR
STARTCHAR U+B700
ENCODING 46848
SWIDTH 935 0
DWIDTH 12 0
BBX 10 11 0 -2
BITMAP
7E40
4840
4840
3E40
0040
7FC0
0840
3FC0
2040
2040
1FC0
ENDCHAR
STARTCHAR U+B701
ENCODING 46849
SWIDTH 935 0
DWIDTH 12 0
BBX 10 11 0 -2
BITMAP
7E40
4840
4840
3E40
0040
7FC0
0840
2040
3FC0
2040
1FC0
ENDCHAR
STARTCHAR U+B705
ENCODING 46853
SWIDTH 935 0
DWIDTH 12 0
BBX 10 11 0 -2
BITMAP
7E40
4840
4840
3E40
0040
7FC0
0840
1F80
2040
2040
1F80
ENDCHAR
STARTCHAR U+B728
ENCODING 46888
SWIDTH 935 0
DWIDTH 12 0
BBX 10 10 0 -1
BITMAP
7BC0
4200
4200
4200
4200
39C0
0000
0000
0000
FFC0
ENDCHAR
STARTCHAR U+B729
ENCODING 46889
SWIDTH 935 0
DWIDTH 12 0
BBX 10 11 0 -2
BITMAP
7BC0
4200
4200
39C0
0000
FFE0
0000
7FC0
0040
0040
0040
ENDCHAR
STARTCHAR U+B72C
ENCODING 46892
SWIDTH 935 0
DWIDTH 12 0
BBX 10 11 0 -2
BITMAP
7BC0
4200
4200
39C0
0000
0000
FFE0
4000
4000
4000
3FC0
ENDCHAR
STARTCHAR U+B72F
ENCODING 46895
SWIDTH 935 0
DWIDTH 12 0
BBX 10 11 0 -2
BITMAP
7BC0
4200
4200
39C0
0000
FFE0
0000
7FC0
4000
4000
3FC0
ENDCHAR
STARTCHAR U+B730
ENCODING 46896
SWIDTH 935 0
DWIDTH 12 0
BBX 10 11 0 -2
BITMAP
7BC0
4200
39C0
0000
FFE0
0000
7FC0
0040
7FC0
4000
3FC0
ENDCHAR
STARTCHAR U+B738
ENCODING 46904
SWIDTH 935 0
DWIDTH 12 0
BBX 10 11 0 -2
BITMAP
7BC0
4200
4200
39C0
0000
FFE0
0000
7FC0
4040
4040
3FC0
ENDCHAR
STARTCHAR U+B739
ENCODING 46905
SWIDTH 935 0
DWIDTH 12 0
BBX 10 11 0 -2
BITMAP
7BC0
4200
4200
39C0
0000
FFE0
0000
4040
7FC0
4040
3FC0
ENDCHAR
STARTCHAR U+B73B
ENCODING 46907
SWIDTH 935 0
DWIDTH 12 0
BBX 10 11 0 -2
BITMAP
7BC0
4200
4200
39C0
0000
FFE0
0000
0400
0A00
1100
60C0
ENDCHAR
STARTCHAR U+B744
ENCODING 46916
SWIDTH 935 0
DWIDTH 12 0
BBX 10 11 0 -2
BITMAP
7F40
4840
4840
4840
3F40
0040
0040
0040
7FC0
0040
0040
ENDCHAR
STARTCHAR U+B748
ENCODING 46920
SWIDTH 935 0
DWIDTH 12 0
BBX 10 11 0 -2
BITMAP
7E40
4840
4840
3E40
0040
7FC0
0040
2000
2000
2000
1FC0
ENDCHAR
STARTCHAR U+B74C
ENCODING 46924
SWIDTH 935 0
DWIDTH 12 0
BBX 10 11 0 -2
BITMAP
7E40
4840
3E40
0040
7FC0
0040
3FC0
0040
3FC0
2000
1FC0
ENDCHAR
STARTCHAR U+B754
ENCODING 46932
SWIDTH 935 0
DWIDTH 12 0
BBX 10 11 0 -2
BITMAP
7E40
4840
4840
3E40
0040
7FC0
0040
3FC0
2040
2040
1FC0
ENDCHAR
STARTCHAR U+B755
ENCODING 46933
SWIDTH 935 0
DWIDTH 12 0
BBX 10 11 0 -2
BITMAP
7E40
4840
4840
3E40
0040
7FC0
0040
2040
3FC0
2040
1FC0
ENDCHAR
STARTCHAR U+B760
ENCODING 46944
SWIDTH 935 0
DWIDTH 12 0
BBX 10 11 0 -2
BITMAP
7F40
4840
4840
4840
4840
4840
4840
4840
3F40
0040
0040
ENDCHAR
STARTCHAR U+B764
ENCODING 46948
SWIDTH 935 0
DWIDTH 12 0
BBX 10 11 0 -2
BITMAP
7F40
4840
4840
4840
3F40
0040
0040
2000
2000
2000
1FC0
ENDCHAR
STARTCHAR U+B768
ENCODING 46952
SWIDTH 935 0
DWIDTH 12 0
BBX 10 11 0 -2
BITMAP
7F40
4840
4840
4840
3F40
0040
3FC0
0040
3FC0
2000
1FC0
ENDCHAR
STARTCHAR U+B770
ENCODING 46960
SWIDTH 935 0
DWIDTH 12 0
BBX 10 11 0 -2
BITMAP
7F40
4840
4840
4840
3F40
0040
0000
3FC0
2040
2040
1FC0
ENDCHAR
STARTCHAR U+B771
ENCODING 46961
SWIDTH 935 0
DWIDTH 12 0
BBX 10 11 0 -2
BITMAP
7F40
4840
4840
4840
3F40
0040
0000
2040
3FC0
2040
1FC0
ENDCHAR
STARTCHAR U+B773
ENCODING 46963
SWIDTH 935 0
DWIDTH 12 0
BBX 10 11 0 -2
BITMAP
7F40
4840
4840
4840
3F40
0040
0000
0100
0280
0C40
3020
ENDCHAR
STARTCHAR U+B775
ENCODING 46965
SWIDTH 935 0
DWIDTH 12 0
BBX 10 11 0 -2
BITMAP
7F40
4840
4840
4840
3F40
0040
0000
1F80
2040
2040
1F80
ENDCHAR
STARTCHAR U+B77C
ENCODING 46972
SWIDTH 935 0
DWIDTH 12 0
BBX 10 11 0 -2
BITMAP
7E40
0240
0240
7E40
4070
4040
4040
3F40
0040
0040
0040
ENDCHAR
STARTCHAR U+B77D
ENCODING 46973
SWIDTH 935 0
DWIDTH 12 0
BBX 10 11 0 -2
BITMAP
7E40
0240
7E70
4040
4040
3F40
0000
3FC0
0040
0040
0040
ENDCHAR
STARTCHAR U+B780
ENCODING 46976
SWIDTH 935 0
DWIDTH 12 0
BBX 10 11 0 -2
BITMAP
7E40
0240
7E40
4070
4040
3F40
0040
2040
2000
2000
1FC0
ENDCHAR
STARTCHAR U+B784
ENCODING 46980
SWIDTH 935 0
DWIDTH 12 0
BBX 10 11 0 -2
BITMAP
7E40
0240
7E70
4040
3F40
0040
3FC0
0040
3FC0
2000
1FC0
ENDCHAR
STARTCHAR U+B78C
ENCODING 46988
SWIDTH 935 0
DWIDTH 12 0
BBX 10 11 0 -2
BITMAP
7E40
0240
7E70
4040
4040
3F40
0000
3FC0
2040
2040
1FC0
ENDCHAR
STARTCHAR U+B78D
ENCODING 46989
SWIDTH 935 0
DWIDTH 12 0
BBX 10 11 0 -2
BITMAP
7E40
0240
7E70
4040
4040
3F40
0000
2040
3FC0
2040
1FC0
ENDCHAR
STARTCHAR U+B78F
ENCODING 46991
SWIDTH 935 0
DWIDTH 12 0
BBX 10 11 0 -2
BITMAP
7E40
0240
7E70
4040
4040
3F40
0000
0100
0280
0C40
3020
ENDCHAR
STARTCHAR U+B790
ENCODING 46992
SWIDTH 935 0
DWIDTH 12 0
BBX 10 11 0 -2
BITMAP
7E40
0240
7E70
4040
4040
3F40
0000
0880
0880
1540
2220
ENDCHAR
STARTCHAR U+B791
ENCODING 46993
SWIDTH 935 0
DWIDTH 12 0
BBX 10 11 0 -2
BITMAP
7E40
0240
7E70
4040
4040
3F40
0000
1F80
2040
2040
1F80
ENDCHAR
STARTCHAR U+B792
ENCODING 46994
SWIDTH 935 0
DWIDTH 12 0
BBX 10 11 0 -2
BITMAP
7E40
0240
7E70
4040
4040
3F40
0000
3FE0
0100
0680
3860
ENDCHAR
STARTCHAR U+B796
ENCODING 46998
SWIDTH 935 0
DWIDTH 12 0
BBX 10 11 0 -2
BITMAP
7E40
0240
7E70
4040
4040
3F40
0000
3FE0
0880
0880
3FE0
ENDCHAR
STARTCHAR U+B797
ENCODING 46999
SWIDTH 935 0
DWIDTH 12 0
BBX 10 11 0 -2
BITMAP
7E40
0240
7E70
4040
3F40
0040
0700
0000
7FE0
1040
0F80
ENDCHAR
STARTCHAR U+B798
ENCODING 47000
SWIDTH 935 0
DWIDTH 12 0
BBX 10 11 0 -2
BITMAP
7D20
0520
0520
7D20
4120
41E0
4120
3D20
0120
0120
0120
ENDCHAR
STARTCHAR U+B799
ENCODING 47001
SWIDTH 935 0
DWIDTH 12 0
BBX 9 8 1 1
BITMAP
FA00
0A00
FB80
8200
8200
7A00
0000
3F80
ENDCHAR
STARTCHAR U+B79C
ENCODING 47004
SWIDTH 935 0
DWIDTH 12 0
BBX 10 11 0 -2
BITMAP
7D20
0520
7DE0
4120
4120
3D20
0020
2000
2000
2000
1FE0
ENDCHAR
STARTCHAR U+B7A0
ENCODING 47008
SWIDTH 935 0
DWIDTH 12 0
BBX 10 11 0 -2
BITMAP
7D20
0520
7DE0
4120
3D20
0120
3FE0
0020
3FE0
2000
1FE0
ENDCHAR
STARTCHAR U+B7A8
ENCODING 47016
SWIDTH 935 0
DWIDTH 12 0
BBX 10 11 0 -2
BITMAP
7D20
0520
7DE0
4120
4120
3D20
0000
3FE0
2020
2020
1FE0
ENDCHAR
STARTCHAR U+B7A9
ENCODING 47017
SWIDTH 935 0
DWIDTH 12 0
BBX 10 11 0 -2
BITMAP
7D20
0520
7DE0
4120
4120
3D20
0000
2020
3FE0
2020
1FE0
ENDCHAR
STARTCHAR U+B7AB
ENCODING 47019
SWIDTH 935 0
DWIDTH 12 0
BBX 10 11 0 -2
BITMAP
7D20
0520
7DE0
4120
4120
3D20
0000
0080
0080
0340
1C30
ENDCHAR
STARTCHAR U+B7AC
ENCODING 47020
SWIDTH 935 0
DWIDTH 12 0
BBX 10 11 0 -2
BITMAP
7D20
0520
7DE0
4120
4120
3D20
0000
0840
0840
14A0
2310
ENDCHAR
STARTCHAR U+B7AD
ENCODING 47021
SWIDTH 935 0
DWIDTH 12 0
BBX 10 11 0 -2
BITMAP
7D20
0520
7DE0
4120
4120
3D20
0000
1FC0
2020
2020
1FC0
ENDCHAR
STARTCHAR U+B7B4
ENCODING 47028
SWIDTH 935 0
DWIDTH 12 0
BBX 10 11 0 -2
BITMAP
7E40
0240
0270
7E40
4040
4040
4070
3F40
0040
0040
0040
ENDCHAR
STARTCHAR U+B7B5
ENCODING 47029
SWIDTH 935 0
DWIDTH 12 0
BBX 10 11 0 -2
BITMAP
7E40
0270
7E40
4070
4040
3F40
0000
3FC0
0040
0040
0040
ENDCHAR
STARTCHAR U+B7B8
ENCODING 47032
SWIDTH 935 0
DWIDTH 12 0
BBX 10 11 0 -2
BITMAP
7E40
0270
7E40
4070
4040
3F40
0040
2000
2000
2000
1FC0
ENDCHAR
STARTCHAR U+B7C7
ENCODING 47047
SWIDTH 935 0
DWIDTH 12 0
BBX 10 11 0 -2
BITMAP
7E40
0270
7E40
4070
4040
3F40
0000
0100
0280
0C40
3020
ENDCHAR
STARTCHAR U+B7C9
ENCODING 47049
SWIDTH 935 0
DWIDTH 12 0
BBX 10 11 0 -2
BITMAP
7E40
0270
7E40
4070
4040
3F40
0000
1F80
2040
2040
1F80
ENDCHAR
STARTCHAR U+B7EC
ENCODING 47084
SWIDTH 935 0
DWIDTH 12 0
BBX 10 11 0 -2
BITMAP
7E40
0240
0240
7FC0
4040
4040
4040
3F40
0040
0040
0040
ENDCHAR
STARTCHAR U+B7ED
ENCODING 47085
SWIDTH 935 0
DWIDTH 12 0
BBX 10 11 0 -2
BITMAP
7E40
0240
7FC0
4040
4040
3F40
0000
3FC0
0040
0040
0040
ENDCHAR
STARTCHAR U+B7F0
ENCODING 47088
SWIDTH 935 0
DWIDTH 12 0
BBX 10 11 0 -2
BITMAP
7E40
0240
7FC0
4040
4040
3F40
0000
2000
2000
2000
1FC0
ENDCHAR
STARTCHAR U+B7F4
ENCODING 47092
SWIDTH 935 0
DWIDTH 12 0
BBX 10 11 0 -2
BITMAP
7E40
0240
7FC0
4040
3F40
0040
3FC0
0040
3FC0
2000
1FC0
ENDCHAR
STARTCHAR U+B7FC
ENCODING 47100
SWIDTH 935 0
DWIDTH 12 0
BBX 10 11 0 -2
BITMAP
7E40
0240
7FC0
4040
4040
3F40
0000
3FC0
2040
2040
1FC0
ENDCHAR
STARTCHAR U+B7FD
ENCODING 47101
SWIDTH 935 0
DWIDTH 12 0
BBX 10 11 0 -2
BITMAP
7E40
0240
7FC0
4040
4040
3F40
0000
2040
3FC0
2040
1FC0
ENDCHAR
STARTCHAR U+B7FF
ENCODING 47103
SWIDTH 935 0
DWIDTH 12 0
BBX 10 11 0 -2
BITMAP
7E40
0240
7FC0
4040
4040
3F40
0000
0200
0500
0880
3060
ENDCHAR
STARTCHAR U+B800
ENCODING 47104
SWIDTH 935 0
DWIDTH 12 0
BBX 10 11 0 -2
BITMAP
7E40
0240
7FC0
4040
4040
3F40
0000
0880
0880
1540
2220
ENDCHAR
STARTCHAR U+B801
ENCODING 47105
SWIDTH 935 0
DWIDTH 12 0
BBX 10 11 0 -2
BITMAP
7E40
0240
7FC0
4040
4040
3F40
0000
1F80
2040
2040
1F80
ENDCHAR
STARTCHAR U+B807
ENCODING 47111
SWIDTH 935 0
DWIDTH 12 0
BBX 10 11 0 -2
BITMAP
7E40
0240
7FC0
4040
3F40
0040
0700
0000
7FE0
1040
0F80
ENDCHAR
STARTCHAR U+B808
ENCODING 47112
SWIDTH 935 0
DWIDTH 12 0
BBX 8 11 1 -2
BITMAP
F9
09
09
F9
87
81
81
79
01
01
01
ENDCHAR
STARTCHAR U+B809
ENCODING 47113
SWIDTH 935 0
DWIDTH 12 0
BBX 9 8 1 1
BITMAP
F900
0900
FF00
8100
8100
7900
0000
3F80
ENDCHAR
STARTCHAR U+B80C
ENCODING 47116
SWIDTH 935 0
DWIDTH 12 0
BBX 10 11 0 -2
BITMAP
7CA0
04A0
7FA0
40A0
40A0
3CA0
0020
2000
2000
2000
1FE0
ENDCHAR
STARTCHAR U+B810
ENCODING 47120
SWIDTH 935 0
DWIDTH 12 0
BBX 10 11 0 -2
BITMAP
7CA0
04A0
7FA0
40A0
3CA0
00A0
3FE0
0020
3FE0
2000
1FE0
ENDCHAR
STARTCHAR U+B818
ENCODING 47128
SWIDTH 935 0
DWIDTH 12 0
BBX 10 11 0 -2
BITMAP
7CA0
04A0
7FA0
40A0
40A0
3CA0
0000
3FE0
2020
2020
1FE0
ENDCHAR
STARTCHAR U+B819
ENCODING 47129
SWIDTH 935 0
DWIDTH 12 0
BBX 10 11 0 -2
BITMAP
7CA0
04A0
7FA0
40A0
40A0
3CA0
0000
2020
3FE0
2020
1FE0
ENDCHAR
STARTCHAR U+B81B
ENCODING 47131
SWIDTH 935 0
DWIDTH 12 0
BBX 10 11 0 -2
BITMAP
7CA0
04A0
7FA0
40A0
40A0
3CA0
0000
0080
0080
0340
1C30
ENDCHAR
STARTCHAR U+B81D
ENCODING 47133
SWIDTH 935 0
DWIDTH 12 0
BBX 10 11 0 -2
BITMAP
7CA0
04A0
7FA0
40A0
40A0
3CA0
0000
1FC0
2020
2020
1FC0
ENDCHAR
STARTCHAR U+B824
ENCODING 47140
SWIDTH 935 0
DWIDTH 12 0
BBX 10 11 0 -2
BITMAP
7E40
0240
03C0
7E40
4040
41C0
4040
3F40
0040
0040
0040
ENDCHAR
STARTCHAR U+B825
ENCODING 47141
SWIDTH 935 0
DWIDTH 12 0
BBX 10 11 0 -2
BITMAP
7E40
03C0
7E40
41C0
4040
3F40
0000
3FC0
0040
0040
0040
ENDCHAR
STARTCHAR U+B828
ENCODING 47144
SWIDTH 935 0
DWIDTH 12 0
BBX 10 11 0 -2
BITMAP
7E40
03C0
7E40
41C0
4040
3F40
0000
2000
2000
2000
1FC0
ENDCHAR
STARTCHAR U+B82C
ENCODING 47148
SWIDTH 935 0
DWIDTH 12 0
BBX 10 11 0 -2
BITMAP
7E40
03C0
7E40
41C0
3F40
0040
3FC0
0040
3FC0
2000
1FC0
ENDCHAR
STARTCHAR U+B834
ENCODING 47156
SWIDTH 935 0
DWIDTH 12 0
BBX 10 11 0 -2
BITMAP
7E40
03C0
7E40
41C0
4040
3F40
0000
3FC0
2040
2040
1FC0
ENDCHAR
STARTCHAR U+B835
ENCODING 47157
SWIDTH 935 0
DWIDTH 12 0
BBX 10 11 0 -2
BITMAP
7E40
03C0
7E40
41C0
4040
3F40
0000
2040
3FC0
2040
1FC0
ENDCHAR
STARTCHAR U+B837
ENCODING 47159
SWIDTH 935 0
DWIDTH 12 0
BBX 10 11 0 -2
BITMAP
7E40
03C0
7E40
41C0
4040
3F40
0000
0200
0500
0880
3060
ENDCHAR
STARTCHAR U+B838
ENCODING 47160
SWIDTH 935 0
DWIDTH 12 0
BBX 10 11 0 -2
BITMAP
7E40
03C0
7E40
41C0
4040
3F40
0000
0880
0880
1540
2220
ENDCHAR
STARTCHAR U+B839
ENCODING 47161
SWIDTH 935 0
DWIDTH 12 0
BBX 10 11 0 -2
BITMAP
7E40
03C0
7E40
41C0
4040
3F40
0000
1F80
2040
2040
1F80
ENDCHAR
STARTCHAR U+B840
ENCODING 47168
SWIDTH 935 0
DWIDTH 12 0
BBX 8 11 1 -2
BITMAP
F9
09
0F
F9
81
87
81
79
01
01
01
ENDCHAR
STARTCHAR U+B844
ENCODING 47172
SWIDTH 935 0
DWIDTH 12 0
BBX 10 11 0 -2
BITMAP
7CA0
07A0
7CA0
43A0
40A0
3CA0
0020
2000
2000
2000
1FE0
ENDCHAR
STARTCHAR U+B851
ENCODING 47185
SWIDTH 935 0
DWIDTH 12 0
BBX 10 11 0 -2
BITMAP
7CA0
07A0
7CA0
43A0
40A0
3CA0
0000
2020
3FE0
2020
1FE0
ENDCHAR
STARTCHAR U+B853
ENCODING 47187
SWIDTH 935 0
DWIDTH 12 0
BBX 10 11 0 -2
BITMAP
7CA0
07A0
7CA0
43A0
40A0
3CA0
0000
0080
0080
0340
1C30
ENDCHAR
STARTCHAR U+B85C
ENCODING 47196
SWIDTH 935 0
DWIDTH 12 0
BBX 10 10 0 -1
BITMAP
7FC0
0040
0040
7FC0
4000
4000
3FC0
0400
0400
FFC0
ENDCHAR
STARTCHAR U+B85D
ENCODING 47197
SWIDTH 935 0
DWIDTH 12 0
BBX 10 11 0 -2
BITMAP
7FC0
0040
7FC0
4000
3FC0
0400
FFE0
0000
7FC0
0040
0040
ENDCHAR
STARTCHAR U+B860
ENCODING 47200
SWIDTH 935 0
DWIDTH 12 0
BBX 10 11 0 -2
BITMAP
7FC0
0040
7FC0
4000
3FC0
0400
FFE0
0000
4000
4000
3FC0
ENDCHAR
STARTCHAR U+B864
ENCODING 47204
SWIDTH 935 0
DWIDTH 12 0
BBX 10 11 0 -2
BITMAP
7FC0
0040
7FC0
4000
3FC0
0400
FFE0
0040
7FC0
4000
3FC0
ENDCHAR
STARTCHAR U+B86C
ENCODING 47212
SWIDTH 935 0
DWIDTH 12 0
BBX 10 11 0 -2
BITMAP
7FC0
0040
7FC0
4000
3FC0
0400
FFE0
0000
7FC0
4040
3FC0
ENDCHAR
STARTCHAR U+B86D
ENCODING 47213
SWIDTH 935 0
DWIDTH 12 0
BBX 10 11 0 -2
BITMAP
7FC0
0040
7FC0
4000
3FC0
0400
FFE0
4040
7FC0
4040
3FC0
ENDCHAR
STARTCHAR U+B86F
ENCODING 47215
SWIDTH 935 0
DWIDTH 12 0
BBX 10 11 0 -2
BITMAP
7FC0
0040
7FC0
4000
3FC0
0400
FFE0
0000
0400
1B00
60C0
ENDCHAR
STARTCHAR U+B871
ENCODING 47217
SWIDTH 935 0
DWIDTH 12 0
BBX 10 11 0 -2
BITMAP
7FC0
0040
7FC0
4000
3FC0
0400
FFE0
0000
3F80
4040
3F80
ENDCHAR
STARTCHAR U+B878
ENCODING 47224
SWIDTH 935 0
DWIDTH 12 0
BBX 10 11 0 -2
BITMAP
7E40
0240
7E40
4040
4070
3F40
0840
0840
7F40
0040
0040
ENDCHAR
STARTCHAR U+B87C
ENCODING 47228
SWIDTH 935 0
DWIDTH 12 0
BBX 10 11 0 -2
BITMAP
7E40
0240
7E40
4070
3E40
0840
7F40
0040
2000
2000
1FC0
ENDCHAR
STARTCHAR U+B88D
ENCODING 47245
SWIDTH 935 0
DWIDTH 12 0
BBX 10 11 0 -2
BITMAP
7E40
0240
7E40
4070
3E40
0840
7F40
0000
1F80
2040
1F80
ENDCHAR
STARTCHAR U+B8A8
ENCODING 47272
SWIDTH 935 0
DWIDTH 12 0
BBX 10 11 0 -2
BITMAP
7CA0
04A0
7CE0
40A0
3CA0
10A0
7EA0
0000
0880
1540
2220
ENDCHAR
STARTCHAR U+B8B0
ENCODING 47280
SWIDTH 935 0
DWIDTH 12 0
BBX 10 11 0 -2
BITMAP
7E40
0240
7E40
4040
4040
3F40
0840
0840
7F40
0040
0040
ENDCHAR
STARTCHAR U+B8B4
ENCODING 47284
SWIDTH 935 0
DWIDTH 12 0
BBX 10 11 0 -2
BITMAP
7E40
0240
7E40
4040
3E40
0840
7F40
0040
2000
2000
1FC0
ENDCHAR
STARTCHAR U+B8B8
ENCODING 47288
SWIDTH 935 0
DWIDTH 12 0
BBX 10 11 0 -2
BITMAP
7E40
0240
7E40
4040
3E40
0840
7FC0
0040
3FC0
2000
1FC0
ENDCHAR
STARTCHAR U+B8C0
ENCODING 47296
SWIDTH 935 0
DWIDTH 12 0
BBX 10 11 0 -2
BITMAP
7E40
0240
7E40
4040
3E40
0840
7F40
0000
3FC0
2040
1FC0
ENDCHAR
STARTCHAR U+B8C1
ENCODING 47297
SWIDTH 935 0
DWIDTH 12 0
BBX 10 11 0 -2
BITMAP
7E40
0240
7E40
4040
3E40
0840
7F40
2040
3FC0
2040
1FC0
ENDCHAR
STARTCHAR U+B8C3
ENCODING 47299
SWIDTH 935 0
DWIDTH 12 0
BBX 10 11 0 -2
BITMAP
7E40
0240
7E40
4040
3E40
0840
7F40
0000
0100
0680
3860
ENDCHAR
STARTCHAR U+B8C5
ENCODING 47301
SWIDTH 935 0
DWIDTH 12 0
BBX 10 11 0 -2
BITMAP
7E40
0240
7E40
4040
3E40
0840
7F40
0000
1F80
2040
1F80
ENDCHAR
STARTCHAR U+B8CC
ENCODING 47308
SWIDTH 935 0
DWIDTH 12 0
BBX 10 10 0 -1
BITMAP
7FC0
0040
0040
7FC0
4000
4000
3FC0
1100
1100
FFC0
ENDCHAR
STARTCHAR U+B8D0
ENCODING 47312
SWIDTH 935 0
DWIDTH 12 0
BBX 10 11 0 -2
BITMAP
7FC0
0040
7FC0
4000
3FC0
1100
FFE0
0000
4000
4000
3FC0
ENDCHAR
STARTCHAR U+B8D4
ENCODING 47316
SWIDTH 935 0
DWIDTH 12 0
BBX 10 11 0 -2
BITMAP
7FC0
0040
7FC0
4000
3FC0
1100
FFE0
0040
7FC0
4000
3FC0
ENDCHAR
STARTCHAR U+B8DD
ENCODING 47325
SWIDTH 935 0
DWIDTH 12 0
BBX 10 11 0 -2
BITMAP
7FC0
0040
7FC0
4000
3FC0
1100
FFE0
4040
7FC0
4040
3FC0
ENDCHAR
STARTCHAR U+B8DF
ENCODING 47327
SWIDTH 935 0
DWIDTH 12 0
BBX 10 11 0 -2
BITMAP
7FC0
0040
7FC0
4000
3FC0
1100
FFE0
0000
0400
1B00
60C0
ENDCHAR
STARTCHAR U+B8E1
ENCODING 47329
SWIDTH 935 0
DWIDTH 12 0
BBX 10 11 0 -2
BITMAP
7FC0
0040
7FC0
4000
3FC0
1100
FFE0
0000
3F80
4040
3F80
ENDCHAR
STARTCHAR U+B8E8
ENCODING 47336
SWIDTH 935 0
DWIDTH 12 0
BBX 10 11 0 -2
BITMAP
7FC0
0040
7FC0
4000
3FC0
0000
FFE0
0400
0400
0400
0400
ENDCHAR
STARTCHAR U+B8E9
ENCODING 47337
SWIDTH 935 0
DWIDTH 12 0
BBX 10 11 0 -2
BITMAP
7FC0
0040
7FC0
4000
3FC0
0000
FFE0
0400
7FC0
0040
0040
ENDCHAR
STARTCHAR U+B8EC
ENCODING 47340
SWIDTH 935 0
DWIDTH 12 0
BBX 10 11 0 -2
BITMAP
7FC0
0040
7FC0
4000
3FC0
0000
FFE0
0400
4400
4000
3FC0
ENDCHAR
STARTCHAR U+B8F0
ENCODING 47344
SWIDTH 935 0
DWIDTH 12 0
BBX 10 11 0 -2
BITMAP
7FC0
0040
7FC0
4000
FFE0
0400
7FC0
0040
7FC0
4000
3FC0
ENDCHAR
STARTCHAR U+B8F8
ENCODING 47352
SWIDTH 935 0
DWIDTH 12 0
BBX 10 11 0 -2
BITMAP
7FC0
0040
7FC0
4000
3FC0
0000
FFE0
0400
7FC0
4040
3FC0
ENDCHAR
STARTCHAR U+B8F9
ENCODING 47353
SWIDTH 935 0
DWIDTH 12 0
BBX 10 11 0 -2
BITMAP
7FC0
0040
7FC0
4000
3FC0
0000
FFE0
4440
7FC0
4040
3FC0
ENDCHAR
STARTCHAR U+B8FB
ENCODING 47355
SWIDTH 935 0
DWIDTH 12 0
BBX 10 11 0 -2
BITMAP
7FC0
0040
7FC0
4000
3FC0
0000
FFE0
0400
0200
0D00
70C0
ENDCHAR
STARTCHAR U+B8FD
ENCODING 47357
SWIDTH 935 0
DWIDTH 12 0
BBX 10 11 0 -2
BITMAP
7FC0
0040
7FC0
4000
3FC0
0000
FFE0
0400
3F80
4040
3F80
ENDCHAR
STARTCHAR U+B904
ENCODING 47364
SWIDTH 935 0
DWIDTH 12 0
BBX 10 11 0 -2
BITMAP
7E40
0240
7E40
4040
3E40
0040
7F40
0840
0BC0
0840
0840
ENDCHAR
STARTCHAR U+B918
ENCODING 47384
SWIDTH 935 0
DWIDTH 12 0
BBX 10 11 0 -2
BITMAP
7C40
0440
7CC0
4040
3C40
0040
7F40
0840
0880
1540
2220
ENDCHAR
STARTCHAR U+B920
ENCODING 47392
SWIDTH 935 0
DWIDTH 12 0
BBX 8 11 1 -2
BITMAP
F9
09
F9
81
79
01
FD
21
27
21
21
ENDCHAR
STARTCHAR U+B93C
ENCODING 47420
SWIDTH 935 0
DWIDTH 12 0
BBX 10 11 0 -2
BITMAP
7E40
0240
7E40
4040
3E40
0040
7F40
0840
0840
0840
0840
ENDCHAR
STARTCHAR U+B93D
ENCODING 47421
SWIDTH 935 0
DWIDTH 12 0
BBX 10 11 0 -2
BITMAP
7C40
0440
7C40
4040
3C40
0040
7FC0
0840
3FC0
0040
0040
ENDCHAR
STARTCHAR U+B940
ENCODING 47424
SWIDTH 935 0
DWIDTH 12 0
BBX 10 11 0 -2
BITMAP
7C40
0440
7C40
4040
3C40
0040
7FC0
0840
2840
2000
1FC0
ENDCHAR
STARTCHAR U+B944
ENCODING 47428
SWIDTH 935 0
DWIDTH 12 0
BBX 10 11 0 -2
BITMAP
7C40
0440
7C40
4040
3FC0
0840
3FC0
0040
3FC0
2000
1FC0
ENDCHAR
STARTCHAR U+B94C
ENCODING 47436
SWIDTH 935 0
DWIDTH 12 0
BBX 10 11 0 -2
BITMAP
7C40
0440
7C40
4040
3C40
0040
7FC0
0840
3FC0
2040
1FC0
ENDCHAR
STARTCHAR U+B94F
ENCODING 47439
SWIDTH 935 0
DWIDTH 12 0
BBX 10 11 0 -2
BITMAP
7C40
0440
7C40
4040
3C40
0040
7FC0
0840
0100
0680
3860
ENDCHAR
STARTCHAR U+B951
ENCODING 47441
SWIDTH 935 0
DWIDTH 12 0
BBX 10 11 0 -2
BITMAP
7C40
0440
7C40
4040
3C40
0040
7FC0
0840
1F80
2040
1F80
ENDCHAR
STARTCHAR U+B958
ENCODING 47448
SWIDTH 935 0
DWIDTH 12 0
BBX 10 11 0 -2
BITMAP
7FC0
0040
7FC0
4000
3FC0
0000
FFE0
1100
1100
1100
1100
ENDCHAR
STARTCHAR U+B959
ENCODING 47449
SWIDTH 935 0
DWIDTH 12 0
BBX 10 11 0 -2
BITMAP
7FC0
0040
7FC0
4000
3FC0
0000
FFE0
1100
7FC0
0040
0040
ENDCHAR
STARTCHAR U+B95C
ENCODING 47452
SWIDTH 935 0
DWIDTH 12 0
BBX 10 11 0 -2
BITMAP
7FC0
0040
7FC0
4000
3FC0
0000
FFE0
1100
5100
4000
3FC0
ENDCHAR
STARTCHAR U+B960
ENCODING 47456
SWIDTH 935 0
DWIDTH 12 0
BBX 10 11 0 -2
BITMAP
7FC0
0040
7FC0
4000
FFE0
1100
7FC0
0040
7FC0
4000
3FC0
ENDCHAR
STARTCHAR U+B968
ENCODING 47464
SWIDTH 935 0
DWIDTH 12 0
BBX 10 11 0 -2
BITMAP
7FC0
0040
7FC0
4000
3FC0
0000
FFE0
1100
7FC0
4040
3FC0
ENDCHAR
STARTCHAR U+B969
ENCODING 47465
SWIDTH 935 0
DWIDTH 12 0
BBX 10 11 0 -2
BITMAP
7FC0
0040
7FC0
4000
3FC0
0000
FFE0
5140
7FC0
4040
3FC0
ENDCHAR
STARTCHAR U+B96B
ENCODING 47467
SWIDTH 935 0
DWIDTH 12 0
BBX 10 11 0 -2
BITMAP
7FC0
0040
7FC0
4000
3FC0
0000
FFE0
1100
0200
0D00
70C0
ENDCHAR
STARTCHAR U+B96D
ENCODING 47469
SWIDTH 935 0
DWIDTH 12 0
BBX 10 11 0 -2
BITMAP
7FC0
0040
7FC0
4000
3FC0
0000
FFE0
1100
3F80
4040
3F80
ENDCHAR
STARTCHAR U+B974
ENCODING 47476
SWIDTH 935 0
DWIDTH 12 0
BBX 10 10 0 -1
BITMAP
7FC0
0040
0040
7FC0
4000
4000
3FC0
0000
0000
FFC0
ENDCHAR
STARTCHAR U+B975
ENCODING 47477
SWIDTH 935 0
DWIDTH 12 0
BBX 10 11 0 -2
BITMAP
7FC0
0040
7FC0
4000
3FC0
0000
FFE0
0000
7FC0
0040
0040
ENDCHAR
STARTCHAR U+B978
ENCODING 47480
SWIDTH 935 0
DWIDTH 12 0
BBX 10 11 0 -2
BITMAP
7FC0
0040
7FC0
4000
3FC0
0000
FFE0
0000
4000
4000
3FC0
ENDCHAR
STARTCHAR U+B97C
ENCODING 47484
SWIDTH 935 0
DWIDTH 12 0
BBX 10 11 0 -2
BITMAP
7FC0
0040
7FC0
4000
FFE0
0000
7FC0
0040
7FC0
4000
3FC0
ENDCHAR
STARTCHAR U+B984
ENCODING 47492
SWIDTH 935 0
DWIDTH 12 0
BBX 10 11 0 -2
BITMAP
7FC0
0040
7FC0
4000
3FC0
0000
FFE0
0000
7FC0
4040
3FC0
ENDCHAR
STARTCHAR U+B985
ENCODING 47493
SWIDTH 935 0
DWIDTH 12 0
BBX 10 11 0 -2
BITMAP
7FC0
0040
7FC0
4000
3FC0
0000
FFE0
4040
7FC0
4040
3FC0
ENDCHAR
STARTCHAR U+B987
ENCODING 47495
SWIDTH 935 0
DWIDTH 12 0
BBX 10 11 0 -2
BITMAP
7FC0
0040
7FC0
4000
3FC0
0000
FFE0
0000
0400
1B00
60C0
ENDCHAR
STARTCHAR U+B989
ENCODING 47497
SWIDTH 935 0
DWIDTH 12 0
BBX 10 11 0 -2
BITMAP
7FC0
0040
7FC0
4000
3FC0
0000
FFE0
0000
3F80
4040
3F80
ENDCHAR
STARTCHAR U+B98A
ENCODING 47498
SWIDTH 935 0
DWIDTH 12 0
BBX 10 11 0 -2
BITMAP
7FC0
0040
7FC0
4000
3FC0
0000
FFE0
0000
7FC0
0A00
71C0
ENDCHAR
STARTCHAR U+B98D
ENCODING 47501
SWIDTH 935 0
DWIDTH 12 0
BBX 10 11 0 -2
BITMAP
7FC0
0040
7FC0
4000
FFE0
0000
7FC0
4000
7F80
4000
3FC0
ENDCHAR
STARTCHAR U+B98E
ENCODING 47502
SWIDTH 935 0
DWIDTH 12 0
BBX 10 11 0 -2
BITMAP
7FC0
0040
7FC0
4000
3FC0
0000
FFE0
0000
7FC0
1100
7FC0
ENDCHAR
STARTCHAR U+B9AC
ENCODING 47532
SWIDTH 935 0
DWIDTH 12 0
BBX 10 11 0 -2
BITMAP
7E40
0240
0240
7E40
4040
4040
4040
3F40
0040
0040
0040
ENDCHAR
STARTCHAR U+B9AD
ENCODING 47533
SWIDTH 935 0
DWIDTH 12 0
BBX 10 11 0 -2
BITMAP
7E40
0240
7E40
4040
4040
3F40
0000
3FC0
0040
0040
0040
ENDCHAR
STARTCHAR U+B9B0
ENCODING 47536
SWIDTH 935 0
DWIDTH 12 0
BBX 10 11 0 -2
BITMAP
7E40
0240
7E40
4040
4040
3F40
0040
2000
2000
2000
1FC0
ENDCHAR
STARTCHAR U+B9B4
ENCODING 47540
SWIDTH 935 0
DWIDTH 12 0
BBX 10 11 0 -2
BITMAP
7E40
0240
7E40
4040
3F40
0040
3FC0
0040
3FC0
2000
1FC0
ENDCHAR
STARTCHAR U+B9BC
ENCODING 47548
SWIDTH 935 0
DWIDTH 12 0
BBX 10 11 0 -2
BITMAP
7E40
0240
7E40
4040
4040
3F40
0000
3FC0
2040
2040
1FC0
ENDCHAR
STARTCHAR U+B9BD
ENCODING 47549
SWIDTH 935 0
DWIDTH 12 0
BBX 10 11 0 -2
BITMAP
7E40
0240
7E40
4040
4040
3F40
0000
2040
3FC0
2040
1FC0
ENDCHAR
STARTCHAR U+B9BF
ENCODING 47551
SWIDTH 935 0
DWIDTH 12 0
BBX 10 11 0 -2
BITMAP
7E40
0240
7E40
4040
4040
3F40
0000
0100
0280
0C40
3020
ENDCHAR
STARTCHAR U+B9C1
ENCODING 47553
SWIDTH 935 0
DWIDTH 12 0
BBX 10 11 0 -2
BITMAP
7E40
0240
7E40
4040
4040
3F40
0000
1F80
2040
2040
1F80
ENDCHAR
STARTCHAR U+B9C8
ENCODING 47560
SWIDTH 935 0
DWIDTH 12 0
BBX 10 11 0 -2
BITMAP
7E40
4240
4240
4240
4270
4240
4240
4240
3E40
0040
0040
ENDCHAR
STARTCHAR U+B9C9
ENCODING 47561
SWIDTH 935 0
DWIDTH 12 0
BBX 10 11 0 -2
BITMAP
7E40
4240
4270
4240
3E40
0040
0000
3FC0
0040
0040
0040
ENDCHAR
STARTCHAR U+B9CC
ENCODING 47564
SWIDTH 935 0
DWIDTH 12 0
BBX 10 11 0 -2
BITMAP
7E40
4240
4240
4270
3E40
0040
0040
2000
2000
2000
1FC0
ENDCHAR
STARTCHAR U+B9CE
ENCODING 47566
SWIDTH 935 0
DWIDTH 12 0
BBX 10 11 0 -2
BITMAP
7E40
4240
4270
4240
3E40
0040
0100
27E0
2240
2240
1D80
ENDCHAR
STARTCHAR U+B9CF
ENCODING 47567
SWIDTH 935 0
DWIDTH 12 0
BBX 10 11 0 -2
BITMAP
7E40
4240
4270
4240
3E40
0040
0000
3FC0
2000
2000
1FC0
ENDCHAR
STARTCHAR U+B9D0
ENCODING 47568
SWIDTH 935 0
DWIDTH 12 0
BBX 10 11 0 -2
BITMAP
7E40
4240
4270
4240
3E40
0040
3FC0
0040
3FC0
2000
1FC0
ENDCHAR
STARTCHAR U+B9D1
ENCODING 47569
SWIDTH 935 0
DWIDTH 12 0
BBX 10 11 0 -2
BITMAP
7E40
4240
4270
4240
3E40
0040
3FC0
0440
3C40
2040
1C40
ENDCHAR
STARTCHAR U+B9D2
ENCODING 47570
SWIDTH 935 0
DWIDTH 12 0
BBX 10 11 0 -2
BITMAP
7E40
4240
4270
4240
3E40
0040
3DC0
0540
3D40
2140
1FC0
ENDCHAR
STARTCHAR U+B9D8
ENCODING 47576
SWIDTH 935 0
DWIDTH 12 0
BBX 10 11 0 -2
BITMAP
7E40
4240
4270
4240
3E40
0040
0000
3FC0
2040
2040
1FC0
ENDCHAR
STARTCHAR U+B9D9
ENCODING 47577
SWIDTH 935 0
DWIDTH 12 0
BBX 10 11 0 -2
BITMAP
7E40
4240
4270
4240
3E40
0040
0000
2040
3FC0
2040
1FC0
ENDCHAR
STARTCHAR U+B9DB
ENCODING 47579
SWIDTH 935 0
DWIDTH 12 0
BBX 10 11 0 -2
BITMAP
7E40
4240
4270
4240
3E40
0040
0000
0100
0280
0C40
3020
ENDCHAR
STARTCHAR U+B9DD
ENCODING 47581
SWIDTH 935 0
DWIDTH 12 0
BBX 10 11 0 -2
BITMAP
7E40
4240
4270
4240
3E40
0040
0000
1F80
2040
2040
1F80
ENDCHAR
STARTCHAR U+B9DE
ENCODING 47582
SWIDTH 935 0
DWIDTH 12 0
BBX 10 11 0 -2
BITMAP
7E40
4240
4270
4240
3E40
0040
0000
3FE0
0100
0680
3860
ENDCHAR
STARTCHAR U+B9E1
ENCODING 47585
SWIDTH 935 0
DWIDTH 12 0
BBX 10 11 0 -2
BITMAP
7E40
4240
4270
4240
3E40
0040
3FC0
2000
3FC0
2000
1FC0
ENDCHAR
STARTCHAR U+B9E3
ENCODING 47587
SWIDTH 935 0
DWIDTH 12 0
BBX 10 11 0 -2
BITMAP
7E40
4240
4270
4240
3E40
0040
0700
0000
7FE0
1040
0F80
ENDCHAR
STARTCHAR U+B9E4
ENCODING 47588
SWIDTH 935 0
DWIDTH 12 0
BBX 10 11 0 -2
BITMAP
7D20
4520
4520
4520
4520
45E0
4520
4520
3D20
0120
0120
ENDCHAR
STARTCHAR U+B9E5
ENCODING 47589
SWIDTH 935 0
DWIDTH 12 0
BBX 9 8 1 1
BITMAP
FA00
8A00
8B80
8A00
7A00
0200
0000
3F80
ENDCHAR
STARTCHAR U+B9E8
ENCODING 47592
SWIDTH 935 0
DWIDTH 12 0
BBX 10 11 0 -2
BITMAP
7D20
4520
45E0
4520
3D20
0120
0020
2000
2000
2000
1FE0
ENDCHAR
STARTCHAR U+B9EC
ENCODING 47596
SWIDTH 935 0
DWIDTH 12 0
BBX 10 11 0 -2
BITMAP
7D20
4520
45E0
4520
3D20
0120
3FE0
0020
3FE0
2000
1FE0
ENDCHAR
STARTCHAR U+B9F4
ENCODING 47604
SWIDTH 935 0
DWIDTH 12 0
BBX 10 11 0 -2
BITMAP
7D20
4520
45E0
4520
3D20
0120
0000
3FE0
2020
2020
1FE0
ENDCHAR
STARTCHAR U+B9F5
ENCODING 47605
SWIDTH 935 0
DWIDTH 12 0
BBX 10 11 0 -2
BITMAP
7D20
4520
45E0
4520
3D20
0120
0000
2020
3FE0
2020
1FE0
ENDCHAR
STARTCHAR U+B9F7
ENCODING 47607
SWIDTH 935 0
DWIDTH 12 0
BBX 10 11 0 -2
BITMAP
7D20
4520
45E0
4520
3D20
0120
0000
0080
0080
0340
1C30
ENDCHAR
STARTCHAR U+B9F8
ENCODING 47608
SWIDTH 935 0
DWIDTH 12 0
BBX 10 11 0 -2
BITMAP
7D20
4520
45E0
4520
3D20
0120
0000
0840
0840
14A0
2310
ENDCHAR
STARTCHAR U+B9F9
ENCODING 47609
SWIDTH 935 0
DWIDTH 12 0
BBX 10 11 0 -2
BITMAP
7D20
4520
45E0
4520
3D20
0120
0000
1FC0
2020
2020
1FC0
ENDCHAR
STARTCHAR U+B9FA
ENCODING 47610
SWIDTH 935 0
DWIDTH 12 0
BBX 10 11 0 -2
BITMAP
7D20
4520
45E0
4520
3D20
0120
0000
3FE0
0100
0680
3860
ENDCHAR
STARTCHAR U+BA00
ENCODING 47616
SWIDTH 935 0
DWIDTH 12 0
BBX 10 11 0 -2
BITMAP
7E40
4240
4270
4240
4240
4240
4270
4240
3E40
0040
0040
ENDCHAR
STARTCHAR U+BA01
ENCODING 47617
SWIDTH 935 0
DWIDTH 12 0
BBX 10 11 0 -2
BITMAP
7E40
4270
4240
4270
3E40
0040
0000
3FC0
0040
0040
0040
ENDCHAR
STARTCHAR U+BA08
ENCODING 47624
SWIDTH 935 0
DWIDTH 12 0
BBX 10 11 0 -2
BITMAP
7E40
4270
4240
4270
3E40
0040
3FC0
0040
3FC0
2000
1FC0
ENDCHAR
STARTCHAR U+BA15
ENCODING 47637
SWIDTH 935 0
DWIDTH 12 0
BBX 10 11 0 -2
BITMAP
7E40
4270
4240
4270
3E40
0040
0000
1F80
2040
2040
1F80
ENDCHAR
STARTCHAR U+BA38
ENCODING 47672
SWIDTH 935 0
DWIDTH 12 0
BBX 10 11 0 -2
BITMAP
7E40
4240
4240
43C0
4240
4240
4240
4240
3E40
0040
0040
ENDCHAR
STARTCHAR U+BA39
ENCODING 47673
SWIDTH 935 0
DWIDTH 12 0
BBX 10 11 0 -2
BITMAP
7E40
4240
43C0
4240
3E40
0040
0000
3FC0
0040
0040
0040
ENDCHAR
STARTCHAR U+BA3C
ENCODING 47676
SWIDTH 935 0
DWIDTH 12 0
BBX 10 11 0 -2
BITMAP
7E40
4240
43C0
4240
3E40
0040
0040
2000
2000
2000
1FC0
ENDCHAR
STARTCHAR U+BA40
ENCODING 47680
SWIDTH 935 0
DWIDTH 12 0
BBX 10 11 0 -2
BITMAP
7E40
4240
43C0
4240
3E40
0040
3FC0
0040
3FC0
2000
1FC0
ENDCHAR
STARTCHAR U+BA42
ENCODING 47682
SWIDTH 935 0
DWIDTH 12 0
BBX 10 11 0 -2
BITMAP
7E40
4240
43C0
4240
3E40
0040
3DC0
0540
3D40
2140
1FC0
ENDCHAR
STARTCHAR U+BA48
ENCODING 47688
SWIDTH 935 0
DWIDTH 12 0
BBX 10 11 0 -2
BITMAP
7E40
4240
43C0
4240
3E40
0040
0000
3FC0
2040
2040
1FC0
ENDCHAR
STARTCHAR U+BA49
ENCODING 47689
SWIDTH 935 0
DWIDTH 12 0
BBX 10 11 0 -2
BITMAP
7E40
4240
43C0
4240
3E40
0040
0000
2040
3FC0
2040
1FC0
ENDCHAR
STARTCHAR U+BA4B
ENCODING 47691
SWIDTH 935 0
DWIDTH 12 0
BBX 10 11 0 -2
BITMAP
7E40
4240
43C0
4240
3E40
0040
0000
0200
0500
0880
3060
ENDCHAR
STARTCHAR U+BA4D
ENCODING 47693
SWIDTH 935 0
DWIDTH 12 0
BBX 10 11 0 -2
BITMAP
7E40
4240
43C0
4240
3E40
0040
0000
1F80
2040
2040
1F80
ENDCHAR
STARTCHAR U+BA4E
ENCODING 47694
SWIDTH 935 0
DWIDTH 12 0
BBX 10 11 0 -2
BITMAP
7E40
4240
43C0
4240
3E40
0040
0000
3FE0
0100
0680
3860
ENDCHAR
STARTCHAR U+BA53
ENCODING 47699
SWIDTH 935 0
DWIDTH 12 0
BBX 10 11 0 -2
BITMAP
7E40
4240
43C0
4240
3E40
0040
0700
0000
7FE0
1040
0F80
ENDCHAR
STARTCHAR U+BA54
ENCODING 47700
SWIDTH 935 0
DWIDTH 12 0
BBX 8 11 1 -2
BITMAP
F9
89
89
89
8F
89
89
89
79
01
01
ENDCHAR
STARTCHAR U+BA55
ENCODING 47701
SWIDTH 935 0
DWIDTH 12 0
BBX 9 8 1 1
BITMAP
F900
8900
8F00
8900
7900
0100
0000
3F80
ENDCHAR
STARTCHAR U+BA58
ENCODING 47704
SWIDTH 935 0
DWIDTH 12 0
BBX 10 11 0 -2
BITMAP
7CA0
44A0
47A0
44A0
3CA0
00A0
0020
2000
2000
2000
1FE0
ENDCHAR
STARTCHAR U+BA5C
ENCODING 47708
SWIDTH 935 0
DWIDTH 12 0
BBX 10 11 0 -2
BITMAP
7CA0
44A0
47A0
44A0
3CA0
00A0
3FE0
0020
3FE0
2000
1FE0
ENDCHAR
STARTCHAR U+BA64
ENCODING 47716
SWIDTH 935 0
DWIDTH 12 0
BBX 10 11 0 -2
BITMAP
7CA0
44A0
47A0
44A0
3CA0
00A0
0000
3FE0
2020
2020
1FE0
ENDCHAR
STARTCHAR U+BA65
ENCODING 47717
SWIDTH 935 0
DWIDTH 12 0
BBX 10 11 0 -2
BITMAP
7CA0
44A0
47A0
44A0
3CA0
00A0
0000
2020
3FE0
2020
1FE0
ENDCHAR
STARTCHAR U+BA67
ENCODING 47719
SWIDTH 935 0
DWIDTH 12 0
BBX 10 11 0 -2
BITMAP
7CA0
44A0
47A0
44A0
3CA0
00A0
0000
0080
0080
0340
1C30
ENDCHAR
STARTCHAR U+BA68
ENCODING 47720
SWIDTH 935 0
DWIDTH 12 0
BBX 10 11 0 -2
BITMAP
7CA0
44A0
47A0
44A0
3CA0
00A0
0000
0840
0840
14A0
2310
ENDCHAR
STARTCHAR U+BA69
ENCODING 47721
SWIDTH 935 0
DWIDTH 12 0
BBX 10 11 0 -2
BITMAP
7CA0
44A0
47A0
44A0
3CA0
00A0
0000
1FC0
2020
2020
1FC0
ENDCHAR
STARTCHAR U+BA70
ENCODING 47728
SWIDTH 935 0
DWIDTH 12 0
BBX 10 11 0 -2
BITMAP
7E40
4240
43C0
4240
4240
43C0
4240
4240
3E40
0040
0040
ENDCHAR
STARTCHAR U+BA71
ENCODING 47729
SWIDTH 935 0
DWIDTH 12 0
BBX 10 11 0 -2
BITMAP
7E40
43C0
4240
43C0
3E40
0040
0000
3FC0
0040
0040
0040
ENDCHAR
STARTCHAR U+BA74
ENCODING 47732
SWIDTH 935 0
DWIDTH 12 0
BBX 10 11 0 -2
BITMAP
7E40
43C0
4240
43C0
3E40
0040
0040
2000
2000
2000
1FC0
ENDCHAR
STARTCHAR U+BA78
ENCODING 47736
SWIDTH 935 0
DWIDTH 12 0
BBX 10 11 0 -2
BITMAP
7E40
43C0
4240
43C0
3E40
0040
3FC0
0040
3FC0
2000
1FC0
ENDCHAR
STARTCHAR U+BA83
ENCODING 47747
SWIDTH 935 0
DWIDTH 12 0
BBX 10 11 0 -2
BITMAP
7E40
43C0
4240
43C0
3E40
0040
0000
0200
0500
0880
3060
ENDCHAR
STARTCHAR U+BA84
ENCODING 47748
SWIDTH 935 0
DWIDTH 12 0
BBX 10 11 0 -2
BITMAP
7E40
43C0
4240
43C0
3E40
0040
0000
0880
0880
1540
2220
ENDCHAR
STARTCHAR U+BA85
ENCODING 47749
SWIDTH 935 0
DWIDTH 12 0
BBX 10 11 0 -2
BITMAP
7E40
43C0
4240
43C0
3E40
0040
0000
1F80
2040
2040
1F80
ENDCHAR
STARTCHAR U+BA87
ENCODING 47751
SWIDTH 935 0
DWIDTH 12 0
BBX 10 11 0 -2
BITMAP
7E40
43C0
4240
43C0
3E40
0040
0100
3FE0
0100
0680
3860
ENDCHAR
STARTCHAR U+BA8C
ENCODING 47756
SWIDTH 935 0
DWIDTH 12 0
BBX 8 11 1 -2
BITMAP
F9
89
8F
89
89
8F
89
89
79
01
01
ENDCHAR
STARTCHAR U+BAA8
ENCODING 47784
SWIDTH 935 0
DWIDTH 12 0
BBX 10 10 0 -1
BITMAP
7FC0
4040
4040
4040
4040
3FC0
0000
0400
0400
FFC0
ENDCHAR
STARTCHAR U+BAA9
ENCODING 47785
SWIDTH 935 0
DWIDTH 12 0
BBX 10 11 0 -2
BITMAP
7FC0
4040
4040
3FC0
0400
FFE0
0000
7FC0
0040
0040
0040
ENDCHAR
STARTCHAR U+BAAB
ENCODING 47787
SWIDTH 935 0
DWIDTH 12 0
BBX 10 11 0 -2
BITMAP
7FC0
4040
4040
3FC0
0400
FFE0
0000
7880
0880
0940
0A20
ENDCHAR
STARTCHAR U+BAAC
ENCODING 47788
SWIDTH 935 0
DWIDTH 12 0
BBX 10 11 0 -2
BITMAP
7FC0
4040
4040
3FC0
0000
0400
FFE0
4000
4000
4000
3FC0
ENDCHAR
STARTCHAR U+BAB0
ENCODING 47792
SWIDTH 935 0
DWIDTH 12 0
BBX 10 11 0 -2
BITMAP
7FC0
4040
3FC0
0400
FFE0
0000
7FC0
0040
7FC0
4000
3FC0
ENDCHAR
STARTCHAR U+BAB2
ENCODING 47794
SWIDTH 935 0
DWIDTH 12 0
BBX 10 11 0 -2
BITMAP
7FC0
4040
3FC0
0400
FFE0
0000
7BC0
0A40
7A40
4240
3FC0
ENDCHAR
STARTCHAR U+BAB8
ENCODING 47800
SWIDTH 935 0
DWIDTH 12 0
BBX 10 11 0 -2
BITMAP
7FC0
4040
4040
3FC0
0400
FFE0
0000
7FC0
4040
4040
3FC0
ENDCHAR
STARTCHAR U+BAB9
ENCODING 47801
SWIDTH 935 0
DWIDTH 12 0
BBX 10 11 0 -2
BITMAP
7FC0
4040
4040
3FC0
0400
FFE0
0000
4040
7FC0
4040
3FC0
ENDCHAR
STARTCHAR U+BABB
ENCODING 47803
SWIDTH 935 0
DWIDTH 12 0
BBX 10 11 0 -2
BITMAP
7FC0
4040
4040
3FC0
0400
FFE0
0000
0400
0A00
1100
60C0
ENDCHAR
STARTCHAR U+BABD
ENCODING 47805
SWIDTH 935 0
DWIDTH 12 0
BBX 10 11 0 -2
BITMAP
7FC0
4040
4040
3FC0
0400
FFE0
0000
3F80
4040
4040
3F80
ENDCHAR
STARTCHAR U+BAC4
ENCODING 47812
SWIDTH 935 0
DWIDTH 12 0
BBX 10 11 0 -2
BITMAP
7E40
4240
4240
4240
3E70
0040
0840
0840
7F40
0040
0040
ENDCHAR
STARTCHAR U+BAC8
ENCODING 47816
SWIDTH 935 0
DWIDTH 12 0
BBX 10 11 0 -2
BITMAP
7E40
4240
4240
3E70
0840
7F40
0040
2000
2000
2000
1FC0
ENDCHAR
STARTCHAR U+BAD8
ENCODING 47832
SWIDTH 935 0
DWIDTH 12 0
BBX 10 11 0 -2
BITMAP
7E40
4240
4240
3E70
0840
7F40
0000
0880
0880
1540
2220
ENDCHAR
STARTCHAR U+BAD9
ENCODING 47833
SWIDTH 935 0
DWIDTH 12 0
BBX 10 11 0 -2
BITMAP
7E40
4240
4240
3E70
0840
7F40
0000
1F80
2040
2040
1F80
ENDCHAR
STARTCHAR U+BAFC
ENCODING 47868
SWIDTH 935 0
DWIDTH 12 0
BBX 10 11 0 -2
BITMAP
7E40
4240
4240
4240
3E40
0040
0840
0840
7F40
0040
0040
ENDCHAR
STARTCHAR U+BB00
ENCODING 47872
SWIDTH 935 0
DWIDTH 12 0
BBX 10 11 0 -2
BITMAP
7E40
4240
4240
3E40
0840
7F40
0040
2040
2000
2000
1FC0
ENDCHAR
STARTCHAR U+BB04
ENCODING 47876
SWIDTH 935 0
DWIDTH 12 0
BBX 10 11 0 -2
BITMAP
7E40
4240
3E40
0840
7F40
0040
3FC0
0040
3FC0
2000
1FC0
ENDCHAR
STARTCHAR U+BB0D
ENCODING 47885
SWIDTH 935 0
DWIDTH 12 0
BBX 10 11 0 -2
BITMAP
7E40
4240
4240
3E40
0840
7F40
0040
2040
3FC0
2040
1FC0
ENDCHAR
STARTCHAR U+BB0F
ENCODING 47887
SWIDTH 935 0
DWIDTH 12 0
BBX 10 11 0 -2
BITMAP
7E40
4240
4240
3E40
0840
7F40
0040
0200
0500
0880
3060
ENDCHAR
STARTCHAR U+BB11
ENCODING 47889
SWIDTH 935 0
DWIDTH 12 0
BBX 10 11 0 -2
BITMAP
7E40
4240
4240
3E40
0840
7F40
0040
1F80
2040
2040
1F80
ENDCHAR
STARTCHAR U+BB18
ENCODING 47896
SWIDTH 935 0
DWIDTH 12 0
BBX 10 10 0 -1
BITMAP
7FC0
4040
4040
4040
4040
3FC0
0000
1100
1100
FFC0
ENDCHAR
STARTCHAR U+BB1C
ENCODING 47900
SWIDTH 935 0
DWIDTH 12 0
BBX 10 11 0 -2
BITMAP
7FC0
4040
4040
3FC0
0000
1100
FFE0
4000
4000
4000
3FC0
ENDCHAR
STARTCHAR U+BB20
ENCODING 47904
SWIDTH 935 0
DWIDTH 12 0
BBX 10 11 0 -2
BITMAP
7FC0
4040
3FC0
1100
FFE0
0000
7FC0
0040
7FC0
4000
3FC0
ENDCHAR
STARTCHAR U+BB29
ENCODING 47913
SWIDTH 935 0
DWIDTH 12 0
BBX 10 11 0 -2
BITMAP
7FC0
4040
4040
3FC0
1100
FFE0
0000
4040
7FC0
4040
3FC0
ENDCHAR
STARTCHAR U+BB2B
ENCODING 47915
SWIDTH 935 0
DWIDTH 12 0
BBX 10 11 0 -2
BITMAP
7FC0
4040
4040
3FC0
1100
FFE0
0000
0400
0A00
1100
60C0
ENDCHAR
STARTCHAR U+BB34
ENCODING 47924
SWIDTH 935 0
DWIDTH 12 0
BBX 10 11 0 -2
BITMAP
7FC0
4040
4040
4040
3FC0
0000
FFE0
0400
0400
0400
0400
ENDCHAR
STARTCHAR U+BB35
ENCODING 47925
SWIDTH 935 0
DWIDTH 12 0
BBX 10 11 0 -2
BITMAP
7FC0
4040
4040
3FC0
0000
FFE0
0400
7FC0
0040
0040
0040
ENDCHAR
STARTCHAR U+BB36
ENCODING 47926
SWIDTH 935 0
DWIDTH 12 0
BBX 10 11 0 -2
BITMAP
7FC0
4040
4040
3FC0
0000
FFE0
0400
7FC0
0440
0440
0440
ENDCHAR
STARTCHAR U+BB38
ENCODING 47928
SWIDTH 935 0
DWIDTH 12 0
BBX 10 11 0 -2
BITMAP
7FC0
4040
4040
3FC0
0000
0000
FFE0
4400
4400
4000
3FC0
ENDCHAR
STARTCHAR U+BB3B
ENCODING 47931
SWIDTH 935 0
DWIDTH 12 0
BBX 10 11 0 -2
BITMAP
7FC0
4040
4040
3FC0
0000
FFE0
0400
7FC0
4000
4000
3FC0
ENDCHAR
STARTCHAR U+BB3C
ENCODING 47932
SWIDTH 935 0
DWIDTH 12 0
BBX 10 11 0 -2
BITMAP
7FC0
4040
3FC0
0000
FFE0
0400
7FC0
0040
7FC0
4000
3FC0
ENDCHAR
STARTCHAR U+BB3D
ENCODING 47933
SWIDTH 935 0
DWIDTH 12 0
BBX 10 11 0 -2
BITMAP
7FC0
4040
3FC0
0000
FFE0
0400
7BC0
0840
7840
4040
3C40
ENDCHAR
STARTCHAR U+BB3E
ENCODING 47934
SWIDTH 935 0
DWIDTH 12 0
BBX 10 11 0 -2
BITMAP
7FC0
4040
3FC0
0000
FFE0
0400
7BC0
0A40
7A40
4240
3FC0
ENDCHAR
STARTCHAR U+BB44
ENCODING 47940
SWIDTH 935 0
DWIDTH 12 0
BBX 10 11 0 -2
BITMAP
7FC0
4040
4040
3FC0
0000
FFE0
0400
7FC0
4040
4040
3FC0
ENDCHAR
STARTCHAR U+BB45
ENCODING 47941
SWIDTH 935 0
DWIDTH 12 0
BBX 10 11 0 -2
BITMAP
7FC0
4040
4040
3FC0
0000
FFE0
0400
4040
7FC0
4040
3FC0
ENDCHAR
STARTCHAR U+BB47
ENCODING 47943
SWIDTH 935 0
DWIDTH 12 0
BBX 10 11 0 -2
BITMAP
7FC0
4040
4040
3FC0
0000
FFE0
0400
0400
0A00
1100
60C0
ENDCHAR
STARTCHAR U+BB49
ENCODING 47945
SWIDTH 935 0
DWIDTH 12 0
BBX 10 11 0 -2
BITMAP
7FC0
4040
4040
3FC0
0000
FFE0
0400
3F80
4040
4040
3F80
ENDCHAR
STARTCHAR U+BB4D
ENCODING 47949
SWIDTH 935 0
DWIDTH 12 0
BBX 10 11 0 -2
BITMAP
7FC0
4040
3FC0
0000
FFE0
0400
7FC0
4000
7F80
4000
3FC0
ENDCHAR
STARTCHAR U+BB4F
ENCODING 47951
SWIDTH 935 0
DWIDTH 12 0
BBX 10 11 0 -2
BITMAP
7FC0
4040
3FC0
0000
FFE0
0400
0E00
0000
FFE0
2080
1F00
ENDCHAR
STARTCHAR U+BB50
ENCODING 47952
SWIDTH 935 0
DWIDTH 12 0
BBX 10 11 0 -2
BITMAP
7E40
4240
4240
4240
3E40
0040
7F40
0840
0BC0
0840
0840
ENDCHAR
STARTCHAR U+BB54
ENCODING 47956
SWIDTH 935 0
DWIDTH 12 0
BBX 10 11 0 -2
BITMAP
7C40
4440
44C0
3C40
0040
7F40
0840
2800
2000
2000
1FC0
ENDCHAR
STARTCHAR U+BB58
ENCODING 47960
SWIDTH 935 0
DWIDTH 12 0
BBX 10 11 0 -2
BITMAP
7C40
4440
3CC0
0040
7F40
0840
3FC0
0040
3FC0
2000
1FC0
ENDCHAR
STARTCHAR U+BB61
ENCODING 47969
SWIDTH 935 0
DWIDTH 12 0
BBX 10 11 0 -2
BITMAP
7C40
4440
44C0
3C40
0040
7F40
0840
2040
3FC0
2040
1FC0
ENDCHAR
STARTCHAR U+BB63
ENCODING 47971
SWIDTH 935 0
DWIDTH 12 0
BBX 10 11 0 -2
BITMAP
7C40
4440
44C0
3C40
0040
7F40
0840
0200
0500
0880
3060
ENDCHAR
STARTCHAR U+BB6C
ENCODING 47980
SWIDTH 935 0
DWIDTH 12 0
BBX 8 11 1 -2
BITMAP
F9
89
89
79
01
01
FD
21
27
21
21
ENDCHAR
STARTCHAR U+BB88
ENCODING 48008
SWIDTH 935 0
DWIDTH 12 0
BBX 10 11 0 -2
BITMAP
7E40
4240
4240
4240
3E40
0040
7F40
0840
0840
0840
0840
ENDCHAR
STARTCHAR U+BB8C
ENCODING 48012
SWIDTH 935 0
DWIDTH 12 0
BBX 10 11 0 -2
BITMAP
7C40
4440
4440
3C40
0040
7FC0
0840
2840
2000
2000
1FC0
ENDCHAR
STARTCHAR U+BB90
ENCODING 48016
SWIDTH 935 0
DWIDTH 12 0
BBX 10 11 0 -2
BITMAP
7C40
4440
3C40
0040
0040
7FC0
3FC0
0040
3FC0
2000
1FC0
ENDCHAR
STARTCHAR U+BBA4
ENCODING 48036
SWIDTH 935 0
DWIDTH 12 0
BBX 10 11 0 -2
BITMAP
7FC0
4040
4040
4040
3FC0
0000
FFE0
1100
1100
1100
1100
ENDCHAR
STARTCHAR U+BBA8
ENCODING 48040
SWIDTH 935 0
DWIDTH 12 0
BBX 10 11 0 -2
BITMAP
7FC0
4040
4040
3FC0
0000
0000
FFE0
5100
5100
4000
3FC0
ENDCHAR
STARTCHAR U+BBAC
ENCODING 48044
SWIDTH 935 0
DWIDTH 12 0
BBX 10 11 0 -2
BITMAP
7FC0
4040
3FC0
0000
FFE0
1100
7FC0
0040
7FC0
4000
3FC0
ENDCHAR
STARTCHAR U+BBB4
ENCODING 48052
SWIDTH 935 0
DWIDTH 12 0
BBX 10 11 0 -2
BITMAP
7FC0
4040
4040
3FC0
0000
FFE0
1100
7FC0
4040
4040
3FC0
ENDCHAR
STARTCHAR U+BBB7
ENCODING 48055
SWIDTH 935 0
DWIDTH 12 0
BBX 10 11 0 -2
BITMAP
7FC0
4040
4040
3FC0
0000
FFE0
1100
0400
0A00
1100
60C0
ENDCHAR
STARTCHAR U+BBC0
ENCODING 48064
SWIDTH 935 0
DWIDTH 12 0
BBX 10 10 0 -1
BITMAP
7FC0
4040
4040
4040
4040
3FC0
0000
0000
0000
FFC0
ENDCHAR
STARTCHAR U+BBC4
ENCODING 48068
SWIDTH 935 0
DWIDTH 12 0
BBX 10 11 0 -2
BITMAP
7FC0
4040
4040
3FC0
0000
0000
FFE0
4000
4000
4000
3FC0
ENDCHAR
STARTCHAR U+BBC8
ENCODING 48072
SWIDTH 935 0
DWIDTH 12 0
BBX 10 11 0 -2
BITMAP
7FC0
4040
3FC0
0000
FFE0
0000
7FC0
0040
7FC0
4000
3FC0
ENDCHAR
STARTCHAR U+BBD0
ENCODING 48080
SWIDTH 935 0
DWIDTH 12 0
BBX 10 11 0 -2
BITMAP
7FC0
4040
4040
3FC0
0000
FFE0
0000
7FC0
4040
4040
3FC0
ENDCHAR
STARTCHAR U+BBD3
ENCODING 48083
SWIDTH 935 0
DWIDTH 12 0
BBX 10 11 0 -2
BITMAP
7FC0
4040
4040
3FC0
0000
FFE0
0000
0400
0A00
1100
60C0
ENDCHAR
STARTCHAR U+BBF8
ENCODING 48120
SWIDTH 935 0
DWIDTH 12 0
BBX 10 11 0 -2
BITMAP
7E40
4240
4240
4240
4240
4240
4240
4240
3E40
0040
0040
ENDCHAR
STARTCHAR U+BBF9
ENCODING 48121
SWIDTH 935 0
DWIDTH 12 0
BBX 10 11 0 -2
BITMAP
7E40
4240
4240
4240
3E40
0040
0000
3FC0
0040
0040
0040
ENDCHAR
STARTCHAR U+BBFC
ENCODING 48124
SWIDTH 935 0
DWIDTH 12 0
BBX 10 11 0 -2
BITMAP
7E40
4240
4240
4240
3E40
0040
0040
2000
2000
2000
1FC0
ENDCHAR
STARTCHAR U+BBFF
ENCODING 48127
SWIDTH 935 0
DWIDTH 12 0
BBX 10 11 0 -2
BITMAP
7E40
4240
4240
4240
3E40
0040
0000
3FC0
2000
2000
1FC0
ENDCHAR
STARTCHAR U+BC00
ENCODING 48128
SWIDTH 935 0
DWIDTH 12 0
BBX 10 11 0 -2
BITMAP
7E40
4240
4240
4240
3E40
0040
3FC0
0040
3FC0
2000
1FC0
ENDCHAR
STARTCHAR U+BC02
ENCODING 48130
SWIDTH 935 0
DWIDTH 12 0
BBX 10 11 0 -2
BITMAP
7E40
4240
4240
4240
3E40
0040
3DC0
0540
3D40
2140
1FC0
ENDCHAR
STARTCHAR U+BC08
ENCODING 48136
SWIDTH 935 0
DWIDTH 12 0
BBX 10 11 0 -2
BITMAP
7E40
4240
4240
4240
3E40
0040
0000
3FC0
2040
2040
1FC0
ENDCHAR
STARTCHAR U+BC09
ENCODING 48137
SWIDTH 935 0
DWIDTH 12 0
BBX 10 11 0 -2
BITMAP
7E40
4240
4240
4240
3E40
0040
0000
2040
3FC0
2040
1FC0
ENDCHAR
STARTCHAR U+BC0B
ENCODING 48139
SWIDTH 935 0
DWIDTH 12 0
BBX 10 11 0 -2
BITMAP
7E40
4240
4240
4240
3E40
0040
0000
0100
0280
0C40
3020
ENDCHAR
STARTCHAR U+BC0C
ENCODING 48140
SWIDTH 935 0
DWIDTH 12 0
BBX 10 11 0 -2
BITMAP
7E40
4240
4240
4240
3E40
0040
0000
0880
0880
1540
2220
ENDCHAR
STARTCHAR U+BC0D
ENCODING 48141
SWIDTH 935 0
DWIDTH 12 0
BBX 10 11 0 -2
BITMAP
7E40
4240
4240
4240
3E40
0040
0000
1F80
2040
2040
1F80
ENDCHAR
STARTCHAR U+BC0F
ENCODING 48143
SWIDTH 935 0
DWIDTH 12 0
BBX 10 11 0 -2
BITMAP
7E40
4240
4240
4240
3E40
0040
0100
3FE0
0100
0680
3860
ENDCHAR
STARTCHAR U+BC11
ENCODING 48145
SWIDTH 935 0
DWIDTH 12 0
BBX 10 11 0 -2
BITMAP
7E40
4240
4240
4240
3E40
0040
3FC0
2000
3FC0
2000
1FC0
ENDCHAR
STARTCHAR U+BC14
ENCODING 48148
SWIDTH 935 0
DWIDTH 12 0
BBX 10 11 0 -2
BITMAP
4240
4240
4240
7E40
4270
4240
4240
3E40
0040
0040
0040
ENDCHAR
STARTCHAR U+BC15
ENCODING 48149
SWIDTH 935 0
DWIDTH 12 0
BBX 10 11 0 -2
BITMAP
4240
4240
7E70
4240
3E40
0040
0000
3FC0
0040
0040
0040
ENDCHAR
STARTCHAR U+BC16
ENCODING 48150
SWIDTH 935 0
DWIDTH 12 0
BBX 10 11 0 -2
BITMAP
4240
4240
7E70
4240
3E40
0040
0000
3FC0
0440
0440
0440
ENDCHAR
STARTCHAR U+BC17
ENCODING 48151
SWIDTH 935 0
DWIDTH 12 0
BBX 10 11 0 -2
BITMAP
4240
4240
7E70
4240
3E40
0040
0000
3C80
0480
0540
0220
ENDCHAR
STARTCHAR U+BC18
ENCODING 48152
SWIDTH 935 0
DWIDTH 12 0
BBX 10 11 0 -2
BITMAP
4240
4240
7E40
4270
3E40
0040
0040
2000
2000
2000
1FC0
ENDCHAR
STARTCHAR U+BC1B
ENCODING 48155
SWIDTH 935 0
DWIDTH 12 0
BBX 10 11 0 -2
BITMAP
4240
4240
7E70
4240
3E40
0040
0000
3FC0
2000
2000
1FC0
ENDCHAR
STARTCHAR U+BC1C
ENCODING 48156
SWIDTH 935 0
DWIDTH 12 0
BBX 10 11 0 -2
BITMAP
4240
4240
7E70
4240
3E40
0040
3FC0
0040
3FC0
2000
1FC0
ENDCHAR
STARTCHAR U+BC1D
ENCODING 48157
SWIDTH 935 0
DWIDTH 12 0
BBX 10 11 0 -2
BITMAP
4240
4240
7E70
4240
3E40
0040
3FC0
0440
3C40
2040
1C40
ENDCHAR
STARTCHAR U+BC1E
ENCODING 48158
SWIDTH 935 0
DWIDTH 12 0
BBX 10 11 0 -2
BITMAP
4240
4240
7E70
4240
3E40
0040
3DC0
0540
3D40
2140
1FC0
ENDCHAR
STARTCHAR U+BC1F
ENCODING 48159
SWIDTH 935 0
DWIDTH 12 0
BBX 10 11 0 -2
BITMAP
4240
4240
7E70
4240
3E40
0040
3A40
0A40
3BC0
2240
1FC0
ENDCHAR
STARTCHAR U+BC24
ENCODING 48164
SWIDTH 935 0
DWIDTH 12 0
BBX 10 11 0 -2
BITMAP
4240
4240
7E70
4240
3E40
0040
0000
3FC0
2040
2040
1FC0
ENDCHAR
STARTCHAR U+BC25
ENCODING 48165
SWIDTH 935 0
DWIDTH 12 0
BBX 10 11 0 -2
BITMAP
4240
4240
7E70
4240
3E40
0040
0000
2040
3FC0
2040
1FC0
ENDCHAR
STARTCHAR U+BC27
ENCODING 48167
SWIDTH 935 0
DWIDTH 12 0
BBX 10 11 0 -2
BITMAP
4240
4240
7E70
4240
3E40
0040
0000
0100
0280
0C40
3020
ENDCHAR
STARTCHAR U+BC29
ENCODING 48169
SWIDTH 935 0
DWIDTH 12 0
BBX 10 11 0 -2
BITMAP
4240
4240
7E70
4240
3E40
0040
0000
1F80
2040
2040
1F80
ENDCHAR
STARTCHAR U+BC2D
ENCODING 48173
SWIDTH 935 0
DWIDTH 12 0
BBX 10 11 0 -2
BITMAP
4240
4240
7E70
4240
3E40
0040
3FC0
2000
3FC0
2000
1FC0
ENDCHAR
STARTCHAR U+BC30
ENCODING 48176
SWIDTH 935 0
DWIDTH 12 0
BBX 10 11 0 -2
BITMAP
4520
4520
4520
7D20
4520
45E0
4520
3D20
0120
0120
0120
ENDCHAR
STARTCHAR U+BC31
ENCODING 48177
SWIDTH 935 0
DWIDTH 12 0
BBX 9 8 1 1
BITMAP
8A00
8A00
FB80
8A00
7A00
0200
0000
3F80
ENDCHAR
STARTCHAR U+BC34
ENCODING 48180
SWIDTH 935 0
DWIDTH 12 0
BBX 10 11 0 -2
BITMAP
4520
4520
7DE0
4520
3D20
0120
0020
2000
2000
2000
1FE0
ENDCHAR
STARTCHAR U+BC38
ENCODING 48184
SWIDTH 935 0
DWIDTH 12 0
BBX 10 11 0 -2
BITMAP
4520
4520
7DE0
4520
3D20
0120
3FE0
0020
3FE0
2000
1FE0
ENDCHAR
STARTCHAR U+BC40
ENCODING 48192
SWIDTH 935 0
DWIDTH 12 0
BBX 10 11 0 -2
BITMAP
4520
4520
7DE0
4520
3D20
0120
0000
3FE0
2020
2020
1FE0
ENDCHAR
STARTCHAR U+BC41
ENCODING 48193
SWIDTH 935 0
DWIDTH 12 0
BBX 10 11 0 -2
BITMAP
4520
4520
7DE0
4520
3D20
0120
0000
2020
3FE0
2020
1FE0
ENDCHAR
STARTCHAR U+BC43
ENCODING 48195
SWIDTH 935 0
DWIDTH 12 0
BBX 10 11 0 -2
BITMAP
4520
4520
7DE0
4520
3D20
0120
0000
0080
0080
0340
1C30
ENDCHAR
STARTCHAR U+BC44
ENCODING 48196
SWIDTH 935 0
DWIDTH 12 0
BBX 10 11 0 -2
BITMAP
4520
4520
7DE0
4520
3D20
0120
0000
0840
0840
14A0
2310
ENDCHAR
STARTCHAR U+BC45
ENCODING 48197
SWIDTH 935 0
DWIDTH 12 0
BBX 10 11 0 -2
BITMAP
4520
4520
7DE0
4520
3D20
0120
0000
1FC0
2020
2020
1FC0
ENDCHAR
STARTCHAR U+BC49
ENCODING 48201
SWIDTH 935 0
DWIDTH 12 0
BBX 10 11 0 -2
BITMAP
4520
4520
7DE0
4520
3D20
0120
3FE0
2000
3FE0
2000
1FE0
ENDCHAR
STARTCHAR U+BC4C
ENCODING 48204
SWIDTH 935 0
DWIDTH 12 0
BBX 10 11 0 -2
BITMAP
4240
4240
4270
7E40
4240
4240
4270
3E40
0040
0040
0040
ENDCHAR
STARTCHAR U+BC4D
ENCODING 48205
SWIDTH 935 0
DWIDTH 12 0
BBX 10 11 0 -2
BITMAP
4240
4270
7E40
4270
3E40
0040
0000
3FC0
0040
0040
0040
ENDCHAR
STARTCHAR U+BC50
ENCODING 48208
SWIDTH 935 0
DWIDTH 12 0
BBX 10 11 0 -2
BITMAP
4240
4270
7E40
4270
3E40
0040
0040
2000
2000
2000
1FC0
ENDCHAR
STARTCHAR U+BC5D
ENCODING 48221
SWIDTH 935 0
DWIDTH 12 0
BBX 10 11 0 -2
BITMAP
4240
4270
7E40
4270
3E40
0040
0000
2040
3FC0
2040
1FC0
ENDCHAR
STARTCHAR U+BC84
ENCODING 48260
SWIDTH 935 0
DWIDTH 12 0
BBX 10 11 0 -2
BITMAP
4240
4240
4240
7FC0
4240
4240
4240
3E40
0040
0040
0040
ENDCHAR
STARTCHAR U+BC85
ENCODING 48261
SWIDTH 935 0
DWIDTH 12 0
BBX 10 11 0 -2
BITMAP
4240
4240
7FC0
4240
3E40
0040
0000
3FC0
0040
0040
0040
ENDCHAR
STARTCHAR U+BC88
ENCODING 48264
SWIDTH 935 0
DWIDTH 12 0
BBX 10 11 0 -2
BITMAP
4240
4240
7FC0
4240
3E40
0040
0040
2000
2000
2000
1FC0
ENDCHAR
STARTCHAR U+BC8B
ENCODING 48267
SWIDTH 935 0
DWIDTH 12 0
BBX 10 11 0 -2
BITMAP
4240
4240
7FC0
4240
3E40
0040
0000
3FC0
2000
2000
1FC0
ENDCHAR
STARTCHAR U+BC8C
ENCODING 48268
SWIDTH 935 0
DWIDTH 12 0
BBX 10 11 0 -2
BITMAP
4240
4240
7FC0
4240
3E40
0040
3FC0
0040
3FC0
2000
1FC0
ENDCHAR
STARTCHAR U+BC8E
ENCODING 48270
SWIDTH 935 0
DWIDTH 12 0
BBX 10 11 0 -2
BITMAP
4240
4240
7FC0
4240
3E40
0040
3DC0
0540
3D40
2140
1FC0
ENDCHAR
STARTCHAR U+BC94
ENCODING 48276
SWIDTH 935 0
DWIDTH 12 0
BBX 10 11 0 -2
BITMAP
4240
4240
7FC0
4240
3E40
0040
0000
3FC0
2040
2040
1FC0
ENDCHAR
STARTCHAR U+BC95
ENCODING 48277
SWIDTH 935 0
DWIDTH 12 0
BBX 10 11 0 -2
BITMAP
4240
4240
7FC0
4240
3E40
0040
0000
2040
3FC0
2040
1FC0
ENDCHAR
STARTCHAR U+BC97
ENCODING 48279
SWIDTH 935 0
DWIDTH 12 0
BBX 10 11 0 -2
BITMAP
4240
4240
7FC0
4240
3E40
0040
0000
0200
0500
0880
3060
ENDCHAR
STARTCHAR U+BC99
ENCODING 48281
SWIDTH 935 0
DWIDTH 12 0
BBX 10 11 0 -2
BITMAP
4240
4240
7FC0
4240
3E40
0040
0000
1F80
2040
2040
1F80
ENDCHAR
STARTCHAR U+BC9A
ENCODING 48282
SWIDTH 935 0
DWIDTH 12 0
BBX 10 11 0 -2
BITMAP
4240
4240
7FC0
4240
3E40
0040
0000
3FE0
0100
0680
3860
ENDCHAR
STARTCHAR U+BCA0
ENCODING 48288
SWIDTH 935 0
DWIDTH 12 0
BBX 8 11 1 -2
BITMAP
89
89
89
F9
8F
89
89
79
01
01
01
ENDCHAR
STARTCHAR U+BCA1
ENCODING 48289
SWIDTH 935 0
DWIDTH 12 0
BBX 9 8 1 1
BITMAP
8900
8900
FF00
8900
7900
0100
0000
3F80
ENDCHAR
STARTCHAR U+BCA4
ENCODING 48292
SWIDTH 935 0
DWIDTH 12 0
BBX 10 11 0 -2
BITMAP
44A0
44A0
7FA0
44A0
3CA0
00A0
0020
2000
2000
2000
1FE0
ENDCHAR
STARTCHAR U+BCA7
ENCODING 48295
SWIDTH 935 0
DWIDTH 12 0
BBX 10 11 0 -2
BITMAP
44A0
44A0
7FA0
44A0
3CA0
00A0
0000
3FE0
2000
2000
1FE0
ENDCHAR
STARTCHAR U+BCA8
ENCODING 48296
SWIDTH 935 0
DWIDTH 12 0
BBX 10 11 0 -2
BITMAP
44A0
44A0
7FA0
44A0
3CA0
00A0
3FE0
0020
3FE0
2000
1FE0
ENDCHAR
STARTCHAR U+BCB0
ENCODING 48304
SWIDTH 935 0
DWIDTH 12 0
BBX 10 11 0 -2
BITMAP
44A0
44A0
7FA0
44A0
3CA0
00A0
0000
3FE0
2020
2020
1FE0
ENDCHAR
STARTCHAR U+BCB1
ENCODING 48305
SWIDTH 935 0
DWIDTH 12 0
BBX 10 11 0 -2
BITMAP
44A0
44A0
7FA0
44A0
3CA0
00A0
0000
2020
3FE0
2020
1FE0
ENDCHAR
STARTCHAR U+BCB3
ENCODING 48307
SWIDTH 935 0
DWIDTH 12 0
BBX 10 11 0 -2
BITMAP
44A0
44A0
7FA0
44A0
3CA0
00A0
0000
0080
0080
0340
1C30
ENDCHAR
STARTCHAR U+BCB4
ENCODING 48308
SWIDTH 935 0
DWIDTH 12 0
BBX 10 11 0 -2
BITMAP
44A0
44A0
7FA0
44A0
3CA0
00A0
0000
0840
0840
14A0
2310
ENDCHAR
STARTCHAR U+BCB5
ENCODING 48309
SWIDTH 935 0
DWIDTH 12 0
BBX 10 11 0 -2
BITMAP
44A0
44A0
7FA0
44A0
3CA0
00A0
0000
1FC0
2020
2020
1FC0
ENDCHAR
STARTCHAR U+BCBC
ENCODING 48316
SWIDTH 935 0
DWIDTH 12 0
BBX 10 11 0 -2
BITMAP
4240
4240
43C0
7E40
4240
43C0
4240
3E40
0040
0040
0040
ENDCHAR
STARTCHAR U+BCBD
ENCODING 48317
SWIDTH 935 0
DWIDTH 12 0
BBX 10 11 0 -2
BITMAP
4240
43C0
7E40
43C0
3E40
0040
0000
3FC0
0040
0040
0040
ENDCHAR
STARTCHAR U+BCC0
ENCODING 48320
SWIDTH 935 0
DWIDTH 12 0
BBX 10 11 0 -2
BITMAP
4240
43C0
7E40
43C0
3E40
0040
0040
2000
2000
2000
1FC0
ENDCHAR
STARTCHAR U+BCC4
ENCODING 48324
SWIDTH 935 0
DWIDTH 12 0
BBX 10 11 0 -2
BITMAP
4240
43C0
7E40
43C0
3E40
0040
3FC0
0040
3FC0
2000
1FC0
ENDCHAR
STARTCHAR U+BCCD
ENCODING 48333
SWIDTH 935 0
DWIDTH 12 0
BBX 10 11 0 -2
BITMAP
4240
43C0
7E40
43C0
3E40
0040
0000
2040
3FC0
2040
1FC0
ENDCHAR
STARTCHAR U+BCCF
ENCODING 48335
SWIDTH 935 0
DWIDTH 12 0
BBX 10 11 0 -2
BITMAP
4240
43C0
7E40
43C0
3E40
0040
0000
0200
0500
0880
3060
ENDCHAR
STARTCHAR U+BCD0
ENCODING 48336
SWIDTH 935 0
DWIDTH 12 0
BBX 10 11 0 -2
BITMAP
4240
43C0
7E40
43C0
3E40
0040
0000
0880
0880
1540
2220
ENDCHAR
STARTCHAR U+BCD1
ENCODING 48337
SWIDTH 935 0
DWIDTH 12 0
BBX 10 11 0 -2
BITMAP
4240
43C0
7E40
43C0
3E40
0040
0000
1F80
2040
2040
1F80
ENDCHAR
STARTCHAR U+BCD5
ENCODING 48341
SWIDTH 935 0
DWIDTH 12 0
BBX 10 11 0 -2
BITMAP
4240
43C0
7E40
43C0
3E40
0040
3FC0
2000
3FC0
2000
1FC0
ENDCHAR
STARTCHAR U+BCD8
ENCODING 48344
SWIDTH 935 0
DWIDTH 12 0
BBX 8 11 1 -2
BITMAP
89
89
8F
F9
89
8F
89
79
01
01
01
ENDCHAR
STARTCHAR U+BCDC
ENCODING 48348
SWIDTH 935 0
DWIDTH 12 0
BBX 10 11 0 -2
BITMAP
44A0
47A0
7CA0
47A0
3CA0
00A0
0020
2000
2000
2000
1FE0
ENDCHAR
STARTCHAR U+BCF4
ENCODING 48372
SWIDTH 935 0
DWIDTH 12 0
BBX 10 10 0 -1
BITMAP
4040
4040
7FC0
4040
4040
3FC0
0000
0400
0400
FFC0
ENDCHAR
STARTCHAR U+BCF5
ENCODING 48373
SWIDTH 935 0
DWIDTH 12 0
BBX 10 11 0 -2
BITMAP
4040
7FC0
4040
3FC0
0400
FFE0
0000
7FC0
0040
0040
0040
ENDCHAR
STARTCHAR U+BCF6
ENCODING 48374
SWIDTH 935 0
DWIDTH 12 0
BBX 10 11 0 -2
BITMAP
4040
7FC0
4040
3FC0
0400
FFE0
0000
7FC0
0440
0440
0440
ENDCHAR
STARTCHAR U+BCF8
ENCODING 48376
SWIDTH 935 0
DWIDTH 12 0
BBX 10 11 0 -2
BITMAP
4040
7FC0
4040
3FC0
0000
0400
FFE0
4000
4000
4000
3FC0
ENDCHAR
STARTCHAR U+BCFC
ENCODING 48380
SWIDTH 935 0
DWIDTH 12 0
BBX 10 11 0 -2
BITMAP
4040
7FC0
3F80
0400
FFE0
0000
7FC0
0040
7FC0
4000
3FC0
ENDCHAR
STARTCHAR U+BD04
ENCODING 48388
SWIDTH 935 0
DWIDTH 12 0
BBX 10 11 0 -2
BITMAP
4040
7FC0
4040
3FC0
0400
FFE0
0000
7FC0
4040
4040
3FC0
ENDCHAR
STARTCHAR U+BD05
ENCODING 48389
SWIDTH 935 0
DWIDTH 12 0
BBX 10 11 0 -2
BITMAP
4040
7FC0
4040
3FC0
0400
FFE0
0000
4040
7FC0
4040
3FC0
ENDCHAR
STARTCHAR U+BD07
ENCODING 48391
SWIDTH 935 0
DWIDTH 12 0
BBX 10 11 0 -2
BITMAP
4040
7FC0
4040
3FC0
0400
FFE0
0000
0400
0A00
1100
60C0
ENDCHAR
STARTCHAR U+BD09
ENCODING 48393
SWIDTH 935 0
DWIDTH 12 0
BBX 10 11 0 -2
BITMAP
4040
7FC0
4040
3FC0
0400
FFE0
0000
3F80
4040
4040
3F80
ENDCHAR
STARTCHAR U+BD10
ENCODING 48400
SWIDTH 935 0
DWIDTH 12 0
BBX 10 11 0 -2
BITMAP
4240
4240
7E40
4240
3E70
0040
0840
0840
7F40
0040
0040
ENDCHAR
STARTCHAR U+BD14
ENCODING 48404
SWIDTH 935 0
DWIDTH 12 0
BBX 10 11 0 -2
BITMAP
4240
7E40
4240
3E70
0840
7F40
0040
2000
2000
2000
1FC0
ENDCHAR
STARTCHAR U+BD24
ENCODING 48420
SWIDTH 935 0
DWIDTH 12 0
BBX 10 11 0 -2
BITMAP
4240
7E40
4240
3E70
0840
7F40
0000
0880
0880
1540
2220
ENDCHAR
STARTCHAR U+BD2C
ENCODING 48428
SWIDTH 935 0
DWIDTH 12 0
BBX 10 11 0 -2
BITMAP
42A0
42A0
7EA0
42A0
3EE0
00A0
10A0
10A0
7EA0
00A0
00A0
ENDCHAR
STARTCHAR U+BD40
ENCODING 48448
SWIDTH 935 0
DWIDTH 12 0
BBX 10 11 0 -2
BITMAP
44A0
7CA0
44E0
3CA0
10A0
7EA0
00A0
0880
0880
1540
2220
ENDCHAR
STARTCHAR U+BD48
ENCODING 48456
SWIDTH 935 0
DWIDTH 12 0
BBX 10 11 0 -2
BITMAP
4240
4240
7E40
4240
3E40
0040
0840
0840
7F40
0040
0040
ENDCHAR
STARTCHAR U+BD49
ENCODING 48457
SWIDTH 935 0
DWIDTH 12 0
BBX 10 11 0 -2
BITMAP
4240
7E40
4240
3E40
0840
7F40
0040
3FC0
0040
0040
0040
ENDCHAR
STARTCHAR U+BD4C
ENCODING 48460
SWIDTH 935 0
DWIDTH 12 0
BBX 10 11 0 -2
BITMAP
4240
7E40
4240
3E40
0840
7F40
0040
2040
2000
2000
1FC0
ENDCHAR
STARTCHAR U+BD50
ENCODING 48464
SWIDTH 935 0
DWIDTH 12 0
BBX 10 11 0 -2
BITMAP
4240
7E40
3C40
0840
7F40
0040
3FC0
0040
3FC0
2000
1FC0
ENDCHAR
STARTCHAR U+BD58
ENCODING 48472
SWIDTH 935 0
DWIDTH 12 0
BBX 10 11 0 -2
BITMAP
4240
7E40
4240
3E40
0840
7F40
0040
3FC0
2040
2040
1FC0
ENDCHAR
STARTCHAR U+BD59
ENCODING 48473
SWIDTH 935 0
DWIDTH 12 0
BBX 10 11 0 -2
BITMAP
4240
7E40
4240
3E40
0840
7F40
0040
2040
3FC0
2040
1FC0
ENDCHAR
STARTCHAR U+BD64
ENCODING 48484
SWIDTH 935 0
DWIDTH 12 0
BBX 10 10 0 -1
BITMAP
4040
4040
7FC0
4040
4040
3FC0
0000
1100
1100
FFC0
ENDCHAR
STARTCHAR U+BD68
ENCODING 48488
SWIDTH 935 0
DWIDTH 12 0
BBX 10 11 0 -2
BITMAP
4040
7FC0
4040
3FC0
0000
1100
FFE0
4000
4000
4000
3FC0
ENDCHAR
STARTCHAR U+BD80
ENCODING 48512
SWIDTH 935 0
DWIDTH 12 0
BBX 10 11 0 -2
BITMAP
4040
7FC0
4040
4040
3FC0
0000
FFE0
0400
0400
0400
0400
ENDCHAR
STARTCHAR U+BD81
ENCODING 48513
SWIDTH 935 0
DWIDTH 12 0
BBX 10 11 0 -2
BITMAP
4040
7FC0
4040
3FC0
0000
FFE0
0400
7FC0
0040
0040
0040
ENDCHAR
STARTCHAR U+BD84
ENCODING 48516
SWIDTH 935 0
DWIDTH 12 0
BBX 10 11 0 -2
BITMAP
4040
7FC0
4040
3FC0
0000
0000
FFE0
4400
4400
4000
3FC0
ENDCHAR
STARTCHAR U+BD87
ENCODING 48519
SWIDTH 935 0
DWIDTH 12 0
BBX 10 11 0 -2
BITMAP
4040
7FC0
4040
3FC0
0000
FFE0
0400
7FC0
4000
4000
3FC0
ENDCHAR
STARTCHAR U+BD88
ENCODING 48520
SWIDTH 935 0
DWIDTH 12 0
BBX 10 11 0 -2
BITMAP
4040
7FC0
4040
3F80
FFE0
0400
7FC0
0040
7FC0
4000
3FC0
ENDCHAR
STARTCHAR U+BD89
ENCODING 48521
SWIDTH 935 0
DWIDTH 12 0
BBX 10 11 0 -2
BITMAP
4040
7FC0
4040
3F80
FFE0
0400
7BC0
0840
7840
4040
3C40
ENDCHAR
STARTCHAR U+BD8A
ENCODING 48522
SWIDTH 935 0
DWIDTH 12 0
BBX 10 11 0 -2
BITMAP
4040
7FC0
4040
3F80
FFE0
0400
7BC0
0A40
7A40
4240
3FC0
ENDCHAR
STARTCHAR U+BD90
ENCODING 48528
SWIDTH 935 0
DWIDTH 12 0
BBX 10 11 0 -2
BITMAP
4040
7FC0
4040
3FC0
0000
FFE0
0400
7FC0
4040
4040
3FC0
ENDCHAR
STARTCHAR U+BD91
ENCODING 48529
SWIDTH 935 0
DWIDTH 12 0
BBX 10 11 0 -2
BITMAP
4040
7FC0
4040
3FC0
0000
FFE0
0400
4040
7FC0
4040
3FC0
ENDCHAR
STARTCHAR U+BD93
ENCODING 48531
SWIDTH 935 0
DWIDTH 12 0
BBX 10 11 0 -2
BITMAP
4040
7FC0
4040
3FC0
0000
FFE0
0400
0400
0A00
1100
60C0
ENDCHAR
STARTCHAR U+BD95
ENCODING 48533
SWIDTH 935 0
DWIDTH 12 0
BBX 10 11 0 -2
BITMAP
4040
7FC0
4040
3FC0
0000
FFE0
0400
3F80
4040
4040
3F80
ENDCHAR
STARTCHAR U+BD99
ENCODING 48537
SWIDTH 935 0
DWIDTH 12 0
BBX 10 11 0 -2
BITMAP
4040
7FC0
4040
3F80
FFE0
0400
7FC0
4000
7F80
4000
3FC0
ENDCHAR
STARTCHAR U+BD9A
ENCODING 48538
SWIDTH 935 0
DWIDTH 12 0
BBX 10 11 0 -2
BITMAP
4040
7FC0
4040
3FC0
0000
FFE0
0400
7FC0
1100
1100
7FC0
ENDCHAR
STARTCHAR U+BD9C
ENCODING 48540
SWIDTH 935 0
DWIDTH 12 0
BBX 10 11 0 -2
BITMAP
4240
7E40
4240
4240
3E40
0040
7F40
0840
0BC0
0840
0840
ENDCHAR
STARTCHAR U+BDA4
ENCODING 48548
SWIDTH 935 0
DWIDTH 12 0
BBX 10 11 0 -2
BITMAP
4440
7C40
44C0
3840
7F40
0840
3FC0
0040
3FC0
2000
1FC0
ENDCHAR
STARTCHAR U+BDB0
ENCODING 48560
SWIDTH 935 0
DWIDTH 12 0
BBX 10 11 0 -2
BITMAP
4440
7C40
44C0
3C40
0040
7F40
0840
0880
0880
1540
2220
ENDCHAR
STARTCHAR U+BDB8
ENCODING 48568
SWIDTH 935 0
DWIDTH 12 0
BBX 8 11 1 -2
BITMAP
89
F9
89
79
01
01
FD
21
27
21
21
ENDCHAR
STARTCHAR U+BDD4
ENCODING 48596
SWIDTH 935 0
DWIDTH 12 0
BBX 10 11 0 -2
BITMAP
4240
7E40
4240
4240
3E40
0040
7F40
0840
0840
0840
0840
ENDCHAR
STARTCHAR U+BDD5
ENCODING 48597
SWIDTH 935 0
DWIDTH 12 0
BBX 10 11 0 -2
BITMAP
4440
7C40
4440
3C40
0040
7FC0
0840
3FC0
0040
0040
0040
ENDCHAR
STARTCHAR U+BDD8
ENCODING 48600
SWIDTH 935 0
DWIDTH 12 0
BBX 10 11 0 -2
BITMAP
4440
7C40
4440
3C40
0040
7FC0
0840
2840
2000
2000
1FC0
ENDCHAR
STARTCHAR U+BDDC
ENCODING 48604
SWIDTH 935 0
DWIDTH 12 0
BBX 10 11 0 -2
BITMAP
4440
7C40
4440
3840
0040
7FC0
3FC0
0040
3FC0
2000
1FC0
ENDCHAR
STARTCHAR U+BDE9
ENCODING 48617
SWIDTH 935 0
DWIDTH 12 0
BBX 10 11 0 -2
BITMAP
4440
7C40
4440
3C40
0040
7FC0
0840
1F80
2040
2040
1F80
ENDCHAR
STARTCHAR U+BDF0
ENCODING 48624
SWIDTH 935 0
DWIDTH 12 0
BBX 10 11 0 -2
BITMAP
4040
7FC0
4040
4040
3FC0
0000
FFE0
1100
1100
1100
1100
ENDCHAR
STARTCHAR U+BDF4
ENCODING 48628
SWIDTH 935 0
DWIDTH 12 0
BBX 10 11 0 -2
BITMAP
4040
7FC0
4040
3FC0
0000
0000
FFE0
5100
5100
4000
3FC0
ENDCHAR
STARTCHAR U+BDF8
ENCODING 48632
SWIDTH 935 0
DWIDTH 12 0
BBX 10 11 0 -2
BITMAP
4040
7FC0
4040
3F80
FFE0
1100
7FC0
0040
7FC0
4000
3FC0
ENDCHAR
STARTCHAR U+BE00
ENCODING 48640
SWIDTH 935 0
DWIDTH 12 0
BBX 10 11 0 -2
BITMAP
4040
7FC0
4040
3FC0
0000
FFE0
1100
7FC0
4040
4040
3FC0
ENDCHAR
STARTCHAR U+BE03
ENCODING 48643
SWIDTH 935 0
DWIDTH 12 0
BBX 10 11 0 -2
BITMAP
4040
7FC0
4040
3FC0
0000
FFE0
1100
0400
0A00
1100
60C0
ENDCHAR
STARTCHAR U+BE05
ENCODING 48645
SWIDTH 935 0
DWIDTH 12 0
BBX 10 11 0 -2
BITMAP
4040
7FC0
4040
3FC0
0000
FFE0
1100
3F80
4040
4040
3F80
ENDCHAR
STARTCHAR U+BE0C
ENCODING 48652
SWIDTH 935 0
DWIDTH 12 0
BBX 10 10 0 -1
BITMAP
4040
4040
7FC0
4040
4040
3FC0
0000
0000
0000
FFC0
ENDCHAR
STARTCHAR U+BE0D
ENCODING 48653
SWIDTH 935 0
DWIDTH 12 0
BBX 10 11 0 -2
BITMAP
4040
7FC0
4040
3FC0
0000
FFE0
0000
7FC0
0040
0040
0040
ENDCHAR
STARTCHAR U+BE10
ENCODING 48656
SWIDTH 935 0
DWIDTH 12 0
BBX 10 11 0 -2
BITMAP
4040
7FC0
4040
3FC0
0000
0000
FFE0
4000
4000
4000
3FC0
ENDCHAR
STARTCHAR U+BE14
ENCODING 48660
SWIDTH 935 0
DWIDTH 12 0
BBX 10 11 0 -2
BITMAP
4040
7FC0
3F80
0000
FFE0
0000
7FC0
0040
7FC0
4000
3FC0
ENDCHAR
STARTCHAR U+BE1C
ENCODING 48668
SWIDTH 935 0
DWIDTH 12 0
BBX 10 11 0 -2
BITMAP
4040
7FC0
4040
3FC0
0000
FFE0
0000
7FC0
4040
4040
3FC0
ENDCHAR
STARTCHAR U+BE1D
ENCODING 48669
SWIDTH 935 0
DWIDTH 12 0
BBX 10 11 0 -2
BITMAP
4040
7FC0
4040
3FC0
0000
FFE0
0000
4040
7FC0
4040
3FC0
ENDCHAR
STARTCHAR U+BE1F
ENCODING 48671
SWIDTH 935 0
DWIDTH 12 0
BBX 10 11 0 -2
BITMAP
4040
7FC0
4040
3FC0
0000
FFE0
0000
0400
0A00
1100
60C0
ENDCHAR
STARTCHAR U+BE44
ENCODING 48708
SWIDTH 935 0
DWIDTH 12 0
BBX 10 11 0 -2
BITMAP
4240
4240
4240
7E40
4240
4240
4240
3E40
0040
0040
0040
ENDCHAR
STARTCHAR U+BE45
ENCODING 48709
SWIDTH 935 0
DWIDTH 12 0
BBX 10 11 0 -2
BITMAP
4240
4240
7E40
4240
3E40
0040
0000
3FC0
0040
0040
0040
ENDCHAR
STARTCHAR U+BE48
ENCODING 48712
SWIDTH 935 0
DWIDTH 12 0
BBX 10 11 0 -2
BITMAP
4240
4240
7E40
4240
3E40
0040
0040
2000
2000
2000
1FC0
ENDCHAR
STARTCHAR U+BE4C
ENCODING 48716
SWIDTH 935 0
DWIDTH 12 0
BBX 10 11 0 -2
BITMAP
4240
4240
7E40
4240
3E40
0040
3FC0
0040
3FC0
2000
1FC0
ENDCHAR
STARTCHAR U+BE4E
ENCODING 48718
SWIDTH 935 0
DWIDTH 12 0
BBX 10 11 0 -2
BITMAP
4240
4240
7E40
4240
3E40
0040
3DC0
0540
3D40
2140
1FC0
ENDCHAR
STARTCHAR U+BE54
ENCODING 48724
SWIDTH 935 0
DWIDTH 12 0
BBX 10 11 0 -2
BITMAP
4240
4240
7E40
4240
3E40
0040
0000
3FC0
2040
2040
1FC0
ENDCHAR
STARTCHAR U+BE55
ENCODING 48725
SWIDTH 935 0
DWIDTH 12 0
BBX 10 11 0 -2
BITMAP
4240
4240
7E40
4240
3E40
0040
0000
2040
3FC0
2040
1FC0
ENDCHAR
STARTCHAR U+BE57
ENCODING 48727
SWIDTH 935 0
DWIDTH 12 0
BBX 10 11 0 -2
BITMAP
4240
4240
7E40
4240
3E40
0040
0000
0100
0280
0C40
3020
ENDCHAR
STARTCHAR U+BE59
ENCODING 48729
SWIDTH 935 0
DWIDTH 12 0
BBX 10 11 0 -2
BITMAP
4240
4240
7E40
4240
3E40
0040
0000
1F80
2040
2040
1F80
ENDCHAR
STARTCHAR U+BE5A
ENCODING 48730
SWIDTH 935 0
DWIDTH 12 0
BBX 10 11 0 -2
BITMAP
4240
4240
7E40
4240
3E40
0040
0000
3FE0
0100
0680
3860
ENDCHAR
STARTCHAR U+BE5B
ENCODING 48731
SWIDTH 935 0
DWIDTH 12 0
BBX 10 11 0 -2
BITMAP
4240
4240
7E40
4240
3E40
0040
0100
3FE0
0100
0680
3860
ENDCHAR
STARTCHAR U+BE60
ENCODING 48736
SWIDTH 935 0
DWIDTH 12 0
BBX 10 11 0 -2
BITMAP
5540
5540
7740
5540
5570
5540
5540
3340
0040
0040
0040
ENDCHAR
STARTCHAR U+BE61
ENCODING 48737
SWIDTH 935 0
DWIDTH 12 0
BBX 10 11 0 -2
BITMAP
5540
5540
7770
5540
5540
3340
0000
3FC0
0040
0040
0040
ENDCHAR
STARTCHAR U+BE64
ENCODING 48740
SWIDTH 935 0
DWIDTH 12 0
BBX 10 11 0 -2
BITMAP
5540
5540
7740
5570
5540
3340
0040
2000
2000
2000
1FC0
ENDCHAR
STARTCHAR U+BE68
ENCODING 48744
SWIDTH 935 0
DWIDTH 12 0
BBX 10 11 0 -2
BITMAP
5540
5540
7770
5540
3340
0040
3FC0
0040
3FC0
2000
1FC0
ENDCHAR
STARTCHAR U+BE6A
ENCODING 48746
SWIDTH 935 0
DWIDTH 12 0
BBX 10 11 0 -2
BITMAP
5540
5540
7770
5540
3340
0040
3DC0
0540
3D40
2140
1FC0
ENDCHAR
STARTCHAR U+BE70
ENCODING 48752
SWIDTH 935 0
DWIDTH 12 0
BBX 10 11 0 -2
BITMAP
5540
5540
7770
5540
5540
3340
0000
3FC0
2040
2040
1FC0
ENDCHAR
STARTCHAR U+BE71
ENCODING 48753
SWIDTH 935 0
DWIDTH 12 0
BBX 10 11 0 -2
BITMAP
5540
5540
7770
5540
5540
3340
0000
2040
3FC0
2040
1FC0
ENDCHAR
STARTCHAR U+BE73
ENCODING 48755
SWIDTH 935 0
DWIDTH 12 0
BBX 10 11 0 -2
BITMAP
5540
5540
7770
5540
5540
3340
0000
0100
0280
0C40
3020
ENDCHAR
STARTCHAR U+BE74
ENCODING 48756
SWIDTH 935 0
DWIDTH 12 0
BBX 10 11 0 -2
BITMAP
5540
5540
7770
5540
5540
3340
0000
0880
0880
1540
2220
ENDCHAR
STARTCHAR U+BE75
ENCODING 48757
SWIDTH 935 0
DWIDTH 12 0
BBX 10 11 0 -2
BITMAP
5540
5540
7770
5540
5540
3340
0000
1F80
2040
2040
1F80
ENDCHAR
STARTCHAR U+BE7B
ENCODING 48763
SWIDTH 935 0
DWIDTH 12 0
BBX 10 11 0 -2
BITMAP
5540
5540
7770
5540
3340
0040
0700
0000
7FE0
1040
0F80
ENDCHAR
STARTCHAR U+BE7C
ENCODING 48764
SWIDTH 935 0
DWIDTH 12 0
BBX 10 11 0 -2
BITMAP
A920
A920
F920
A920
A920
A9E0
A920
F920
0120
0120
0120
ENDCHAR
STARTCHAR U+BE7D
ENCODING 48765
SWIDTH 935 0
DWIDTH 12 0
BBX 9 8 1 1
BITMAP
AA00
AA00
FB80
AA00
7A00
0200
0000
3F80
ENDCHAR
STARTCHAR U+BE80
ENCODING 48768
SWIDTH 935 0
DWIDTH 12 0
BBX 10 11 0 -2
BITMAP
5520
5520
7DE0
5520
3D20
0120
0020
2000
2000
2000
1FE0
ENDCHAR
STARTCHAR U+BE84
ENCODING 48772
SWIDTH 935 0
DWIDTH 12 0
BBX 10 11 0 -2
BITMAP
5520
5520
7DE0
5520
3D20
0120
3FE0
0020
3FE0
2000
1FE0
ENDCHAR
STARTCHAR U+BE8C
ENCODING 48780
SWIDTH 935 0
DWIDTH 12 0
BBX 10 11 0 -2
BITMAP
5520
5520
7DE0
5520
3D20
0120
0000
3FE0
2020
2020
1FE0
ENDCHAR
STARTCHAR U+BE8D
ENCODING 48781
SWIDTH 935 0
DWIDTH 12 0
BBX 10 11 0 -2
BITMAP
5520
5520
7DE0
5520
3D20
0120
0000
2020
3FE0
2020
1FE0
ENDCHAR
STARTCHAR U+BE8F
ENCODING 48783
SWIDTH 935 0
DWIDTH 12 0
BBX 10 11 0 -2
BITMAP
5520
5520
7DE0
5520
3D20
0120
0000
0080
0080
0340
1C30
ENDCHAR
STARTCHAR U+BE90
ENCODING 48784
SWIDTH 935 0
DWIDTH 12 0
BBX 10 11 0 -2
BITMAP
5520
5520
7DE0
5520
3D20
0120
0000
0840
0840
14A0
2310
ENDCHAR
STARTCHAR U+BE91
ENCODING 48785
SWIDTH 935 0
DWIDTH 12 0
BBX 10 11 0 -2
BITMAP
5520
5520
7DE0
5520
3D20
0120
0000
1FC0
2020
2020
1FC0
ENDCHAR
STARTCHAR U+BE98
ENCODING 48792
SWIDTH 935 0
DWIDTH 12 0
BBX 10 11 0 -2
BITMAP
5540
5540
7770
5540
5540
5540
5570
3340
0040
0040
0040
ENDCHAR
STARTCHAR U+BE99
ENCODING 48793
SWIDTH 935 0
DWIDTH 12 0
BBX 10 11 0 -2
BITMAP
5540
5570
7740
5570
5540
3340
0000
3FC0
0040
0040
0040
ENDCHAR
STARTCHAR U+BEA8
ENCODING 48808
SWIDTH 935 0
DWIDTH 12 0
BBX 10 11 0 -2
BITMAP
5540
5570
7740
5570
5540
3340
0000
3FC0
2040
2040
1FC0
ENDCHAR
STARTCHAR U+BED0
ENCODING 48848
SWIDTH 935 0
DWIDTH 12 0
BBX 10 11 0 -2
BITMAP
5540
5540
7740
55C0
5540
5540
5540
3340
0040
0040
0040
ENDCHAR
ENDFONT
